{
.appVersion = "3151";
.formatVersion = 3;
DisplayStrings = (
"₸"
);
axes = (
{
name = Weight;
tag = wght;
}
);
customParameters = (
{
name = panose;
value = (
0,
0,
0,
0,
0,
0,
0,
0,
0,
0
);
},
{
name = fsType;
value = (
);
},
{
name = "Write lastChange";
value = 0;
},
{
name = "Use Typo Metrics";
value = 1;
},
{
name = "Use Line Breaks";
value = 1;
},
{
name = "Enforce Compatibility Check";
value = 1;
},
{
name = vendorID;
value = TBLD;
}
);
date = "2023-12-10 12:24:40 +0000";
familyName = Wittgenstein;
fontMaster = (
{
axesValues = (
400
);
customParameters = (
{
name = hheaAscender;
value = 1100;
},
{
name = hheaDescender;
value = -350;
},
{
name = hheaLineGap;
value = 0;
},
{
name = typoAscender;
value = 950;
},
{
name = typoDescender;
value = -300;
},
{
name = typoLineGap;
value = 0;
},
{
name = underlinePosition;
value = -50;
},
{
name = winAscent;
value = 1100;
},
{
name = winDescent;
value = 350;
},
{
name = "Master Icon Glyph Name";
value = w;
}
);
id = m01;
metricValues = (
{
over = 16;
pos = 950;
},
{
over = 16;
pos = 700;
},
{
over = 16;
pos = 500;
},
{
over = -16;
},
{
over = -16;
pos = -300;
},
{
over = -16;
}
);
name = Regular;
stemValues = (
90,
40
);
userData = {
GSCornerRadius = 66;
GSOffsetHorizontal = 26;
GSOffsetKeepCompatible = 1;
GSOffsetVertical = 2;
};
},
{
axesValues = (
700
);
customParameters = (
{
name = hheaAscender;
value = 1100;
},
{
name = hheaDescender;
value = -350;
},
{
name = hheaLineGap;
value = 0;
},
{
name = typoAscender;
value = 950;
},
{
name = typoDescender;
value = -300;
},
{
name = typoLineGap;
value = 0;
},
{
name = underlinePosition;
value = -50;
},
{
name = winAscent;
value = 1100;
},
{
name = winDescent;
value = 350;
},
{
name = "Master Icon Glyph Name";
value = w;
}
);
iconName = SemiBold;
id = m002;
metricValues = (
{
over = 16;
pos = 950;
},
{
over = 16;
pos = 700;
},
{
over = 16;
pos = 500;
},
{
over = -16;
},
{
over = -16;
pos = -300;
},
{
over = -16;
}
);
name = Bold;
stemValues = (
142,
50
);
userData = {

glyphs = (
{
glyphname = A;
layers = (
{
layerId = m01;
shapes = (
{
closed = 1;
nodes = (
(683,50,l),
(442,720,l),
(343,700,l),
(584,50,l)
);
},
{
closed = 1;
nodes = (
(248,0,l),
(248,19,l),
(154,50,l),
(99,50,l),
(8,20,l),
(8,0,l)
);
},
{
closed = 1;
nodes = (
(154,50,l),
(398,700,l),
(343,700,l),
(99,50,l)
);
},
{
closed = 1;
nodes = (
(540,241,l),
(540,281,l),
(194,281,l),
(194,241,l)
);
},
{
closed = 1;
nodes = (
(777,0,l),
(777,19,l),
(683,50,l),
(584,50,l),
(493,20,l),
(493,0,l)
);
}
);
width = 785;
},
{
layerId = m002;
shapes = (
{
closed = 1;
nodes = (
(708,48,l),
(464,727,l),
(319,698,l),
(560,48,l)
);
},
{
closed = 1;
nodes = (
(274,-2,l),
(274,15,l),
(162,52,l),
(91,52,l),
(-18,16,l),
(-18,-2,l)
);
},
{
closed = 1;
nodes = (
(178,48,l),
(423,702,l),
(319,702,l),
(74,48,l)
);
},
{
closed = 1;
nodes = (
(566,239,l),
(566,283,l),
(168,283,l),
(168,239,l)
);
},
{
closed = 1;
nodes = (
(803,-2,l),
(803,15,l),
(691,52,l),
(576,52,l),
(467,16,l),
(467,-2,l)
);
}
);
width = 785;
}
);
unicode = 65;
},
{
glyphname = AE;
layers = (
{
layerId = m01;
shapes = (
{
closed = 1;
nodes = (
(894,0,l),
(929,197,l),
(910,204,l),
(829,50,l),
(543,50,l),
(543,341,l),
(719,341,l),
(719,339,l),
(750,245,l),
(769,245,l),
(769,475,l),
(749,475,l),
(719,384,l),
(719,381,l),
(543,381,l),
(543,650,l),
(834,650,l),
(870,520,l),
(891,520,l),
(891,700,l),
(448,700,l),
(448,0,l)
);
},
{
closed = 1;
nodes = (
(252,0,l),
(252,19,l),
(158,50,l),
(103,50,l),
(12,20,l),
(12,0,l)
);
},
{
closed = 1;
nodes = (
(514,211,l),
(514,251,l),
(218,251,l),
(218,211,l)
);
},
{
closed = 1;
nodes = (
(158,50,l),
(502,700,l),
(449,700,l),
(103,50,l)
);
}
);
width = 941;
},
{
layerId = m002;
shapes = (
{
closed = 1;
nodes = (
(919,-2,l),
(954,193,l),
(913,216,l),
(827,52,l),
(599,52,l),
(599,339,l),
(713,339,l),
(714,338,l),
(746,243,l),
(795,243,l),
(795,477,l),
(745,477,l),
(713,381,l),
(713,383,l),
(599,383,l),
(599,648,l),
(829,648,l),
(865,518,l),
(917,518,l),
(917,702,l),
(452,702,l),
(452,-2,l)
);
},
{
closed = 1;
nodes = (
(278,-2,l),
(278,15,l),
(166,52,l),
(95,52,l),
(-14,16,l),
(-14,-2,l)
);
},
{
closed = 1;
nodes = (
(570,209,l),
(570,253,l),
(222,253,l),
(222,209,l)
);
},
{
closed = 1;
nodes = (
(180,48,l),
(557,702,l),
(457,702,l),
(78,48,l)
);
}
);
width = 941;
}
);
unicode = 198;
},
{
glyphname = B;
layers = (
{
layerId = m01;
shapes = (
{
closed = 1;
nodes = (
(495,0,o),
(602,79,o),
(602,205,cs),
(602,313,o),
(506,381,o),
(354,381,c),
(324,341,l),
(427,341,o),
(492,278,o),
(492,177,cs),
(492,99,o),
(439,50,o),
(354,50,c),
(324,0,l)
);
},
{
closed = 1;
nodes = (
(324,0,l),
(354,50,l),
(125,50,l),
(34,20,l),
(34,0,l)
);
},
{
closed = 1;
nodes = (
(220,50,l),
(220,650,l),
(125,650,l),
(125,50,l)
);
},
{
closed = 1;
nodes = (
(324,341,l),
(354,381,l),
(190,381,l),
(190,341,l)
);
},
{
closed = 1;
nodes = (
(324,650,l),
(354,700,l),
(34,700,l),
(34,680,l),
(125,650,l)
);
},
{
closed = 1;
nodes = (
(463,341,o),
(562,422,o),
(562,537,cs),
(562,632,o),
(476,700,o),
(354,700,c),
(324,650,l),
(399,650,o),
(452,590,o),
(452,505,cs),
(452,432,o),
(411,381,o),
(354,381,c),
(324,341,l)
);
}
);
width = 660;
},
{
layerId = m002;
shapes = (
{
closed = 1;
nodes = (
(511,-2,o),
(628,84,o),
(628,205,cs),
(628,309,o),
(524,383,o),
(377,383,c),
(344,339,l),
(415,339,o),
(466,272,o),
(466,177,cs),
(466,104,o),
(430,52,o),
(378,52,c),
(346,-2,l)
);
},
{
closed = 1;
nodes = (
(346,-2,l),
(378,52,l),
(99,52,l),
(8,16,l),
(8,-2,l)
);
},
{
closed = 1;
nodes = (
(246,52,l),
(246,648,l),
(99,648,l),
(99,52,l)
);
},
{
closed = 1;
nodes = (
(344,339,l),
(377,383,l),
(164,383,l),
(164,339,l)
);
},
{
closed = 1;
nodes = (
(346,648,l),
(378,702,l),
(8,702,l),
(8,684,l),
(99,648,l)
);
},
{
closed = 1;
nodes = (
(487,339,o),
(588,421,o),
(588,537,cs),
(588,634,o),
(501,702,o),
(378,702,c),
(346,648,l),
(393,648,o),
(426,589,o),
(426,505,cs),
(426,434,o),
(406,383,o),
(377,383,c),
(344,339,l)
);
}
);
width = 660;
}
);
unicode = 66;
},
{
glyphname = C;
layers = (
{
layerId = m01;
shapes = (
{
closed = 1;
nodes = (
(407,24,l),
(257,24,o),
(151,186,o),
(151,415,cs),
(151,568,o),
(240,676,o),
(367,676,c),
(387,715,l),
(185,713,o),
(42,561,o),
(42,347,cs),
(42,135,o),
(185,-15,o),
(387,-15,c)
);
},
{
closed = 1;
nodes = (
(453,-15,o),
(552,13,o),
(624,52,c),
(624,200,l),
(586,200,l),
(586,97,o),
(512,24,o),
(407,24,c),
(387,-15,l)
);
},
{
closed = 1;
nodes = (
(624,500,l),
(624,648,l),
(552,687,o),
(454,715,o),
(387,715,c),
(367,676,l),
(477,676,o),
(586,582,o),
(586,500,c)
);
}
);
width = 700;
},
{
layerId = m002;
shapes = (
{
closed = 1;
nodes = (
(433,28,l),
(292,6,o),
(177,165,o),
(177,415,cs),
(177,585,o),
(271,687,o),
(389,673,c),
(411,717,l),
(184,726,o),
(16,573,o),
(16,347,cs),
(16,122,o),
(186,-27,o),
(410,-16,c)
);
},
{
closed = 1;
nodes = (
(439,-25,o),
(578,14,o),
(650,58,c),
(650,202,l),
(580,202,l),
(581,83,o),
(484,16,o),
(385,27,c),
(363,-16,l)
);
},
{
closed = 1;
nodes = (
(650,498,l),
(650,642,l),
(578,686,o),
(442,724,o),
(364,716,c),
(341,672,l),
(442,690,o),
(582,595,o),
(580,498,c)
);
}
);
width = 700;
}
);
unicode = 67;
},
{
glyphname = D;
layers = (
{
layerId = m01;
shapes = (
{
closed = 1;
nodes = (
(560,0,o),
(700,160,o),
(700,385,cs),
(700,569,o),
(572,700,o),
(392,700,c),
(362,650,l),
(496,650,o),
(590,523,o),
(590,344,cs),
(590,172,o),
(508,50,o),
(392,50,c),
(362,0,l)
);
},
{
closed = 1;
nodes = (
(362,0,l),
(392,50,l),
(123,50,l),
(32,20,l),
(32,0,l)
);
},
{
closed = 1;
nodes = (
(218,50,l),
(218,650,l),
(123,650,l),
(123,50,l)
);
},
{
closed = 1;
nodes = (
(362,650,l),
(392,700,l),
(32,700,l),
(32,680,l),
(123,650,l)
);
}
);
width = 754;
},
{
layerId = m002;
shapes = (
{
closed = 1;
nodes = (
(563,-14,o),
(726,148,o),
(726,385,cs),
(726,580,o),
(573,712,o),
(370,701,c),
(337,648,l),
(462,665,o),
(564,542,o),
(564,344,cs),
(564,154,o),
(476,36,o),
(371,52,c),
(338,-1,l)
);
},
{
closed = 1;
nodes = (
(384,-2,l),
(416,52,l),
(115,52,l),
(6,16,l),
(6,-2,l)
);
},
{
closed = 1;
nodes = (
(244,48,l),
(244,652,l),
(97,652,l),
(97,48,l)
);
},
{
closed = 1;
nodes = (
(384,648,l),
(416,702,l),
(6,702,l),
(6,684,l),
(115,648,l)
);
}
);
width = 754;
}
);
unicode = 68;
},
{
glyphname = Eth;
layers = (
{
layerId = m01;
shapes = (
{
closed = 1;
nodes = (
(560,0,o),
(700,160,o),
(700,385,cs),
(700,569,o),
(572,700,o),
(392,700,c),
(362,650,l),
(496,650,o),
(590,523,o),
(590,344,cs),
(590,172,o),
(508,50,o),
(392,50,c),
(362,0,l)
);
},
{
closed = 1;
nodes = (
(362,0,l),
(392,50,l),
(123,50,l),
(32,20,l),
(32,0,l)
);
},
{
closed = 1;
nodes = (
(218,50,l),
(218,650,l),
(123,650,l),
(123,50,l)
);
},
{
closed = 1;
nodes = (
(352,337,l),
(352,379,l),
(32,379,l),
(32,337,l)
);
},
{
closed = 1;
nodes = (
(362,650,l),
(392,700,l),
(32,700,l),
(32,680,l),
(123,650,l)
);
}
);
width = 754;
},
{
layerId = m002;
shapes = (
{
closed = 1;
nodes = (
(563,-14,o),
(726,148,o),
(726,385,cs),
(726,580,o),
(573,712,o),
(370,701,c),
(337,646,l),
(462,665,o),
(564,542,o),
(564,344,cs),
(564,154,o),
(476,36,o),
(371,54,c),
(338,-1,l)
);
},
{
closed = 1;
nodes = (
(384,-2,l),
(416,52,l),
(115,52,l),
(6,16,l),
(6,-2,l)
);
},
{
closed = 1;
nodes = (
(244,48,l),
(244,652,l),
(97,652,l),
(97,48,l)
);
},
{
closed = 1;
nodes = (
(378,335,l),
(378,381,l),
(6,381,l),
(6,335,l)
);
},
{
closed = 1;
nodes = (
(384,648,l),
(416,702,l),
(6,702,l),
(6,684,l),
(115,648,l)
);
}
);
width = 754;
}
);
unicode = 208;
},
{
glyphname = E;
layers = (
{
layerId = m01;
shapes = (
{
closed = 1;
nodes = (
(218,50,l),
(218,650,l),
(123,650,l),
(123,50,l)
);
},
{
closed = 1;
nodes = (
(504,0,l),
(504,50,l),
(123,50,l),
(32,20,l),
(32,0,l)
);
},
{
closed = 1;
nodes = (
(569,0,l),
(604,197,l),
(585,204,l),
(504,50,l),
(504,0,l)
);
},
{
closed = 1;
nodes = (
(444,341,l),
(444,381,l),
(188,381,l),
(188,341,l)
);
},
{
closed = 1;
nodes = (
(444,245,l),
(444,475,l),
(424,475,l),
(394,384,l),
(394,339,l),
(425,245,l)
);
},
{
closed = 1;
nodes = (
(509,650,l),
(509,700,l),
(32,700,l),
(32,680,l),
(123,650,l)
);
},
{
closed = 1;
nodes = (
(566,520,l),
(566,700,l),
(509,700,l),
(509,650,l),
(545,520,l)
);
}
);
width = 649;
},
{
layerId = m002;
shapes = (
{
closed = 1;
nodes = (
(244,48,l),
(244,652,l),
(97,652,l),
(97,48,l)
);
},
{
closed = 1;
nodes = (
(530,-2,l),
(530,52,l),
(115,52,l),
(6,16,l),
(6,-2,l)
);
},
{
closed = 1;
nodes = (
(594,-2,l),
(629,193,l),
(608,216,l),
(518,45,l),
(478,-2,l)
);
},
{
closed = 1;
nodes = (
(470,339,l),
(470,383,l),
(162,383,l),
(162,339,l)
);
},
{
closed = 1;
nodes = (
(470,243,l),
(470,477,l),
(430,477,l),
(388,381,l),
(388,342,l),
(431,243,l)
);
},
{
closed = 1;
nodes = (
(535,648,l),
(535,702,l),
(6,702,l),
(6,684,l),
(115,648,l)
);
},
{
closed = 1;
nodes = (
(592,518,l),
(592,702,l),
(483,702,l),
(523,653,l),
(560,518,l)
);
}
);
width = 649;
}
);
unicode = 69;
},
{
glyphname = Schwa;
layers = (
{
layerId = m01;
shapes = (
{
closed = 1;
nodes = (
(435,-14,o),
(546,145,o),
(547,370,cs),
(549,570,o),
(442,712,o),
(288,712,cs),
(204,712,o),
(112,659,o),
(67,585,c),
(103,566,l),
(140,609,o),
(202,640,o),
(253,640,cs),
(372,640,o),
(456,508,o),
(456,322,c),
(59,322,l),
(45,125,o),
(136,-14,o),
(279,-14,cs)
);
},
{
closed = 1;
nodes = (
(221,29,o),
(149,136,o),
(142,288,c),
(138,283,ls),
(135,280,o),
(199,280,o),
(293,283,cs),
(459,288,l),
(459,136,o),
(400,29,o),
(316,29,cs)
);
}
);
width = 600;
},
{
layerId = m002;
shapes = (
{
closed = 1;
nodes = (
(458,-16,o),
(572,147,o),
(573,370,cs),
(575,567,o),
(464,714,o),
(288,714,cs),
(192,714,o),
(87,654,o),
(46,588,c),
(113,553,l),
(157,610,o),
(210,638,o),
(253,638,cs),
(350,638,o),
(429,514,o),
(430,324,c),
(33,324,l),
(18,125,o),
(114,-16,o),
(279,-16,cs)
);
},
{
closed = 1;
nodes = (
(242,31,o),
(175,100,o),
(165,314,c),
(111,275,l),
(112,277,o),
(196,278,o),
(294,281,cs),
(433,285,l),
(432,130,o),
(377,31,o),
(316,31,cs)
);
}
);
width = 600;
}
);
unicode = 399;
},
{
glyphname = F;
layers = (
{
layerId = m01;
shapes = (
{
closed = 1;
nodes = (
(218,50,l),
(218,650,l),
(123,650,l),
(123,50,l)
);
},
{
closed = 1;
nodes = (
(332,0,l),
(332,19,l),
(218,50,l),
(123,50,l),
(32,20,l),
(32,0,l)
);
},
{
closed = 1;
nodes = (
(444,341,l),
(444,381,l),
(188,381,l),
(188,341,l)
);
},
{
closed = 1;
nodes = (
(444,245,l),
(444,475,l),
(424,475,l),
(394,384,l),
(394,339,l),
(425,245,l)
);
},
{
closed = 1;
nodes = (
(509,650,l),
(509,700,l),
(32,700,l),
(32,680,l),
(123,650,l)
);
},
{
closed = 1;
nodes = (
(566,520,l),
(566,700,l),
(509,700,l),
(509,650,l),
(545,520,l)
);
}
);
width = 597;
},
{
layerId = m002;
shapes = (
{
closed = 1;
nodes = (
(244,48,l),
(244,652,l),
(97,652,l),
(97,48,l)
);
},
{
closed = 1;
nodes = (
(358,-2,l),
(358,16,l),
(225,52,l),
(115,52,l),
(6,16,l),
(6,-2,l)
);
},
{
closed = 1;
nodes = (
(470,339,l),
(470,383,l),
(162,383,l),
(162,339,l)
);
},
{
closed = 1;
nodes = (
(470,243,l),
(470,477,l),
(420,477,l),
(388,381,l),
(388,342,l),
(421,243,l)
);
},
{
closed = 1;
nodes = (
(535,648,l),
(535,702,l),
(6,702,l),
(6,684,l),
(115,648,l)
);
},
{
closed = 1;
nodes = (
(592,518,l),
(592,702,l),
(483,702,l),
(503,653,l),
(540,518,l)
);
}
);
width = 597;
}
);
unicode = 70;
},
{
glyphname = G;
layers = (
{
layerId = m01;
shapes = (
{
closed = 1;
nodes = (
(420,24,l),
(258,24,o),
(144,186,o),
(144,415,cs),
(144,568,o),
(242,676,o),
(380,676,c),
(400,715,l),
(186,713,o),
(35,561,o),
(35,347,cs),
(35,135,o),
(186,-15,o),
(400,-15,c)
);
},
{
closed = 1;
nodes = (
(486,-15,o),
(597,14,o),
(667,54,c),
(667,150,l),
(621,160,l),
(587,80,o),
(504,24,o),
(420,24,c),
(400,-15,l)
);
},
{
closed = 1;
nodes = (
(667,54,l),
(667,250,l),
(572,250,l),
(572,54,l)
);
},
{
closed = 1;
nodes = (
(667,250,l),
(731,281,l),
(731,300,l),
(441,300,l),
(441,280,l),
(572,250,l)
);
},
{
closed = 1;
nodes = (
(637,500,l),
(637,648,l),
(565,687,o),
(466,715,o),
(400,715,c),
(380,676,l),
(508,676,o),
(599,603,o),
(599,500,c)
);
}
);
width = 737;
},
{
layerId = m002;
shapes = (
{
closed = 1;
nodes = (
(445,28,l),
(292,8,o),
(170,167,o),
(170,415,cs),
(170,584,o),
(272,686,o),
(402,673,c),
(424,717,l),
(187,726,o),
(9,573,o),
(9,347,cs),
(9,124,o),
(186,-27,o),
(423,-16,c)
);
},
{
closed = 1;
nodes = (
(476,-23,o),
(627,8,o),
(693,52,c),
(693,148,l),
(600,168,l),
(560,66,o),
(477,16,o),
(398,28,c),
(376,-16,l)
);
},
{
closed = 1;
nodes = (
(693,52,l),
(693,252,l),
(546,252,l),
(546,52,l)
);
},
{
closed = 1;
nodes = (
(678,248,l),
(757,286,l),
(757,302,l),
(415,302,l),
(415,283,l),
(566,248,l)
);
},
{
closed = 1;
nodes = (
(663,498,l),
(663,642,l),
(591,686,o),
(453,724,o),
(377,716,c),
(355,673,l),
(481,683,o),
(604,616,o),
(603,498,c)
);
}
);
width = 737;
}
);
unicode = 71;
},
{
glyphname = H;
layers = (
{
layerId = m01;
shapes = (
{
closed = 1;
nodes = (
(699,50,l),
(699,650,l),
(604,650,l),
(604,50,l)
);
},
{
closed = 1;
nodes = (
(308,0,l),
(308,19,l),
(214,50,l),
(119,50,l),
(28,20,l),
(28,0,l)
);
},
{
closed = 1;
nodes = (
(214,50,l),
(214,650,l),
(119,650,l),
(119,50,l)
);
},
{
closed = 1;
nodes = (
(793,0,l),
(793,19,l),
(699,50,l),
(604,50,l),
(513,20,l),
(513,0,l)
);
},
{
closed = 1;
nodes = (
(649,335,l),
(649,375,l),
(163,375,l),
(163,335,l)
);
},
{
closed = 1;
nodes = (
(214,650,l),
(308,681,l),
(308,700,l),
(28,700,l),
(28,680,l),
(119,650,l)
);
},
{
closed = 1;
nodes = (
(699,650,l),
(793,681,l),
(793,700,l),
(513,700,l),
(513,680,l),
(604,650,l)
);
}
);
width = 821;
},
{
layerId = m002;
shapes = (
{
closed = 1;
nodes = (
(725,48,l),
(725,652,l),
(578,652,l),
(578,48,l)
);
},
{
closed = 1;
nodes = (
(334,-2,l),
(334,15,l),
(222,52,l),
(111,52,l),
(2,16,l),
(2,-2,l)
);
},
{
closed = 1;
nodes = (
(240,48,l),
(240,652,l),
(93,652,l),
(93,48,l)
);
},
{
closed = 1;
nodes = (
(819,-2,l),
(819,15,l),
(707,52,l),
(596,52,l),
(487,16,l),
(487,-2,l)
);
},
{
closed = 1;
nodes = (
(675,333,l),
(675,377,l),
(137,377,l),
(137,333,l)
);
},
{
closed = 1;
nodes = (
(222,648,l),
(334,685,l),
(334,702,l),
(2,702,l),
(2,684,l),
(111,648,l)
);
},
{
closed = 1;
nodes = (
(707,648,l),
(819,685,l),
(819,702,l),
(487,702,l),
(487,684,l),
(596,648,l)
);
}
);
width = 821;
}
);
unicode = 72;
},
{
glyphname = Hbar;
layers = (
{
layerId = m01;
shapes = (
{
closed = 1;
nodes = (
(699,50,l),
(699,650,l),
(604,650,l),
(604,50,l)
);
},
{
closed = 1;
nodes = (
(308,0,l),
(308,19,l),
(214,50,l),
(119,50,l),
(28,20,l),
(28,0,l)
);
},
{
closed = 1;
nodes = (
(214,50,l),
(214,650,l),
(119,650,l),
(119,50,l)
);
},
{
closed = 1;
nodes = (
(793,0,l),
(793,19,l),
(699,50,l),
(604,50,l),
(513,20,l),
(513,0,l)
);
},
{
closed = 1;
nodes = (
(649,335,l),
(649,375,l),
(163,375,l),
(163,335,l)
);
},
{
closed = 1;
nodes = (
(214,650,l),
(308,681,l),
(308,700,l),
(28,700,l),
(28,680,l),
(119,650,l)
);
},
{
closed = 1;
nodes = (
(765,519,l),
(765,559,l),
(47,559,l),
(47,519,l)
);
},
{
closed = 1;
nodes = (
(699,650,l),
(793,681,l),
(793,700,l),
(513,700,l),
(513,680,l),
(604,650,l)
);
}
);
width = 821;
},
{
layerId = m002;
shapes = (
{
closed = 1;
nodes = (
(725,48,l),
(725,652,l),
(578,652,l),
(578,48,l)
);
},
{
closed = 1;
nodes = (
(334,-2,l),
(334,15,l),
(222,52,l),
(111,52,l),
(2,16,l),
(2,-2,l)
);
},
{
closed = 1;
nodes = (
(240,48,l),
(240,652,l),
(93,652,l),
(93,48,l)
);
},
{
closed = 1;
nodes = (
(819,-2,l),
(819,15,l),
(707,52,l),
(596,52,l),
(487,16,l),
(487,-2,l)
);
},
{
closed = 1;
nodes = (
(675,333,l),
(675,377,l),
(137,377,l),
(137,333,l)
);
},
{
closed = 1;
nodes = (
(222,648,l),
(334,685,l),
(334,702,l),
(2,702,l),
(2,684,l),
(111,648,l)
);
},
{
closed = 1;
nodes = (
(791,517,l),
(791,561,l),
(21,561,l),
(21,517,l)
);
},
{
closed = 1;
nodes = (
(707,648,l),
(819,685,l),
(819,702,l),
(487,702,l),
(487,684,l),
(596,648,l)
);
}
);
width = 821;
}
);
unicode = 294;
},
{
glyphname = I;
layers = (
{
layerId = m01;
shapes = (
{
closed = 1;
nodes = (
(214,50,l),
(214,650,l),
(119,650,l),
(119,50,l)
);
},
{
closed = 1;
nodes = (
(308,0,l),
(308,19,l),
(214,50,l),
(119,50,l),
(28,20,l),
(28,0,l)
);
},
{
closed = 1;
nodes = (
(214,650,l),
(308,681,l),
(308,700,l),
(28,700,l),
(28,680,l),
(119,650,l)
);
}
);
width = 336;
},
{
layerId = m002;
shapes = (
{
closed = 1;
nodes = (
(240,48,l),
(240,652,l),
(93,652,l),
(93,48,l)
);
},
{
closed = 1;
nodes = (
(334,-2,l),
(334,15,l),
(222,52,l),
(111,52,l),
(2,16,l),
(2,-2,l)
);
},
{
closed = 1;
nodes = (
(222,648,l),
(334,685,l),
(334,702,l),
(2,702,l),
(2,684,l),
(111,648,l)
);
}
);
width = 336;
}
);
unicode = 73;
},
{
glyphname = J;
layers = (
{
layerId = m01;
shapes = (
{
closed = 1;
nodes = (
(224,50,l),
(224,650,l),
(129,650,l),
(129,50,l)
);
},
{
closed = 1;
nodes = (
(155,-131,o),
(224,-22,o),
(224,50,c),
(129,50,l),
(129,49,ls),
(129,-52,o),
(90,-148,o),
(36,-184,c),
(57,-214,l)
);
},
{
closed = 1;
nodes = (
(224,650,l),
(318,681,l),
(318,700,l),
(38,700,l),
(38,680,l),
(129,650,l)
);
}
);
width = 356;
},
{
layerId = m002;
shapes = (
{
closed = 1;
nodes = (
(250,48,l),
(250,652,l),
(103,652,l),
(103,48,l)
);
},
{
closed = 1;
nodes = (
(178,-194,o),
(251,-22,o),
(250,52,c),
(103,52,l),
(103,49,ls),
(103,-61,o),
(59,-165,o),
(15,-186,c),
(50,-235,l)
);
},
{
closed = 1;
nodes = (
(232,648,l),
(344,685,l),
(344,702,l),
(12,702,l),
(12,684,l),
(121,648,l)
);
}
);
width = 356;
}
);
unicode = 74;
},
{
glyphname = K;
layers = (
{
layerId = m01;
shapes = (
{
closed = 1;
nodes = (
(706,0,l),
(706,19,l),
(622,50,l),
(337,409,l),
(247,356,l),
(525,0,l)
);
},
{
closed = 1;
nodes = (
(298,0,l),
(298,19,l),
(214,50,l),
(119,50,l),
(28,20,l),
(28,0,l)
);
},
{
closed = 1;
nodes = (
(214,50,l),
(214,650,l),
(119,650,l),
(119,50,l)
);
},
{
closed = 1;
nodes = (
(214,650,l),
(308,681,l),
(308,700,l),
(28,700,l),
(28,680,l),
(119,650,l)
);
},
{
closed = 1;
nodes = (
(592,650,l),
(517,661,l),
(179,310,l),
(209,277,l)
);
},
{
closed = 1;
nodes = (
(696,681,l),
(696,700,l),
(449,700,l),
(449,680,l),
(517,661,l),
(592,650,l)
);
}
);
width = 706;
},
{
layerId = m002;
shapes = (
{
closed = 1;
nodes = (
(732,-2,l),
(732,15,l),
(646,46,l),
(346,424,l),
(227,354,l),
(505,-2,l)
);
},
{
closed = 1;
nodes = (
(324,-2,l),
(324,15,l),
(223,52,l),
(111,52,l),
(2,16,l),
(2,-2,l)
);
},
{
closed = 1;
nodes = (
(240,48,l),
(240,652,l),
(93,652,l),
(93,48,l)
);
},
{
closed = 1;
nodes = (
(222,648,l),
(334,685,l),
(334,702,l),
(2,702,l),
(2,684,l),
(111,648,l)
);
},
{
closed = 1;
nodes = (
(611,650,l),
(502,666,l),
(159,310,l),
(207,256,l)
);
},
{
closed = 1;
nodes = (
(722,685,l),
(722,702,l),
(423,702,l),
(423,683,l),
(507,660,l),
(596,647,l)
);
}
);
width = 706;
}
);
unicode = 75;
},
{
glyphname = L;
layers = (
{
layerId = m01;
shapes = (
{
closed = 1;
nodes = (
(214,50,l),
(214,650,l),
(119,650,l),
(119,50,l)
);
},
{
closed = 1;
nodes = (
(500,0,l),
(500,50,l),
(119,50,l),
(28,20,l),
(28,0,l)
);
},
{
closed = 1;
nodes = (
(565,0,l),
(600,197,l),
(581,204,l),
(500,50,l),
(500,0,l)
);
},
{
closed = 1;
nodes = (
(214,650,l),
(308,681,l),
(308,700,l),
(28,700,l),
(28,680,l),
(119,650,l)
);
}
);
width = 630;
},
{
layerId = m002;
shapes = (
{
closed = 1;
nodes = (
(240,48,l),
(240,652,l),
(93,652,l),
(93,48,l)
);
},
{
closed = 1;
nodes = (
(526,-2,l),
(526,52,l),
(111,52,l),
(2,16,l),
(2,-2,l)
);
},
{
closed = 1;
nodes = (
(590,-2,l),
(625,193,l),
(584,216,l),
(494,45,l),
(474,-2,l)
);
},
{
closed = 1;
nodes = (
(222,648,l),
(334,685,l),
(334,702,l),
(2,702,l),
(2,684,l),
(111,648,l)
);
}
);
width = 630;
}
);
unicode = 76;
},
{
glyphname = Lslash;
layers = (
{
layerId = m01;
shapes = (
{
closed = 1;
nodes = (
(319,414,l),
(299,453,l),
(17,300,l),
(37,261,l)
);
},
{
closed = 1;
nodes = (
(500,0,l),
(500,50,l),
(119,50,l),
(28,20,l),
(28,0,l)
);
},
{
closed = 1;
nodes = (
(214,50,l),
(214,650,l),
(119,650,l),
(119,50,l)
);
},
{
closed = 1;
nodes = (
(565,0,l),
(600,197,l),
(581,204,l),
(500,50,l),
(500,0,l)
);
},
{
closed = 1;
nodes = (
(214,650,l),
(308,681,l),
(308,700,l),
(28,700,l),
(28,680,l),
(119,650,l)
);
}
);
width = 600;
},
{
layerId = m002;
shapes = (
{
closed = 1;
nodes = (
(341,417,l),
(314,470,l),
(-5,297,l),
(22,244,l)
);
},
{
closed = 1;
nodes = (
(526,-2,l),
(526,52,l),
(111,52,l),
(2,16,l),
(2,-2,l)
);
},
{
closed = 1;
nodes = (
(240,48,l),
(240,652,l),
(93,652,l),
(93,48,l)
);
},
{
closed = 1;
nodes = (
(590,-2,l),
(625,193,l),
(564,216,l),
(474,45,l),
(474,-2,l)
);
},
{
closed = 1;
nodes = (
(222,648,l),
(334,685,l),
(334,702,l),
(2,702,l),
(2,684,l),
(111,648,l)
);
}
);
width = 600;
}
);
unicode = 321;
},
{
glyphname = M;
layers = (
{
layerId = m01;
shapes = (
{
closed = 1;
nodes = (
(767,700,l),
(715,700,l),
(458,138,l),
(195,700,l),
(100,700,l),
(437,-26,l)
);
},
{
closed = 1;
nodes = (
(248,0,l),
(248,19,l),
(164,50,l),
(119,50,l),
(28,20,l),
(28,0,l)
);
},
{
closed = 1;
nodes = (
(164,50,l),
(164,650,l),
(119,650,l),
(119,50,l)
);
},
{
closed = 1;
nodes = (
(164,650,l),
(164,700,l),
(28,700,l),
(28,683,l),
(119,650,l)
);
},
{
closed = 1;
nodes = (
(895,0,l),
(895,19,l),
(811,50,l),
(716,50,l),
(625,20,l),
(625,0,l)
);
},
{
closed = 1;
nodes = (
(811,50,l),
(811,650,l),
(716,650,l),
(716,50,l)
);
},
{
closed = 1;
nodes = (
(811,650,l),
(905,681,l),
(905,700,l),
(717,700,l),
(716,650,l)
);
}
);
width = 926;
},
{
layerId = m002;
shapes = (
{
closed = 1;
nodes = (
(792,702,l),
(692,702,l),
(458,190,l),
(218,702,l),
(75,702,l),
(437,-38,l)
);
},
{
closed = 1;
nodes = (
(274,-2,l),
(274,15,l),
(173,52,l),
(111,52,l),
(2,16,l),
(2,-2,l)
);
},
{
closed = 1;
nodes = (
(190,48,l),
(190,652,l),
(93,652,l),
(93,48,l)
);
},
{
closed = 1;
nodes = (
(190,648,l),
(190,702,l),
(2,702,l),
(2,687,l),
(110,648,l)
);
},
{
closed = 1;
nodes = (
(921,-2,l),
(921,15,l),
(820,52,l),
(708,52,l),
(599,16,l),
(599,-2,l)
);
},
{
closed = 1;
nodes = (
(837,48,l),
(837,652,l),
(690,652,l),
(690,48,l)
);
},
{
closed = 1;
nodes = (
(819,648,l),
(931,685,l),
(931,702,l),
(691,702,l),
(690,648,l)
);
}
);
width = 926;
}
);
unicode = 77;
},
{
glyphname = N;
layers = (
{
layerId = m01;
shapes = (
{
closed = 1;
nodes = (
(679,127,l),
(198,700,l),
(65,700,l),
(679,-25,l)
);
},
{
closed = 1;
nodes = (
(238,0,l),
(238,19,l),
(144,50,l),
(99,50,l),
(8,20,l),
(8,0,l)
);
},
{
closed = 1;
nodes = (
(144,50,l),
(144,650,l),
(99,650,l),
(99,50,l)
);
},
{
closed = 1;
nodes = (
(144,650,l),
(144,700,l),
(8,700,l),
(8,680,l),
(99,650,l)
);
},
{
closed = 1;
nodes = (
(679,120,l),
(679,650,l),
(634,650,l),
(634,120,l)
);
},
{
closed = 1;
nodes = (
(679,650,l),
(773,681,l),
(773,700,l),
(543,700,l),
(543,680,l),
(634,650,l)
);
}
);
width = 781;
},
{
layerId = m002;
shapes = (
{
closed = 1;
nodes = (
(674,171,l),
(226,702,l),
(51,702,l),
(674,-30,l)
);
},
{
closed = 1;
nodes = (
(273,-2,l),
(273,15,l),
(161,52,l),
(100,52,l),
(-9,16,l),
(-9,-2,l)
);
},
{
closed = 1;
nodes = (
(179,48,l),
(179,652,l),
(82,652,l),
(82,48,l)
);
},
{
closed = 1;
nodes = (
(179,648,l),
(179,702,l),
(-9,702,l),
(-9,684,l),
(100,648,l)
);
},
{
closed = 1;
nodes = (
(674,118,l),
(674,652,l),
(577,652,l),
(577,118,l)
);
},
{
closed = 1;
nodes = (
(656,648,l),
(768,685,l),
(768,702,l),
(486,702,l),
(486,684,l),
(595,648,l)
);
}
);
width = 759;
}
);
unicode = 78;
},
{
glyphname = O;
layers = (
{
layerId = m01;
shapes = (
{
closed = 1;
nodes = (
(574,-15,o),
(715,139,o),
(715,357,cs),
(715,567,o),
(574,715,o),
(374,715,cs),
(175,715,o),
(35,563,o),
(35,347,cs),
(35,135,o),
(175,-15,o),
(374,-15,cs)
);
},
{
closed = 1;
nodes = (
(234,23,o),
(144,163,o),
(144,415,cs),
(144,583,o),
(218,676,o),
(351,676,cs),
(515,676,o),
(606,537,o),
(606,286,cs),
(606,117,o),
(531,23,o),
(397,23,cs)
);
}
);
width = 750;
},
{
layerId = m002;
shapes = (
{
closed = 1;
nodes = (
(586,-17,o),
(741,134,o),
(741,357,cs),
(741,573,o),
(584,717,o),
(374,717,cs),
(164,717,o),
(9,569,o),
(9,347,cs),
(9,130,o),
(164,-17,o),
(374,-17,cs)
);
},
{
closed = 1;
nodes = (
(255,25,o),
(170,158,o),
(170,415,cs),
(170,589,o),
(238,674,o),
(351,674,cs),
(494,674,o),
(580,542,o),
(580,286,cs),
(580,111,o),
(511,25,o),
(397,25,cs)
);
}
);
width = 750;
}
);
unicode = 79;
},
{
glyphname = Oslash;
layers = (
{
layerId = m01;
shapes = (
{
closed = 1;
nodes = (
(89,-27,l),
(714,726,l),
(660,726,l),
(35,-27,l)
);
},
{
closed = 1;
nodes = (
(574,-15,o),
(715,139,o),
(715,357,cs),
(715,567,o),
(574,715,o),
(374,715,cs),
(175,715,o),
(35,563,o),
(35,347,cs),
(35,135,o),
(175,-15,o),
(374,-15,cs)
);
},
{
closed = 1;
nodes = (
(234,23,o),
(144,163,o),
(144,415,cs),
(144,583,o),
(218,676,o),
(351,676,cs),
(515,676,o),
(606,537,o),
(606,286,cs),
(606,117,o),
(531,23,o),
(397,23,cs)
);
}
);
width = 750;
},
{
layerId = m002;
shapes = (
{
closed = 1;
nodes = (
(108,-29,l),
(737,728,l),
(641,728,l),
(12,-29,l)
);
},
{
closed = 1;
nodes = (
(586,-17,o),
(741,134,o),
(741,357,cs),
(741,573,o),
(584,717,o),
(374,717,cs),
(164,717,o),
(9,569,o),
(9,347,cs),
(9,130,o),
(164,-17,o),
(374,-17,cs)
);
},
{
closed = 1;
nodes = (
(255,25,o),
(170,158,o),
(170,415,cs),
(170,589,o),
(238,674,o),
(351,674,cs),
(494,674,o),
(580,542,o),
(580,286,cs),
(580,111,o),
(511,25,o),
(397,25,cs)
);
}
);
width = 750;
}
);
unicode = 216;
},
{
glyphname = OE;
layers = (
{
layerId = m01;
shapes = (
{
closed = 1;
nodes = (
(574,-15,o),
(715,139,o),
(715,357,cs),
(715,567,o),
(574,715,o),
(374,715,cs),
(175,715,o),
(35,563,o),
(35,347,cs),
(35,135,o),
(175,-15,o),
(374,-15,cs)
);
},
{
closed = 1;
nodes = (
(234,23,o),
(144,163,o),
(144,415,cs),
(144,583,o),
(218,676,o),
(351,676,cs),
(515,676,o),
(606,537,o),
(606,286,cs),
(606,117,o),
(531,23,o),
(397,23,cs)
);
},
{
closed = 1;
nodes = (
(1001,0,l),
(1001,50,l),
(620,50,l),
(620,0,l)
);
},
{
closed = 1;
nodes = (
(715,50,l),
(715,650,l),
(620,650,l),
(620,50,l)
);
},
{
closed = 1;
nodes = (
(1066,0,l),
(1101,197,l),
(1082,204,l),
(1001,50,l),
(1001,0,l)
);
},
{
closed = 1;
nodes = (
(941,341,l),
(941,381,l),
(685,381,l),
(685,341,l)
);
},
{
closed = 1;
nodes = (
(941,245,l),
(941,475,l),
(921,475,l),
(891,384,l),
(891,339,l),
(922,245,l)
);
},
{
closed = 1;
nodes = (
(1006,650,l),
(1006,700,l),
(620,700,l),
(620,650,l)
);
},
{
closed = 1;
nodes = (
(1063,520,l),
(1063,700,l),
(1006,700,l),
(1006,650,l),
(1042,520,l)
);
}
);
width = 1146;
},
{
layerId = m002;
shapes = (
{
closed = 1;
nodes = (
(586,-17,o),
(741,134,o),
(741,357,cs),
(741,573,o),
(584,717,o),
(374,717,cs),
(164,717,o),
(9,569,o),
(9,347,cs),
(9,130,o),
(164,-17,o),
(374,-17,cs)
);
},
{
closed = 1;
nodes = (
(255,25,o),
(170,158,o),
(170,415,cs),
(170,589,o),
(238,674,o),
(351,674,cs),
(494,674,o),
(580,542,o),
(580,286,cs),
(580,111,o),
(511,25,o),
(397,25,cs)
);
},
{
closed = 1;
nodes = (
(1027,-2,l),
(1027,52,l),
(594,52,l),
(594,-2,l)
);
},
{
closed = 1;
nodes = (
(741,48,l),
(741,652,l),
(594,652,l),
(594,48,l)
);
},
{
closed = 1;
nodes = (
(1091,-2,l),
(1126,193,l),
(1085,216,l),
(995,45,l),
(975,-2,l)
);
},
{
closed = 1;
nodes = (
(967,339,l),
(967,383,l),
(659,383,l),
(659,339,l)
);
},
{
closed = 1;
nodes = (
(967,243,l),
(967,477,l),
(917,477,l),
(885,381,l),
(885,342,l),
(918,243,l)
);
},
{
closed = 1;
nodes = (
(1032,648,l),
(1032,702,l),
(594,702,l),
(594,648,l)
);
},
{
closed = 1;
nodes = (
(1089,518,l),
(1089,702,l),
(980,702,l),
(1000,653,l),
(1037,518,l)
);
}
);
width = 1146;
}
);
unicode = 338;
},
{
glyphname = P;
layers = (
{
layerId = m01;
shapes = (
{
closed = 1;
nodes = (
(439,300,o),
(546,388,o),
(546,527,cs),
(546,628,o),
(452,700,o),
(318,700,c),
(288,650,l),
(375,650,o),
(441,586,o),
(441,495,cs),
(441,400,o),
(383,340,o),
(298,340,c),
(268,300,l)
);
},
{
closed = 1;
nodes = (
(318,0,l),
(318,20,l),
(214,50,l),
(119,50,l),
(28,20,l),
(28,0,l)
);
},
{
closed = 1;
nodes = (
(214,50,l),
(214,650,l),
(119,650,l),
(119,50,l)
);
},
{
closed = 1;
nodes = (
(268,300,l),
(298,340,l),
(184,340,l),
(184,300,l)
);
},
{
closed = 1;
nodes = (
(288,650,l),
(318,700,l),
(28,700,l),
(28,680,l),
(119,650,l)
);
}
);
width = 580;
},
{
layerId = m002;
shapes = (
{
closed = 1;
nodes = (
(439,291,o),
(572,381,o),
(572,527,cs),
(572,631,o),
(454,709,o),
(296,701,c),
(262,646,l),
(343,661,o),
(415,604,o),
(415,495,cs),
(415,384,o),
(355,333,o),
(279,343,c),
(245,298,l)
);
},
{
closed = 1;
nodes = (
(344,-2,l),
(344,17,l),
(221,52,l),
(111,52,l),
(2,16,l),
(2,-2,l)
);
},
{
closed = 1;
nodes = (
(240,48,l),
(240,652,l),
(93,652,l),
(93,48,l)
);
},
{
closed = 1;
nodes = (
(288,298,l),
(321,342,l),
(158,342,l),
(158,298,l)
);
},
{
closed = 1;
nodes = (
(310,648,l),
(342,702,l),
(2,702,l),
(2,684,l),
(111,648,l)
);
}
);
width = 580;
}
);
unicode = 80;
},
{
glyphname = Thorn;
layers = (
{
layerId = m01;
shapes = (
{
closed = 1;
nodes = (
(439,155,o),
(546,243,o),
(546,382,cs),
(546,483,o),
(452,555,o),
(318,553,c),
(288,508,l),
(375,505,o),
(441,441,o),
(441,350,cs),
(441,255,o),
(383,195,o),
(298,195,c),
(268,155,l)
);
},
{
closed = 1;
nodes = (
(318,0,l),
(318,19,l),
(224,50,l),
(129,50,l),
(38,20,l),
(38,0,l)
);
},
{
closed = 1;
nodes = (
(268,155,l),
(298,195,l),
(184,195,l),
(184,155,l)
);
},
{
closed = 1;
nodes = (
(224,50,l),
(224,650,l),
(129,650,l),
(129,50,l)
);
},
{
closed = 1;
nodes = (
(288,508,l),
(318,553,l),
(184,553,l),
(184,508,l)
);
},
{
closed = 1;
nodes = (
(224,650,l),
(318,681,l),
(318,700,l),
(38,700,l),
(38,680,l),
(129,650,l)
);
}
);
width = 600;
},
{
layerId = m002;
shapes = (
{
closed = 1;
nodes = (
(439,146,o),
(572,236,o),
(572,382,cs),
(572,486,o),
(454,564,o),
(296,554,c),
(263,505,l),
(343,516,o),
(415,458,o),
(415,350,cs),
(415,239,o),
(355,188,o),
(279,198,c),
(245,153,l)
);
},
{
closed = 1;
nodes = (
(344,-2,l),
(344,15,l),
(232,52,l),
(121,52,l),
(12,16,l),
(12,-2,l)
);
},
{
closed = 1;
nodes = (
(288,153,l),
(321,197,l),
(158,197,l),
(158,153,l)
);
},
{
closed = 1;
nodes = (
(250,48,l),
(250,652,l),
(103,652,l),
(103,48,l)
);
},
{
closed = 1;
nodes = (
(309,506,l),
(342,555,l),
(158,555,l),
(158,506,l)
);
},
{
closed = 1;
nodes = (
(232,648,l),
(344,685,l),
(344,702,l),
(12,702,l),
(12,684,l),
(121,648,l)
);
}
);
width = 600;
}
);
unicode = 222;
},
{
glyphname = Q;
layers = (
{
background = {
shapes = (
{
closed = 1;
nodes = (
(584,715,o),
(725,567,o),
(725,357,cs),
(725,139,o),
(584,-15,o),
(384,-15,cs),
(185,-15,o),
(45,135,o),
(45,347,cs),
(45,563,o),
(185,715,o),
(384,715,cs)
);
},
{
closed = 1;
nodes = (
(228,676,o),
(154,583,o),
(154,415,cs),
(154,163,o),
(244,23,o),
(407,23,cs),
(541,23,o),
(616,117,o),
(616,286,cs),
(616,537,o),
(525,676,o),
(361,676,cs)
);
}
);
};
layerId = m01;
shapes = (
{
closed = 1;
nodes = (
(574,-15,o),
(715,139,o),
(715,357,cs),
(715,567,o),
(574,715,o),
(374,715,cs),
(175,715,o),
(35,563,o),
(35,347,cs),
(35,135,o),
(175,-15,o),
(374,-15,cs)
);
},
{
closed = 1;
nodes = (
(715,-140,l),
(715,-121,l),
(660,-103,ls),
(631,-93,o),
(609,-86,o),
(587,-67,cs),
(493,16,l),
(362,-4,l),
(534,-140,l)
);
},
{
closed = 1;
nodes = (
(234,23,o),
(144,163,o),
(144,415,cs),
(144,583,o),
(218,676,o),
(351,676,cs),
(515,676,o),
(606,537,o),
(606,286,cs),
(606,117,o),
(531,23,o),
(397,23,cs)
);
}
);
width = 750;
},
{
background = {
shapes = (
{
closed = 1;
nodes = (
(584,715,o),
(725,567,o),
(725,357,cs),
(725,139,o),
(584,-15,o),
(384,-15,cs),
(185,-15,o),
(45,135,o),
(45,347,cs),
(45,563,o),
(185,715,o),
(384,715,cs)
);
},
{
closed = 1;
nodes = (
(228,676,o),
(154,583,o),
(154,415,cs),
(154,163,o),
(244,23,o),
(407,23,cs),
(541,23,o),
(616,117,o),
(616,286,cs),
(616,537,o),
(525,676,o),
(361,676,cs)
);
}
);
};
layerId = m002;
shapes = (
{
closed = 1;
nodes = (
(586,-17,o),
(741,134,o),
(741,357,cs),
(741,573,o),
(584,717,o),
(374,717,cs),
(164,717,o),
(9,569,o),
(9,347,cs),
(9,130,o),
(164,-17,o),
(374,-17,cs)
);
},
{
closed = 1;
nodes = (
(741,-142,l),
(741,-125,l),
(668,-101,ls),
(646,-93,o),
(637,-94,o),
(604,-65,cs),
(507,21,l),
(344,-4,l),
(518,-142,l)
);
},
{
closed = 1;
nodes = (
(255,25,o),
(170,158,o),
(170,415,cs),
(170,589,o),
(238,674,o),
(351,674,cs),
(494,674,o),
(580,542,o),
(580,286,cs),
(580,111,o),
(511,25,o),
(397,25,cs)
);
}
);
width = 750;
}
);
unicode = 81;
},
{
glyphname = R;
layers = (
{
layerId = m01;
shapes = (
{
closed = 1;
nodes = (
(681,0,l),
(681,19,l),
(632,35,ls),
(600,45,o),
(583,63,o),
(564,91,cs),
(400,336,l),
(308,316,l),
(509,0,l)
);
},
{
closed = 1;
nodes = (
(318,0,l),
(318,20,l),
(214,50,l),
(119,50,l),
(28,20,l),
(28,0,l)
);
},
{
closed = 1;
nodes = (
(214,50,l),
(214,650,l),
(119,650,l),
(119,50,l)
);
},
{
closed = 1;
nodes = (
(298,300,l),
(328,340,l),
(184,340,l),
(184,300,l)
);
},
{
closed = 1;
nodes = (
(298,650,l),
(328,700,l),
(28,700,l),
(28,680,l),
(119,650,l)
);
},
{
closed = 1;
nodes = (
(449,300,o),
(556,394,o),
(556,527,cs),
(556,628,o),
(462,700,o),
(328,700,c),
(298,650,l),
(385,650,o),
(446,586,o),
(446,495,cs),
(446,404,o),
(397,340,o),
(328,340,c),
(298,300,l)
);
}
);
width = 650;
},
{
layerId = m002;
shapes = (
{
closed = 1;
nodes = (
(707,-2,l),
(707,15,l),
(640,37,ls),
(621,43,o),
(613,51,o),
(586,92,cs),
(418,343,l),
(286,314,l),
(488,-2,l)
);
},
{
closed = 1;
nodes = (
(344,-2,l),
(344,17,l),
(221,52,l),
(111,52,l),
(2,16,l),
(2,-2,l)
);
},
{
closed = 1;
nodes = (
(240,48,l),
(240,652,l),
(93,652,l),
(93,48,l)
);
},
{
closed = 1;
nodes = (
(318,298,l),
(351,342,l),
(158,342,l),
(158,298,l)
);
},
{
closed = 1;
nodes = (
(320,648,l),
(352,702,l),
(2,702,l),
(2,684,l),
(111,648,l)
);
},
{
closed = 1;
nodes = (
(449,289,o),
(582,386,o),
(582,527,cs),
(582,631,o),
(464,709,o),
(306,701,c),
(272,646,l),
(353,661,o),
(420,604,o),
(420,495,cs),
(420,386,o),
(366,329,o),
(310,345,c),
(275,299,l)
);
}
);
width = 650;
}
);
unicode = 82;
},
{
glyphname = S;
layers = (
{
layerId = m01;
shapes = (
{
closed = 1;
nodes = (
(403,-16,o),
(496,66,o),
(496,183,cs),
(496,347,o),
(144,442,o),
(144,574,cs),
(144,637,o),
(197,682,o),
(272,682,cs),
(340,682,o),
(406,614,o),
(431,518,c),
(459,518,l),
(459,662,l),
(426,694,o),
(349,716,o),
(272,716,cs),
(143,716,o),
(52,639,o),
(52,529,cs),
(52,375,o),
(418,250,o),
(418,138,cs),
(418,68,o),
(358,18,o),
(272,18,cs),
(194,18,o),
(123,92,o),
(99,197,c),
(70,197,l),
(57,44,l),
(112,9,o),
(201,-16,o),
(272,-16,cs)
);
}
);
width = 548;
},
{
layerId = m002;
shapes = (
{
closed = 1;
nodes = (
(414,-18,o),
(522,64,o),
(522,183,cs),
(522,346,o),
(170,437,o),
(170,574,cs),
(170,643,o),
(213,680,o),
(272,680,cs),
(322,680,o),
(399,621,o),
(426,516,c),
(485,516,l),
(485,653,l),
(471,685,o),
(367,718,o),
(272,718,cs),
(131,718,o),
(26,640,o),
(26,529,cs),
(26,377,o),
(392,256,o),
(392,138,cs),
(392,62,o),
(342,20,o),
(272,20,cs),
(212,20,o),
(130,85,o),
(104,199,c),
(44,199,l),
(32,50,l),
(76,15,o),
(188,-18,o),
(272,-18,cs)
);
}
);
width = 548;
}
);
unicode = 83;
},
{
glyphname = Saltillo;
layers = (
{
layerId = m01;
shapes = (
{
closed = 1;
nodes = (
(333,415,l),
(343,700,l),
(261,700,l),
(271,415,l)
);
}
);
width = 600;
},
{
layerId = m002;
shapes = (
{
closed = 1;
nodes = (
(271,415,l),
(333,415,l),
(343,700,l),
(261,700,l)
);
}
);
width = 600;
}
);
unicode = 42891;
},
{
glyphname = Germandbls;
layers = (
{
layerId = m01;
shapes = (
{
closed = 1;
nodes = (
(527,-16,o),
(585,57,o),
(585,160,cs),
(585,355,o),
(373,350,o),
(373,440,cs),
(373,529,o),
(549,509,o),
(559,699,c),
(447,676,l),
(477,531,o),
(315,519,o),
(315,390,cs),
(315,225,o),
(536,230,o),
(536,140,cs),
(536,66,o),
(498,19,o),
(444,19,cs),
(407,19,o),
(370,47,o),
(352,94,cs),
(335,139,l),
(317,139,l),
(311,34,l),
(339,5,o),
(394,-16,o),
(444,-16,cs)
);
},
{
closed = 1;
nodes = (
(218,0,l),
(218,50,l),
(123,50,l),
(32,20,l),
(32,0,l)
);
},
{
closed = 1;
nodes = (
(218,50,l),
(218,650,l),
(123,650,l),
(123,50,l)
);
},
{
closed = 1;
nodes = (
(529,650,l),
(559,700,l),
(32,700,l),
(32,680,l),
(123,650,l)
);
}
);
width = 600;
},
{
layerId = m002;
shapes = (
{
closed = 1;
nodes = (
(548,-18,o),
(611,59,o),
(611,160,cs),
(611,364,o),
(399,339,o),
(399,440,cs),
(399,543,o),
(579,492,o),
(585,707,c),
(422,674,l),
(451,527,o),
(289,523,o),
(289,390,cs),
(289,218,o),
(510,239,o),
(510,140,cs),
(510,60,o),
(478,21,o),
(444,21,cs),
(422,21,o),
(365,37,o),
(356,95,cs),
(349,141,l),
(301,141,l),
(296,42,l),
(306,16,o),
(377,-18,o),
(444,-18,cs)
);
},
{
closed = 1;
nodes = (
(244,-2,l),
(244,52,l),
(115,52,l),
(6,16,l),
(6,-2,l)
);
},
{
closed = 1;
nodes = (
(244,48,l),
(244,652,l),
(97,652,l),
(97,48,l)
);
},
{
closed = 1;
nodes = (
(551,648,l),
(583,702,l),
(6,702,l),
(6,684,l),
(115,648,l)
);
}
);
width = 600;
}
);
unicode = 7838;
},
{
glyphname = T;
layers = (
{
background = {
shapes = (
{
closed = 1;
nodes = (
(105,612,ls),
(120,640,o),
(125,657,o),
(125,675,cs),
(125,691,o),
(113,700,o),
(93,700,cs),
(72,700,o),
(56,679,o),
(49,640,cs),
(36,564,ls),
(29,524,o),
(29,502,o),
(35,500,cs),
(41,498,o),
(54,514,o),
(73,551,cs)
);
}
);
};
layerId = m01;
shapes = (
{
closed = 1;
nodes = (
(384,50,l),
(384,650,l),
(289,650,l),
(289,50,l)
);
},
{
closed = 1;
nodes = (
(468,0,l),
(468,19,l),
(384,50,l),
(289,50,l),
(198,20,l),
(198,0,l)
);
},
{
closed = 1;
nodes = (
(46,500,l),
(151,700,l),
(59,700,l),
(25,500,l)
);
},
{
closed = 1;
nodes = (
(612,650,l),
(612,700,l),
(59,700,l),
(59,650,l)
);
},
{
closed = 1;
nodes = (
(646,500,l),
(612,700,l),
(520,700,l),
(625,500,l)
);
}
);
width = 671;
},
{
background = {
shapes = (
{
closed = 1;
nodes = (
(105,612,ls),
(120,640,o),
(125,657,o),
(125,675,cs),
(125,691,o),
(113,700,o),
(93,700,cs),
(72,700,o),
(56,679,o),
(49,640,cs),
(36,564,ls),
(29,524,o),
(29,502,o),
(35,500,cs),
(41,498,o),
(54,514,o),
(73,551,cs)
);
}
);
};
layerId = m002;
shapes = (
{
closed = 1;
nodes = (
(410,48,l),
(410,652,l),
(263,652,l),
(263,48,l)
);
},
{
closed = 1;
nodes = (
(494,-2,l),
(494,15,l),
(393,52,l),
(281,52,l),
(172,16,l),
(172,-2,l)
);
},
{
closed = 1;
nodes = (
(48,498,l),
(156,702,l),
(34,702,l),
(-1,498,l)
);
},
{
closed = 1;
nodes = (
(638,648,l),
(638,702,l),
(33,702,l),
(33,648,l)
);
},
{
closed = 1;
nodes = (
(672,498,l),
(637,702,l),
(515,702,l),
(623,498,l)
);
}
);
width = 671;
}
);
unicode = 84;
},
{
glyphname = U;
layers = (
{
layerId = m01;
shapes = (
{
closed = 1;
nodes = (
(525,-15,o),
(634,87,o),
(634,230,c),
(584,210,l),
(584,113,o),
(505,44,o),
(393,44,cs),
(282,44,o),
(204,129,o),
(204,250,c),
(109,230,l),
(109,87,o),
(218,-15,o),
(371,-15,cs)
);
},
{
closed = 1;
nodes = (
(204,250,l),
(204,650,l),
(109,650,l),
(109,230,l)
);
},
{
closed = 1;
nodes = (
(204,650,l),
(298,681,l),
(298,700,l),
(18,700,l),
(18,680,l),
(109,650,l)
);
},
{
closed = 1;
nodes = (
(634,230,l),
(634,650,l),
(584,650,l),
(584,210,l)
);
},
{
closed = 1;
nodes = (
(634,650,l),
(728,681,l),
(728,700,l),
(493,700,l),
(493,680,l),
(584,650,l)
);
}
);
width = 746;
},
{
layerId = m002;
shapes = (
{
closed = 1;
nodes = (
(542,-17,o),
(669,91,o),
(660,246,c),
(558,205,l),
(556,105,o),
(487,46,o),
(393,46,cs),
(299,46,o),
(227,126,o),
(230,259,c),
(83,228,l),
(84,84,o),
(207,-17,o),
(371,-17,cs)
);
},
{
closed = 1;
nodes = (
(230,252,l),
(230,652,l),
(83,652,l),
(83,221,l)
);
},
{
closed = 1;
nodes = (
(212,648,l),
(324,685,l),
(324,702,l),
(-8,702,l),
(-8,684,l),
(101,648,l)
);
},
{
closed = 1;
nodes = (
(660,235,l),
(660,652,l),
(558,652,l),
(558,194,l)
);
},
{
closed = 1;
nodes = (
(642,648,l),
(754,685,l),
(754,702,l),
(467,702,l),
(467,684,l),
(576,648,l)
);
}
);
width = 746;
}
);
unicode = 85;
},
{
glyphname = V;
layers = (
{
background = {
shapes = (
{
closed = 1;
nodes = (
(101,660,l),
(342,-10,l),
(441,10,l),
(200,660,l)
);
}
);
};
layerId = m01;
shapes = (
{
closed = 1;
nodes = (
(391,0,l),
(633,650,l),
(580,650,l),
(392,144,l),
(195,650,l),
(91,650,l),
(342,-10,l)
);
},
{
closed = 1;
nodes = (
(195,650,l),
(289,681,l),
(289,700,l),
(0,700,l),
(0,680,l),
(91,650,l)
);
},
{
closed = 1;
nodes = (
(633,650,l),
(727,681,l),
(727,700,l),
(489,700,l),
(489,680,l),
(580,650,l)
);
}
);
width = 727;
},
{
background = {
shapes = (
{
closed = 1;
nodes = (
(101,660,l),
(342,-10,l),
(441,10,l),
(200,660,l)
);
}
);
};
layerId = m002;
shapes = (
{
closed = 1;
nodes = (
(416,2,l),
(658,652,l),
(556,652,l),
(391,209,l),
(219,652,l),
(66,652,l),
(320,-17,l)
);
},
{
closed = 1;
nodes = (
(203,648,l),
(315,685,l),
(315,702,l),
(-26,702,l),
(-26,684,l),
(83,648,l)
);
},
{
closed = 1;
nodes = (
(641,648,l),
(753,685,l),
(753,702,l),
(463,702,l),
(463,684,l),
(572,648,l)
);
}
);
width = 727;
}
);
unicode = 86;
},
{
glyphname = W;
layers = (
{
background = {
shapes = (
{
closed = 1;
nodes = (
(80,660,l),
(321,-10,l),
(420,10,l),
(179,660,l)
);
},
{
closed = 1;
nodes = (
(437,660,l),
(678,-10,l),
(777,10,l),
(536,660,l)
);
}
);
};
layerId = m01;
shapes = (
{
closed = 1;
nodes = (
(373,0,l),
(694,700,l),
(637,700,l),
(372,137,l),
(177,700,l),
(98,650,l),
(321,-10,l)
);
},
{
closed = 1;
nodes = (
(177,700,l),
(0,700,l),
(0,680,l),
(98,650,l)
);
},
{
closed = 1;
nodes = (
(730,0,l),
(943,650,l),
(886,650,l),
(720,124,l),
(446,700,l),
(368,650,l),
(678,-10,l)
);
},
{
closed = 1;
nodes = (
(446,700,l),
(269,700,l),
(269,680,l),
(368,650,l)
);
},
{
closed = 1;
nodes = (
(674,650,l),
(743,681,l),
(743,700,l),
(518,700,l),
(518,680,l),
(617,650,l)
);
},
{
closed = 1;
nodes = (
(943,650,l),
(1045,681,l),
(1045,700,l),
(788,700,l),
(788,680,l),
(886,650,l)
);
}
);
width = 1045;
},
{
background = {
shapes = (
{
closed = 1;
nodes = (
(80,660,l),
(321,-10,l),
(420,10,l),
(179,660,l)
);
},
{
closed = 1;
nodes = (
(437,660,l),
(678,-10,l),
(777,10,l),
(536,660,l)
);
}
);
};
layerId = m002;
shapes = (
{
closed = 1;
nodes = (
(398,2,l),
(729,702,l),
(624,702,l),
(376,197,l),
(197,702,l),
(75,646,l),
(299,-17,l)
);
},
{
closed = 1;
nodes = (
(197,702,l),
(-26,702,l),
(-26,684,l),
(75,646,l)
);
},
{
closed = 1;
nodes = (
(756,2,l),
(969,652,l),
(862,652,l),
(715,186,l),
(476,702,l),
(356,646,l),
(657,-17,l)
);
},
{
closed = 1;
nodes = (
(476,702,l),
(303,702,l),
(303,684,l),
(356,646,l)
);
},
{
closed = 1;
nodes = (
(694,648,l),
(759,686,l),
(759,702,l),
(542,702,l),
(542,684,l),
(620,648,l)
);
},
{
closed = 1;
nodes = (
(969,652,l),
(1071,685,l),
(1071,702,l),
(802,702,l),
(802,684,l),
(862,652,l)
);
}
);
width = 1045;
}
);
unicode = 87;
},
{
glyphname = X;
layers = (
{
layerId = m01;
shapes = (
{
closed = 1;
nodes = (
(170,50,l),
(329,297,l),
(502,50,l),
(610,50,l),
(404,358,ls),
(365,417,o),
(347,403,o),
(319,361,cs),
(108,50,l)
);
},
{
closed = 1;
nodes = (
(261,0,l),
(261,20,l),
(170,50,l),
(108,50,l),
(14,19,l),
(14,0,l)
);
},
{
closed = 1;
nodes = (
(700,0,l),
(700,20,l),
(609,50,l),
(502,50,l),
(408,19,l),
(408,0,l)
);
},
{
closed = 1;
nodes = (
(579,650,l),
(517,650,l),
(359,420,l),
(205,650,l),
(101,650,l),
(288,355,ls),
(324,298,o),
(351,309,o),
(380,352,cs)
);
},
{
closed = 1;
nodes = (
(205,650,l),
(299,681,l),
(299,700,l),
(10,700,l),
(10,680,l),
(101,650,l)
);
},
{
closed = 1;
nodes = (
(579,650,l),
(673,681,l),
(673,700,l),
(426,700,l),
(426,680,l),
(517,650,l)
);
}
);
width = 710;
},
{
layerId = m002;
shapes = (
{
closed = 1;
nodes = (
(191,48,l),
(330,264,l),
(481,48,l),
(634,48,l),
(426,359,ls),
(374,438,o),
(320,396,o),
(297,362,cs),
(84,48,l)
);
},
{
closed = 1;
nodes = (
(287,-2,l),
(287,16,l),
(178,52,l),
(100,52,l),
(-12,15,l),
(-12,-2,l)
);
},
{
closed = 1;
nodes = (
(726,-2,l),
(726,16,l),
(617,52,l),
(494,52,l),
(382,15,l),
(382,-2,l)
);
},
{
closed = 1;
nodes = (
(603,652,l),
(496,652,l),
(359,453,l),
(226,652,l),
(77,652,l),
(266,354,ls),
(309,286,o),
(376,313,o),
(402,351,cs)
);
},
{
closed = 1;
nodes = (
(213,648,l),
(325,685,l),
(325,702,l),
(-16,702,l),
(-16,684,l),
(93,648,l)
);
},
{
closed = 1;
nodes = (
(587,648,l),
(699,685,l),
(699,702,l),
(400,702,l),
(400,684,l),
(509,648,l)
);
}
);
width = 710;
}
);
unicode = 88;
},
{
glyphname = Y;
layers = (
{
layerId = m01;
shapes = (
{
closed = 1;
nodes = (
(562,650,l),
(500,650,l),
(350,390,l),
(205,650,l),
(91,650,l),
(313,251,l)
);
},
{
closed = 1;
nodes = (
(469,0,l),
(469,19,l),
(375,50,l),
(280,50,l),
(189,20,l),
(189,0,l)
);
},
{
closed = 1;
nodes = (
(375,50,l),
(375,373,l),
(280,373,l),
(280,50,l)
);
},
{
closed = 1;
nodes = (
(205,650,l),
(299,681,l),
(299,700,l),
(0,700,l),
(0,680,l),
(91,650,l)
);
},
{
closed = 1;
nodes = (
(562,650,l),
(656,681,l),
(656,700,l),
(409,700,l),
(409,680,l),
(500,650,l)
);
}
);
width = 656;
},
{
layerId = m002;
shapes = (
{
closed = 1;
nodes = (
(586,652,l),
(478,652,l),
(350,431,l),
(227,652,l),
(67,652,l),
(311,212,l)
);
},
{
closed = 1;
nodes = (
(495,-2,l),
(495,15,l),
(383,52,l),
(272,52,l),
(163,16,l),
(163,-2,l)
);
},
{
closed = 1;
nodes = (
(401,48,l),
(401,375,l),
(254,375,l),
(254,48,l)
);
},
{
closed = 1;
nodes = (
(213,648,l),
(305,685,l),
(305,702,l),
(-26,702,l),
(-26,684,l),
(83,648,l)
);
},
{
closed = 1;
nodes = (
(570,648,l),
(682,685,l),
(682,702,l),
(403,702,l),
(403,684,l),
(492,648,l)
);
}
);
width = 656;
}
);
unicode = 89;
},
{
glyphname = Z;
layers = (
{
layerId = m01;
shapes = (
{
closed = 1;
nodes = (
(580,700,l),
(461,700,l),
(31,20,l),
(132,1,l)
);
},
{
closed = 1;
nodes = (
(578,0,l),
(578,50,l),
(123,50,l),
(31,20,l),
(31,0,l)
);
},
{
closed = 1;
nodes = (
(578,201,l),
(532,211,l),
(503,51,l),
(578,0,l)
);
},
{
closed = 1;
nodes = (
(67,500,l),
(172,700,l),
(80,700,l),
(46,500,l)
);
},
{
closed = 1;
nodes = (
(472,650,l),
(505,700,l),
(83,700,l),
(83,650,l)
);
}
);
width = 620;
},
{
layerId = m002;
shapes = (
{
closed = 1;
nodes = (
(604,701,l),
(440,702,l),
(9,21,l),
(149,-8,l)
);
},
{
closed = 1;
nodes = (
(604,-2,l),
(604,52,l),
(115,52,l),
(5,16,l),
(5,-2,l)
);
},
{
closed = 1;
nodes = (
(604,199,l),
(538,219,l),
(508,56,l),
(604,-29,l)
);
},
{
closed = 1;
nodes = (
(69,498,l),
(177,702,l),
(55,702,l),
(20,498,l)
);
},
{
closed = 1;
nodes = (
(493,648,l),
(529,702,l),
(57,702,l),
(57,648,l)
);
}
);
width = 620;
}
);
unicode = 90;
},
{
glyphname = a;
layers = (
{
layerId = m01;
shapes = (
{
closed = 1;
nodes = (
(508,18,l),
(508,34,l),
(405,47,l),
(405,391,ls),
(405,464,o),
(351,516,o),
(275,516,cs),
(144,516,o),
(68,456,o),
(68,371,cs),
(68,336,l),
(151,356,l),
(154,391,ls),
(159,445,o),
(192,483,o),
(251,483,cs),
(288,483,o),
(319,437,o),
(319,371,cs),
(319,65,l),
(321,-11,l),
(331,-17,l)
);
},
{
closed = 1;
nodes = (
(236,-16,o),
(285,17,o),
(331,64,c),
(328,115,l),
(288,70,o),
(256,34,o),
(217,34,cs),
(178,34,o),
(143,102,o),
(143,177,cs),
(143,229,o),
(215,250,o),
(351,249,c),
(350,288,l),
(187,288,o),
(55,244,o),
(55,147,cs),
(55,63,o),
(90,-16,o),
(183,-16,cs)
);
}
);
width = 505;
},
{
layerId = m002;
shapes = (
{
closed = 1;
nodes = (
(544,20,l),
(544,33,l),
(451,46,l),
(451,391,ls),
(451,465,o),
(375,518,o),
(266,518,cs),
(140,518,o),
(42,453,o),
(42,371,cs),
(42,326,l),
(177,359,l),
(180,391,ls),
(186,452,o),
(221,481,o),
(250,481,cs),
(277,481,o),
(313,442,o),
(313,371,cs),
(313,65,l),
(315,-5,l),
(326,-16,l)
);
},
{
closed = 1;
nodes = (
(266,-16,o),
(336,75,o),
(377,118,c),
(371,164,l),
(288,71,o),
(248,36,o),
(227,36,cs),
(211,36,o),
(169,97,o),
(169,177,cs),
(169,243,o),
(249,249,o),
(397,247,c),
(396,290,l),
(215,295,o),
(29,245,o),
(29,147,cs),
(29,65,o),
(76,-16,o),
(193,-16,cs)
);
}
);
width = 525;
}
);
unicode = 97;
},
{
glyphname = ae;
layers = (
{
layerId = m01;
shapes = (
{
closed = 1;
nodes = (
(595,-13,o),
(673,26,o),
(712,80,c),
(690,108,l),
(652,72,o),
(595,47,o),
(552,47,cs),
(460,47,o),
(395,130,o),
(395,262,c),
(719,262,l),
(731,405,o),
(653,517,o),
(530,517,cs),
(396,517,o),
(311,401,o),
(310,237,cs),
(309,61,o),
(391,-13,o),
(522,-13,cs)
);
},
{
closed = 1;
nodes = (
(216,-16,o),
(275,-3,o),
(361,64,c),
(358,115,l),
(278,50,o),
(236,34,o),
(197,34,cs),
(158,34,o),
(113,102,o),
(113,177,cs),
(113,229,o),
(205,260,o),
(341,259,c),
(340,298,l),
(177,298,o),
(25,244,o),
(25,147,cs),
(25,63,o),
(70,-16,o),
(163,-16,cs)
);
},
{
closed = 1;
nodes = (
(395,391,ls),
(395,464,o),
(331,516,o),
(255,516,cs),
(124,516,o),
(38,456,o),
(38,371,cs),
(38,336,l),
(121,356,l),
(124,391,ls),
(129,445,o),
(172,483,o),
(231,483,cs),
(268,483,o),
(309,437,o),
(309,371,cs),
(309,279,l),
(395,262,l)
);
},
{
closed = 1;
nodes = (
(393,401,o),
(437,478,o),
(498,478,cs),
(566,478,o),
(617,401,o),
(622,298,c),
(626,302,ls),
(628,304,o),
(576,304,o),
(518,302,cs),
(393,298,l)
);
}
);
width = 765;
},
{
layerId = m002;
shapes = (
{
closed = 1;
nodes = (
(607,-15,o),
(700,32,o),
(734,80,c),
(693,131,l),
(643,75,o),
(590,49,o),
(552,49,cs),
(480,49,o),
(422,123,o),
(421,260,c),
(745,260,l),
(758,413,o),
(667,519,o),
(530,519,cs),
(375,519,o),
(285,399,o),
(284,237,cs),
(283,63,o),
(372,-15,o),
(522,-15,cs)
);
},
{
closed = 1;
nodes = (
(224,-18,o),
(299,19,o),
(387,90,c),
(382,150,l),
(264,50,o),
(231,36,o),
(197,36,cs),
(179,36,o),
(139,97,o),
(139,177,cs),
(139,243,o),
(223,260,o),
(367,257,c),
(366,300,l),
(186,306,o),
(-1,244,o),
(-1,147,cs),
(-1,66,o),
(47,-18,o),
(163,-18,cs)
);
},
{
closed = 1;
nodes = (
(421,391,ls),
(421,463,o),
(346,518,o),
(220,518,cs),
(110,518,o),
(12,452,o),
(12,371,cs),
(12,326,l),
(147,359,l),
(150,391,ls),
(156,452,o),
(189,481,o),
(218,481,cs),
(249,481,o),
(283,443,o),
(283,371,cs),
(283,281,l),
(421,254,l)
);
},
{
closed = 1;
nodes = (
(420,407,o),
(459,476,o),
(498,476,cs),
(545,476,o),
(591,434,o),
(598,281,c),
(644,301,ls),
(651,304,o),
(578,306,o),
(517,304,cs),
(419,301,l)
);
}
);
width = 765;
}
);
unicode = 230;
},
{
glyphname = b;
layers = (
{
layerId = m01;
shapes = (
{
closed = 1;
nodes = (
(153,44,l),
(153,718,l),
(155,794,l),
(145,800,l),
(-41,745,l),
(-41,729,l),
(63,717,l),
(63,44,l)
);
},
{
closed = 1;
nodes = (
(378,-12,o),
(496,111,o),
(496,286,c),
(404,258,l),
(404,126,o),
(342,28,o),
(255,28,cs),
(212,28,o),
(162,65,o),
(123,104,cs),
(122,105,l),
(64,44,l),
(111,18,l),
(136,0,o),
(179,-12,o),
(214,-12,cs)
);
},
{
closed = 1;
nodes = (
(496,286,l),
(496,420,o),
(407,515,o),
(284,515,cs),
(231,515,o),
(162,482,o),
(116,435,c),
(119,385,l),
(158,430,o),
(209,469,o),
(243,469,cs),
(337,469,o),
(404,382,o),
(404,258,c)
);
}
);
width = 543;
},
{
layerId = m002;
shapes = (
{
closed = 1;
nodes = (
(179,42,l),
(179,718,l),
(181,788,l),
(170,806,l),
(-67,741,l),
(-67,730,l),
(37,718,l),
(37,42,l)
);
},
{
closed = 1;
nodes = (
(394,-14,o),
(528,112,o),
(522,298,c),
(378,254,l),
(377,119,o),
(320,30,o),
(269,30,cs),
(227,30,o),
(188,58,o),
(141,105,cs),
(121,125,l),
(37,42,l),
(91,20,l),
(114,10,o),
(169,-14,o),
(256,-14,cs)
);
},
{
closed = 1;
nodes = (
(522,290,l),
(520,426,o),
(418,517,o),
(312,517,cs),
(215,517,o),
(129,473,o),
(90,429,c),
(96,363,l),
(185,465,o),
(224,467,o),
(243,467,cs),
(319,467,o),
(382,383,o),
(378,246,c)
);
}
);
width = 543;
}
);
unicode = 98;
},
{
glyphname = c;
layers = (
{
background = {
shapes = (
{
closed = 1;
nodes = (
(140,381,o),
(179,462,o),
(237,482,cs),
(256,489,o),
(268,492,o),
(275,502,cs),
(280,510,o),
(220,517,o),
(168,485,cs),
(93,440,o),
(46,350,o),
(45,237,cs),
(44,91,o),
(136,-13,o),
(267,-13,cs),
(315,-13,o),
(367,7,o),
(409,38,cs),
(443,64,o),
(451,88,o),
(444,95,cs),
(436,103,o),
(420,89,o),
(384,70,cs),
(357,55,o),
(326,47,o),
(297,47,cs),
(205,47,o),
(140,140,o),
(140,272,cs)
);
},
{
closed = 1;
nodes = (
(269,492,o),
(293,491,o),
(330,467,cs),
(351,453,o),
(369,432,o),
(381,406,cs),
(398,370,o),
(403,351,o),
(413,351,cs),
(422,351,o),
(428,374,o),
(428,417,cs),
(428,424,ls),
(428,459,o),
(418,487,o),
(386,500,cs),
(372,505,o),
(356,510,o),
(338,513,cs),
(301,519,o),
(282,513,o),
(275,502,cs)
);
}
);
};
layerId = m01;
shapes = (
{
closed = 1;
nodes = (
(331,-13,o),
(407,25,o),
(454,79,c),
(436,105,l),
(395,72,o),
(340,48,o),
(304,48,cs),
(208,48,o),
(135,143,o),
(135,277,cs),
(135,401,o),
(188,486,o),
(265,489,cs),
(325,491,o),
(378,416,o),
(391,339,c),
(432,339,l),
(432,490,l),
(386,490,o),
(330,518,o),
(280,516,cs),
(138,510,o),
(45,399,o),
(45,234,cs),
(45,89,o),
(138,-13,o),
(270,-13,cs)
);
}
);
width = 489;
},
{
background = {
shapes = (
{
closed = 1;
nodes = (
(140,381,o),
(179,462,o),
(237,482,cs),
(256,489,o),
(268,492,o),
(275,502,cs),
(280,510,o),
(220,517,o),
(168,485,cs),
(93,440,o),
(46,350,o),
(45,237,cs),
(44,91,o),
(136,-13,o),
(267,-13,cs),
(315,-13,o),
(367,7,o),
(409,38,cs),
(443,64,o),
(451,88,o),
(444,95,cs),
(436,103,o),
(420,89,o),
(384,70,cs),
(357,55,o),
(326,47,o),
(297,47,cs),
(205,47,o),
(140,140,o),
(140,272,cs)
);
},
{
closed = 1;
nodes = (
(269,492,o),
(293,491,o),
(330,467,cs),
(351,453,o),
(369,432,o),
(381,406,cs),
(398,370,o),
(403,351,o),
(413,351,cs),
(422,351,o),
(428,374,o),
(428,417,cs),
(428,424,ls),
(428,459,o),
(418,487,o),
(386,500,cs),
(372,505,o),
(356,510,o),
(338,513,cs),
(301,519,o),
(282,513,o),
(275,502,cs)
);
}
);
};
layerId = m002;
shapes = (
{
closed = 1;
nodes = (
(344,-15,o),
(434,31,o),
(476,80,c),
(443,127,l),
(387,75,o),
(334,50,o),
(304,50,cs),
(228,50,o),
(161,137,o),
(161,277,cs),
(161,406,o),
(210,485,o),
(260,487,cs),
(305,488,o),
(352,422,o),
(366,337,c),
(438,337,l),
(438,503,l),
(401,497,o),
(360,521,o),
(259,517,cs),
(123,511,o),
(19,403,o),
(19,234,cs),
(19,83,o),
(126,-15,o),
(253,-15,cs)
);
}
);
width = 489;
}
);
unicode = 99;
},
{
glyphname = d;
layers = (
{
layerId = m01;
shapes = (
{
closed = 1;
nodes = (
(585,28,l),
(585,44,l),
(478,57,l),
(478,735,l),
(483,811,l),
(473,817,l),
(287,762,l),
(287,746,l),
(391,734,l),
(391,65,l),
(398,-1,l),
(408,-7,l)
);
},
{
closed = 1;
nodes = (
(297,-16,o),
(371,27,o),
(429,88,c),
(437,102,l),
(409,123,l),
(405,121,o),
(402,115,o),
(402,115,c),
(366,69,o),
(319,37,o),
(290,37,cs),
(195,37,o),
(132,128,o),
(132,271,cs),
(132,388,o),
(184,481,o),
(265,481,cs),
(300,481,o),
(349,469,o),
(383,451,cs),
(405,439,o),
(421,427,o),
(421,420,cs),
(421,415,l),
(452,451,l),
(443,455,l),
(404,491,o),
(337,516,o),
(280,516,cs),
(134,516,o),
(35,399,o),
(35,248,cs),
(35,88,o),
(121,-16,o),
(250,-16,cs)
);
}
);
width = 582;
},
{
layerId = m002;
shapes = (
{
closed = 1;
nodes = (
(611,30,l),
(611,43,l),
(504,56,l),
(504,735,l),
(509,805,l),
(497,823,l),
(261,758,l),
(261,747,l),
(365,735,l),
(365,65,l),
(371,5,l),
(380,-12,l)
);
},
{
closed = 1;
nodes = (
(316,-16,o),
(398,44,o),
(436,119,cs),
(437,121,l),
(414,133,l),
(390,121,o),
(375,117,o),
(380,114,c),
(339,62,o),
(305,39,o),
(280,39,cs),
(216,39,o),
(158,122,o),
(158,271,cs),
(158,393,o),
(206,479,o),
(257,479,cs),
(295,479,o),
(332,470,o),
(371,449,cs),
(389,439,o),
(395,437,o),
(395,420,cs),
(395,361,l),
(471,449,l),
(466,451,l),
(435,484,o),
(349,518,o),
(280,518,cs),
(120,518,o),
(9,403,o),
(9,248,cs),
(9,85,o),
(105,-16,o),
(228,-16,cs)
);
}
);
width = 582;
}
);
unicode = 100;
},
{
glyphname = eth;
layers = (
{
layerId = m01;
shapes = (
{
closed = 1;
nodes = (
(430,-15,o),
(521,94,o),
(521,267,cs),
(521,396,o),
(430,477,o),
(285,477,cs),
(138,477,o),
(45,384,o),
(45,237,cs),
(45,82,o),
(138,-15,o),
(285,-15,cs)
);
},
{
closed = 1;
nodes = (
(205,20,o),
(147,115,o),
(147,265,cs),
(147,374,o),
(195,442,o),
(272,442,cs),
(362,442,o),
(419,363,o),
(419,236,cs),
(419,103,o),
(372,20,o),
(298,20,cs)
);
},
{
closed = 1;
nodes = (
(521,267,l),
(521,569,o),
(393,699,o),
(167,699,c),
(167,663,l),
(301,663,o),
(419,535,o),
(419,236,c)
);
},
{
closed = 1;
nodes = (
(412,704,l),
(385,733,l),
(216,581,l),
(242,550,l)
);
}
);
width = 600;
},
{
layerId = m002;
shapes = (
{
closed = 1;
nodes = (
(449,-17,o),
(547,95,o),
(547,267,cs),
(547,395,o),
(446,479,o),
(285,479,cs),
(128,479,o),
(19,390,o),
(19,237,cs),
(19,70,o),
(134,-17,o),
(285,-17,cs)
);
},
{
closed = 1;
nodes = (
(227,22,o),
(173,110,o),
(173,265,cs),
(173,380,o),
(216,440,o),
(272,440,cs),
(342,440,o),
(393,369,o),
(393,236,cs),
(393,98,o),
(350,22,o),
(298,22,cs)
);
},
{
closed = 1;
nodes = (
(547,271,l),
(546,578,o),
(403,710,o),
(141,701,c),
(141,659,l),
(267,678,o),
(396,561,o),
(393,224,c)
);
},
{
closed = 1;
nodes = (
(432,705,l),
(387,752,l),
(196,580,l),
(238,529,l)
);
}
);
width = 600;
}
);
unicode = 240;
},
{
glyphname = dcroat;
layers = (
{
layerId = m01;
shapes = (
{
closed = 1;
nodes = (
(585,28,l),
(585,44,l),
(478,57,l),
(478,735,l),
(483,811,l),
(473,817,l),
(287,762,l),
(287,746,l),
(391,734,l),
(391,65,l),
(398,-1,l),
(408,-7,l)
);
},
{
closed = 1;
nodes = (
(297,-16,o),
(371,27,o),
(429,88,c),
(437,102,l),
(409,123,l),
(405,121,o),
(402,115,o),
(402,115,c),
(366,69,o),
(319,37,o),
(290,37,cs),
(195,37,o),
(132,128,o),
(132,271,cs),
(132,388,o),
(184,481,o),
(265,481,cs),
(300,481,o),
(349,469,o),
(383,451,cs),
(405,439,o),
(421,427,o),
(421,420,cs),
(421,415,l),
(452,451,l),
(443,455,l),
(404,491,o),
(337,516,o),
(280,516,cs),
(134,516,o),
(35,399,o),
(35,248,cs),
(35,88,o),
(121,-16,o),
(250,-16,cs)
);
},
{
closed = 1;
nodes = (
(585,599,l),
(585,639,l),
(237,639,l),
(237,599,l)
);
}
);
width = 600;
},
{
layerId = m002;
shapes = (
{
closed = 1;
nodes = (
(611,30,l),
(611,43,l),
(504,56,l),
(504,735,l),
(509,805,l),
(479,823,l),
(261,758,l),
(261,747,l),
(365,735,l),
(365,65,l),
(371,5,l),
(399,-12,l)
);
},
{
closed = 1;
nodes = (
(316,-18,o),
(406,38,o),
(457,97,cs),
(459,99,l),
(414,133,l),
(390,121,o),
(375,117,o),
(380,114,c),
(339,62,o),
(305,39,o),
(290,39,cs),
(216,39,o),
(158,122,o),
(158,271,cs),
(158,393,o),
(206,479,o),
(265,479,cs),
(295,479,o),
(332,470,o),
(371,449,cs),
(389,439,o),
(395,437,o),
(395,420,cs),
(395,361,l),
(471,449,l),
(466,451,l),
(435,484,o),
(349,518,o),
(280,518,cs),
(120,518,o),
(9,403,o),
(9,248,cs),
(9,85,o),
(105,-18,o),
(250,-18,cs)
);
},
{
closed = 1;
nodes = (
(611,597,l),
(611,641,l),
(211,641,l),
(211,597,l)
);
}
);
width = 600;
}
);
unicode = 273;
},
{
glyphname = e;
layers = (
{
background = {
shapes = (
{
closed = 1;
nodes = (
(422,517,o),
(519,416,o),
(519,262,cs),
(519,91,o),
(422,-15,o),
(283,-15,cs),
(136,-15,o),
(43,91,o),
(43,262,cs),
(43,416,o),
(136,517,o),
(283,517,cs)
);
},
{
closed = 1;
nodes = (
(195,483,o),
(144,426,o),
(144,290,cs),
(144,101,o),
(204,18,o),
(296,18,cs),
(365,18,o),
(418,81,o),
(418,231,cs),
(418,407,o),
(357,483,o),
(270,483,cs)
);
},
{
closed = 1;
nodes = (
(140,517,o),
(46,401,o),
(45,237,cs),
(44,91,o),
(137,-13,o),
(267,-13,cs),
(315,-13,o),
(367,7,o),
(409,38,cs),
(443,64,o),
(451,88,o),
(444,95,cs),
(436,103,o),
(420,89,o),
(384,70,cs),
(357,55,o),
(326,47,o),
(297,47,cs),
(205,47,o),
(140,143,o),
(140,272,c),
(464,272,l),
(477,426,o),
(398,517,o),
(275,517,cs)
);
},
{
closed = 1;
nodes = (
(138,411,o),
(182,489,o),
(243,489,cs),
(311,489,o),
(362,411,o),
(367,308,c),
(371,312,ls),
(373,314,o),
(321,314,o),
(263,312,cs),
(138,308,l)
);
}
);
};
layerId = m01;
shapes = (
{
closed = 1;
nodes = (
(340,-13,o),
(418,26,o),
(457,80,c),
(435,108,l),
(397,72,o),
(340,47,o),
(297,47,cs),
(205,47,o),
(140,140,o),
(140,272,c),
(464,272,l),
(476,415,o),
(398,517,o),
(275,517,cs),
(141,517,o),
(46,401,o),
(45,237,cs),
(44,91,o),
(136,-13,o),
(267,-13,cs)
);
},
{
closed = 1;
nodes = (
(138,411,o),
(182,478,o),
(243,478,cs),
(311,478,o),
(362,411,o),
(367,308,c),
(371,312,ls),
(373,314,o),
(321,314,o),
(263,312,cs),
(138,308,l)
);
}
);
width = 510;
},
{
background = {
shapes = (
{
closed = 1;
nodes = (
(422,517,o),
(519,416,o),
(519,262,cs),
(519,91,o),
(422,-15,o),
(283,-15,cs),
(136,-15,o),
(43,91,o),
(43,262,cs),
(43,416,o),
(136,517,o),
(283,517,cs)
);
},
{
closed = 1;
nodes = (
(195,483,o),
(144,426,o),
(144,290,cs),
(144,101,o),
(204,18,o),
(296,18,cs),
(365,18,o),
(418,81,o),
(418,231,cs),
(418,407,o),
(357,483,o),
(270,483,cs)
);
},
{
closed = 1;
nodes = (
(140,517,o),
(46,401,o),
(45,237,cs),
(44,91,o),
(137,-13,o),
(267,-13,cs),
(315,-13,o),
(367,7,o),
(409,38,cs),
(443,64,o),
(451,88,o),
(444,95,cs),
(436,103,o),
(420,89,o),
(384,70,cs),
(357,55,o),
(326,47,o),
(297,47,cs),
(205,47,o),
(140,143,o),
(140,272,c),
(464,272,l),
(477,426,o),
(398,517,o),
(275,517,cs)
);
},
{
closed = 1;
nodes = (
(138,411,o),
(182,489,o),
(243,489,cs),
(311,489,o),
(362,411,o),
(367,308,c),
(371,312,ls),
(373,314,o),
(321,314,o),
(263,312,cs),
(138,308,l)
);
}
);
};
layerId = m002;
shapes = (
{
closed = 1;
nodes = (
(352,-15,o),
(445,32,o),
(479,80,c),
(438,131,l),
(388,75,o),
(335,49,o),
(297,49,cs),
(226,49,o),
(167,134,o),
(166,270,c),
(490,270,l),
(504,432,o),
(402,519,o),
(275,519,cs),
(120,519,o),
(20,398,o),
(19,237,cs),
(18,85,o),
(125,-15,o),
(267,-15,cs)
);
},
{
closed = 1;
nodes = (
(165,417,o),
(203,476,o),
(243,476,cs),
(291,476,o),
(336,440,o),
(343,287,c),
(389,311,ls),
(396,315,o),
(323,316,o),
(262,314,cs),
(164,311,l)
);
}
);
width = 510;
}
);
unicode = 101;
},
{
glyphname = schwa;
layers = (
{
layerId = m01;
shapes = (
{
closed = 1;
nodes = (
(369,-26,o),
(464,90,o),
(465,254,cs),
(466,400,o),
(374,504,o),
(243,504,cs),
(170,504,o),
(92,465,o),
(53,411,c),
(75,383,l),
(113,419,o),
(170,444,o),
(213,444,cs),
(305,444,o),
(370,351,o),
(370,219,c),
(46,219,l),
(34,76,o),
(112,-26,o),
(235,-26,cs)
);
},
{
closed = 1;
nodes = (
(199,13,o),
(148,80,o),
(143,183,c),
(139,179,ls),
(137,177,o),
(189,177,o),
(247,179,cs),
(372,183,l),
(372,80,o),
(328,13,o),
(267,13,cs)
);
}
);
width = 510;
},
{
layerId = m002;
shapes = (
{
closed = 1;
nodes = (
(390,-28,o),
(490,93,o),
(491,254,cs),
(492,406,o),
(385,506,o),
(243,506,cs),
(158,506,o),
(65,459,o),
(31,411,c),
(72,360,l),
(122,416,o),
(175,442,o),
(213,442,cs),
(284,442,o),
(343,357,o),
(344,221,c),
(20,221,l),
(6,59,o),
(108,-28,o),
(235,-28,cs)
);
},
{
closed = 1;
nodes = (
(219,15,o),
(174,74,o),
(167,227,c),
(121,180,ls),
(114,174,o),
(187,175,o),
(248,177,cs),
(346,180,l),
(345,74,o),
(307,15,o),
(267,15,cs)
);
}
);
width = 510;
}
);
unicode = 601;
},
{
glyphname = f;
layers = (
{
layerId = m01;
shapes = (
{
closed = 1;
nodes = (
(219,598,l),
(219,709,o),
(244,787,o),
(299,787,cs),
(353,787,o),
(375,722,o),
(395,672,c),
(431,672,l),
(442,792,l),
(417,805,o),
(362,814,o),
(328,814,cs),
(203,814,o),
(129,711,o),
(129,566,c)
);
},
{
closed = 1;
nodes = (
(313,0,l),
(313,19,l),
(219,50,l),
(129,50,l),
(38,20,l),
(38,0,l)
);
},
{
closed = 1;
nodes = (
(219,50,l),
(219,598,l),
(129,566,l),
(129,50,l)
);
},
{
closed = 1;
nodes = (
(341,462,l),
(341,502,l),
(22,502,l),
(20,462,l)
);
}
);
width = 372;
},
{
layerId = m002;
shapes = (
{
closed = 1;
nodes = (
(245,602,l),
(246,714,o),
(269,785,o),
(299,785,cs),
(329,785,o),
(348,728,o),
(371,670,c),
(427,670,l),
(437,787,l),
(402,805,o),
(366,816,o),
(328,816,cs),
(178,816,o),
(98,703,o),
(103,552,c)
);
},
{
closed = 1;
nodes = (
(339,-2,l),
(339,15,l),
(227,52,l),
(121,52,l),
(12,16,l),
(12,-2,l)
);
},
{
closed = 1;
nodes = (
(245,48,l),
(245,612,l),
(103,562,l),
(103,48,l)
);
},
{
closed = 1;
nodes = (
(367,460,l),
(367,504,l),
(-4,504,l),
(-3,460,l)
);
}
);
width = 372;
}
);
unicode = 102;
},
{
glyphname = g;
layers = (
{
layerId = m01;
shapes = (
{
closed = 1;
nodes = (
(406,-216,o),
(503,-131,o),
(503,-10,cs),
(503,42,o),
(456,92,o),
(391,92,cs),
(185,92,ls),
(136,92,o),
(100,110,o),
(100,149,cs),
(100,161,o),
(111,180,o),
(121,195,cs),
(140,223,o),
(149,240,o),
(143,248,cs),
(138,255,o),
(110,245,o),
(81,208,cs),
(61,181,o),
(49,154,o),
(49,131,cs),
(49,54,o),
(105,0,o),
(185,0,cs),
(325,0,ls),
(401,0,o),
(446,-28,o),
(446,-67,cs),
(446,-126,o),
(379,-168,o),
(271,-168,cs),
(173,-168,o),
(84,-124,o),
(84,-62,cs),
(84,-35,o),
(95,-20,o),
(116,2,cs),
(149,37,o),
(173,65,o),
(164,70,cs),
(155,76,o),
(133,69,o),
(103,41,cs),
(66,4,o),
(34,-43,o),
(34,-86,cs),
(34,-162,o),
(137,-216,o),
(255,-216,cs)
);
},
{
closed = 1;
nodes = (
(382,168,o),
(453,249,o),
(453,361,cs),
(453,454,o),
(384,515,o),
(274,515,cs),
(149,515,o),
(74,446,o),
(74,342,cs),
(74,240,o),
(146,168,o),
(254,168,cs)
);
},
{
closed = 1;
nodes = (
(197,203,o),
(174,261,o),
(174,358,cs),
(174,438,o),
(200,480,o),
(256,480,cs),
(321,480,o),
(358,427,o),
(358,328,cs),
(358,250,o),
(319,203,o),
(267,203,cs)
);
},
{
closed = 1;
nodes = (
(550,458,l),
(550,497,l),
(364,485,l),
(364,454,o),
(374,460,o),
(430,457,cs),
(541,450,l)
);
}
);
width = 550;
},
{
layerId = m002;
shapes = (
{
closed = 1;
nodes = (
(418,-218,o),
(529,-132,o),
(529,-10,cs),
(529,39,o),
(474,94,o),
(391,94,cs),
(185,94,ls),
(147,94,o),
(126,104,o),
(126,149,cs),
(126,165,o),
(138,186,o),
(143,194,cs),
(167,230,o),
(177,232,o),
(164,249,cs),
(155,263,o),
(91,248,o),
(60,209,cs),
(32,171,o),
(23,150,o),
(23,131,cs),
(23,52,o),
(91,-2,o),
(185,-2,cs),
(325,-2,ls),
(390,-2,o),
(420,-20,o),
(420,-67,cs),
(420,-133,o),
(367,-176,o),
(271,-176,cs),
(184,-176,o),
(110,-129,o),
(110,-62,cs),
(110,-28,o),
(122,-13,o),
(135,1,cs),
(169,37,o),
(208,51,o),
(181,69,c),
(172,83,o),
(118,73,o),
(85,42,cs),
(37,-5,o),
(8,-48,o),
(8,-86,cs),
(8,-157,o),
(125,-218,o),
(255,-218,cs)
);
},
{
closed = 1;
nodes = (
(389,166,o),
(479,241,o),
(479,361,cs),
(479,456,o),
(394,517,o),
(274,517,cs),
(138,517,o),
(48,448,o),
(48,342,cs),
(48,239,o),
(131,166,o),
(254,166,cs)
);
},
{
closed = 1;
nodes = (
(221,205,o),
(190,257,o),
(190,358,cs),
(190,443,o),
(222,478,o),
(256,478,cs),
(300,478,o),
(342,433,o),
(342,328,cs),
(342,244,o),
(300,205,o),
(267,205,cs)
);
},
{
closed = 1;
nodes = (
(550,456,l),
(550,501,l),
(338,485,l),
(338,450,o),
(386,458,o),
(428,455,cs),
(543,447,l)
);
}
);
width = 550;
}
);
unicode = 103;
},
{
glyphname = h;
layers = (
{
layerId = m01;
shapes = (
{
closed = 1;
nodes = (
(611,0,l),
(611,20,l),
(520,50,l),
(520,366,ls),
(520,453,o),
(447,515,o),
(345,515,cs),
(281,515,o),
(203,462,o),
(157,415,c),
(160,374,l),
(200,419,o),
(263,470,o),
(314,470,cs),
(382,470,o),
(430,415,o),
(430,338,cs),
(430,50,l),
(356,30,l),
(356,0,l)
);
},
{
closed = 1;
nodes = (
(268,0,l),
(268,30,l),
(194,50,l),
(104,50,l),
(13,20,l),
(13,0,l)
);
},
{
closed = 1;
nodes = (
(194,50,l),
(194,718,l),
(196,794,l),
(186,800,l),
(0,745,l),
(0,729,l),
(104,717,l),
(104,50,l)
);
}
);
width = 611;
},
{
layerId = m002;
shapes = (
{
closed = 1;
nodes = (
(637,-2,l),
(637,16,l),
(546,46,l),
(546,366,ls),
(546,454,o),
(459,517,o),
(345,517,cs),
(260,517,o),
(168,450,o),
(131,409,c),
(135,366,l),
(224,466,o),
(279,468,o),
(314,468,cs),
(363,468,o),
(404,421,o),
(404,338,cs),
(404,47,l),
(330,27,l),
(330,-2,l)
);
},
{
closed = 1;
nodes = (
(294,-2,l),
(294,27,l),
(201,52,l),
(96,52,l),
(-13,16,l),
(-13,-2,l)
);
},
{
closed = 1;
nodes = (
(220,48,l),
(220,718,l),
(222,788,l),
(211,806,l),
(-26,741,l),
(-26,730,l),
(78,718,l),
(78,48,l)
);
}
);
width = 611;
}
);
unicode = 104;
},
{
glyphname = hbar;
layers = (
{
layerId = m01;
shapes = (
{
closed = 1;
nodes = (
(611,0,l),
(611,20,l),
(520,50,l),
(520,366,ls),
(520,453,o),
(447,515,o),
(345,515,cs),
(281,515,o),
(203,462,o),
(157,415,c),
(160,374,l),
(200,419,o),
(263,470,o),
(314,470,cs),
(382,470,o),
(430,415,o),
(430,338,cs),
(430,50,l),
(356,30,l),
(356,0,l)
);
},
{
closed = 1;
nodes = (
(268,0,l),
(268,30,l),
(194,50,l),
(104,50,l),
(13,20,l),
(13,0,l)
);
},
{
closed = 1;
nodes = (
(194,50,l),
(194,718,l),
(196,794,l),
(186,800,l),
(0,745,l),
(0,729,l),
(104,717,l),
(104,50,l)
);
},
{
closed = 1;
nodes = (
(347,599,l),
(347,639,l),
(-1,639,l),
(-1,599,l)
);
}
);
width = 611;
},
{
layerId = m002;
shapes = (
{
closed = 1;
nodes = (
(637,-2,l),
(637,16,l),
(546,46,l),
(546,366,ls),
(546,454,o),
(459,517,o),
(345,517,cs),
(260,517,o),
(168,450,o),
(131,409,c),
(138,326,l),
(227,426,o),
(279,468,o),
(314,468,cs),
(363,468,o),
(404,421,o),
(404,338,cs),
(404,47,l),
(330,27,l),
(330,-2,l)
);
},
{
closed = 1;
nodes = (
(294,-2,l),
(294,27,l),
(201,52,l),
(96,52,l),
(-13,16,l),
(-13,-2,l)
);
},
{
closed = 1;
nodes = (
(220,48,l),
(220,718,l),
(222,788,l),
(192,806,l),
(-26,741,l),
(-26,730,l),
(78,718,l),
(78,48,l)
);
},
{
closed = 1;
nodes = (
(373,597,l),
(373,641,l),
(-27,641,l),
(-27,597,l)
);
}
);
width = 611;
}
);
unicode = 295;
},
{
glyphname = i;
layers = (
{
layerId = m01;
shapes = (
{
closed = 1;
nodes = (
(313,0,l),
(313,20,l),
(219,51,l),
(219,434,l),
(221,510,l),
(211,516,l),
(25,461,l),
(25,445,l),
(129,433,l),
(129,50,l),
(35,20,l),
(35,0,l)
);
},
{
closed = 1;
nodes = (
(197,598,o),
(224,625,o),
(224,659,cs),
(224,693,o),
(197,720,o),
(164,720,cs),
(129,720,o),
(102,693,o),
(102,659,cs),
(102,625,o),
(129,598,o),
(164,598,cs)
);
}
);
width = 338;
},
{
layerId = m002;
shapes = (
{
closed = 1;
nodes = (
(339,-2,l),
(339,16,l),
(245,47,l),
(245,434,l),
(247,504,l),
(235,522,l),
(-1,457,l),
(-1,446,l),
(103,434,l),
(103,46,l),
(9,16,l),
(9,-2,l)
);
},
{
closed = 1;
nodes = (
(214,576,o),
(250,610,o),
(250,659,cs),
(250,708,o),
(214,742,o),
(164,742,cs),
(112,742,o),
(76,708,o),
(76,659,cs),
(76,610,o),
(112,576,o),
(164,576,cs)
);
}
);
width = 338;
}
);
unicode = 105;
},
{
glyphname = idotless;
layers = (
{
layerId = m01;
shapes = (
{
closed = 1;
nodes = (
(313,0,l),
(313,20,l),
(219,51,l),
(219,434,l),
(221,510,l),
(211,516,l),
(25,461,l),
(25,445,l),
(129,433,l),
(129,50,l),
(35,20,l),
(35,0,l)
);
}
);
width = 338;
},
{
layerId = m002;
shapes = (
{
closed = 1;
nodes = (
(339,-2,l),
(339,16,l),
(245,47,l),
(245,434,l),
(247,504,l),
(217,522,l),
(-1,457,l),
(-1,446,l),
(103,434,l),
(103,46,l),
(9,16,l),
(9,-2,l)
);
}
);
width = 338;
}
);
unicode = 305;
},
{
glyphname = j;
layers = (
{
layerId = m01;
shapes = (
{
closed = 1;
nodes = (
(215,50,l),
(215,434,l),
(217,510,l),
(207,516,l),
(21,461,l),
(21,445,l),
(125,433,l),
(125,50,l)
);
},
{
closed = 1;
nodes = (
(56,-215,l),
(56,-215,o),
(69,-213,o),
(94,-197,cs),
(165,-155,o),
(215,-52,o),
(215,50,c),
(125,50,l),
(125,-59,o),
(92,-159,o),
(46,-192,c),
(46,-194,o),
(50,-204,o),
(55,-215,c)
);
},
{
closed = 1;
nodes = (
(193,598,o),
(220,625,o),
(220,659,cs),
(220,693,o),
(193,720,o),
(160,720,cs),
(125,720,o),
(98,693,o),
(98,659,cs),
(98,625,o),
(125,598,o),
(160,598,cs)
);
}
);
width = 318;
},
{
layerId = m002;
shapes = (
{
closed = 1;
nodes = (
(241,48,l),
(241,434,l),
(243,504,l),
(231,522,l),
(-5,457,l),
(-5,446,l),
(99,434,l),
(99,48,l)
);
},
{
closed = 1;
nodes = (
(61,-217,l),
(76,-214,o),
(93,-208,o),
(108,-199,cs),
(198,-145,o),
(242,-46,o),
(241,52,c),
(99,52,l),
(99,-71,o),
(59,-184,o),
(22,-195,c),
(24,-202,o),
(27,-213,o),
(30,-223,c)
);
},
{
closed = 1;
nodes = (
(210,576,o),
(246,610,o),
(246,659,cs),
(246,708,o),
(210,742,o),
(160,742,cs),
(108,742,o),
(72,708,o),
(72,659,cs),
(72,610,o),
(108,576,o),
(160,576,cs)
);
}
);
width = 318;
}
);
unicode = 106;
},
{
glyphname = jdotless;
layers = (
{
layerId = m01;
shapes = (
{
closed = 1;
nodes = (
(215,50,l),
(215,434,l),
(217,510,l),
(207,516,l),
(21,461,l),
(21,445,l),
(125,433,l),
(125,50,l)
);
},
{
closed = 1;
nodes = (
(56,-215,l),
(56,-215,o),
(69,-213,o),
(94,-197,cs),
(165,-155,o),
(215,-52,o),
(215,50,c),
(125,50,l),
(125,-59,o),
(92,-159,o),
(46,-192,c),
(46,-194,o),
(50,-204,o),
(55,-215,c)
);
}
);
width = 315;
},
{
layerId = m002;
shapes = (
{
closed = 1;
nodes = (
(241,48,l),
(241,434,l),
(243,504,l),
(213,522,l),
(-5,457,l),
(-5,446,l),
(99,434,l),
(99,48,l)
);
},
{
closed = 1;
nodes = (
(61,-217,l),
(76,-214,o),
(93,-208,o),
(108,-199,cs),
(198,-145,o),
(242,-46,o),
(241,52,c),
(99,52,l),
(99,-71,o),
(59,-184,o),
(22,-195,c),
(24,-200,o),
(28,-209,o),
(32,-217,c)
);
}
);
width = 315;
}
);
unicode = 567;
},
{
glyphname = k;
layers = (
{
layerId = m01;
shapes = (
{
closed = 1;
nodes = (
(204,50,l),
(204,718,l),
(206,794,l),
(196,800,l),
(10,745,l),
(10,729,l),
(117,716,l),
(117,50,l)
);
},
{
closed = 1;
nodes = (
(298,0,l),
(298,20,l),
(204,50,l),
(114,50,l),
(23,20,l),
(23,0,l)
);
},
{
closed = 1;
nodes = (
(587,0,l),
(587,20,l),
(513,51,l),
(320,353,l),
(261,290,l),
(437,0,l)
);
},
{
closed = 1;
nodes = (
(473,462,l),
(547,480,l),
(548,500,l),
(344,500,l),
(344,480,l),
(400,462,l),
(177,227,l),
(162,169,l)
);
}
);
width = 580;
},
{
layerId = m002;
shapes = (
{
closed = 1;
nodes = (
(230,48,l),
(230,718,l),
(232,788,l),
(220,806,l),
(-16,741,l),
(-16,730,l),
(91,717,l),
(91,48,l)
);
},
{
closed = 1;
nodes = (
(324,-2,l),
(324,16,l),
(212,52,l),
(106,52,l),
(-3,16,l),
(-3,-2,l)
);
},
{
closed = 1;
nodes = (
(613,-2,l),
(613,15,l),
(539,46,l),
(325,380,l),
(239,288,l),
(415,-2,l)
);
},
{
closed = 1;
nodes = (
(494,464,l),
(573,483,l),
(574,502,l),
(318,502,l),
(318,484,l),
(381,464,l),
(150,220,l),
(122,113,l)
);
}
);
width = 580;
}
);
unicode = 107;
},
{
glyphname = l;
layers = (
{
layerId = m01;
name = Regular;
shapes = (
{
closed = 1;
nodes = (
(209,50,l),
(209,718,l),
(211,794,l),
(201,800,l),
(15,745,l),
(15,729,l),
(119,717,l),
(119,50,l)
);
},
{
closed = 1;
nodes = (
(303,0,l),
(303,19,l),
(209,50,l),
(119,50,l),
(28,20,l),
(28,0,l)
);
}
);
width = 318;
},
{
layerId = m002;
name = Regular;
shapes = (
{
closed = 1;
nodes = (
(235,48,l),
(235,718,l),
(237,788,l),
(221,806,l),
(-11,741,l),
(-11,730,l),
(93,718,l),
(93,48,l)
);
},
{
closed = 1;
nodes = (
(329,-2,l),
(329,15,l),
(217,52,l),
(111,52,l),
(2,16,l),
(2,-2,l)
);
}
);
width = 318;
}
);
unicode = 108;
},
{
glyphname = lslash;
layers = (
{
layerId = m01;
shapes = (
{
closed = 1;
nodes = (
(209,50,l),
(209,718,l),
(211,794,l),
(201,800,l),
(15,745,l),
(15,729,l),
(119,717,l),
(119,50,l)
);
},
{
closed = 1;
nodes = (
(303,0,l),
(303,19,l),
(209,50,l),
(119,50,l),
(28,20,l),
(28,0,l)
);
},
{
closed = 1;
nodes = (
(319,464,l),
(299,503,l),
(17,350,l),
(37,311,l)
);
}
);
width = 318;
},
{
layerId = m002;
shapes = (
{
closed = 1;
nodes = (
(235,48,l),
(235,718,l),
(237,788,l),
(207,806,l),
(-11,741,l),
(-11,730,l),
(93,718,l),
(93,48,l)
);
},
{
closed = 1;
nodes = (
(329,-2,l),
(329,15,l),
(217,52,l),
(111,52,l),
(2,16,l),
(2,-2,l)
);
},
{
closed = 1;
nodes = (
(341,467,l),
(314,520,l),
(-5,347,l),
(22,294,l)
);
}
);
width = 318;
}
);
unicode = 322;
},
{
glyphname = m;
layers = (
{
layerId = m01;
shapes = (
{
closed = 1;
nodes = (
(867,0,l),
(867,20,l),
(776,50,l),
(776,386,ls),
(776,462,o),
(708,515,o),
(611,515,cs),
(559,515,o),
(493,474,o),
(453,415,c),
(456,364,l),
(494,426,o),
(546,470,o),
(580,470,cs),
(642,470,o),
(686,424,o),
(686,358,cs),
(686,50,l),
(612,30,l),
(612,0,l)
);
},
{
closed = 1;
nodes = (
(280,0,l),
(280,30,l),
(204,50,l),
(204,434,l),
(197,510,l),
(187,516,l),
(10,461,l),
(10,445,l),
(114,433,l),
(114,50,l),
(20,20,l),
(20,0,l)
);
},
{
closed = 1;
nodes = (
(561,0,l),
(561,30,l),
(490,49,l),
(490,386,ls),
(490,462,o),
(422,515,o),
(325,515,cs),
(255,515,o),
(190,454,o),
(167,395,c),
(170,344,l),
(189,406,o),
(240,470,o),
(294,470,cs),
(356,470,o),
(400,424,o),
(400,358,cs),
(400,50,l),
(326,30,l),
(326,0,l)
);
}
);
width = 877;
},
{
layerId = m002;
shapes = (
{
closed = 1;
nodes = (
(893,-2,l),
(893,16,l),
(802,46,l),
(802,386,ls),
(802,461,o),
(721,517,o),
(611,517,cs),
(541,517,o),
(451,464,o),
(417,410,c),
(424,342,l),
(488,446,o),
(562,468,o),
(580,468,cs),
(624,468,o),
(660,430,o),
(660,358,cs),
(660,47,l),
(616,27,l),
(616,-2,l)
);
},
{
closed = 1;
nodes = (
(256,-2,l),
(256,27,l),
(210,47,l),
(210,434,l),
(203,504,l),
(190,522,l),
(-36,457,l),
(-36,446,l),
(68,434,l),
(68,46,l),
(-26,16,l),
(-26,-2,l)
);
},
{
closed = 1;
nodes = (
(557,-2,l),
(557,27,l),
(506,46,l),
(506,386,ls),
(506,461,o),
(425,517,o),
(315,517,cs),
(213,517,o),
(139,443,o),
(121,392,c),
(132,304,l),
(185,438,o),
(250,468,o),
(284,468,cs),
(328,468,o),
(364,430,o),
(364,358,cs),
(364,47,l),
(310,27,l),
(310,-2,l)
);
}
);
width = 857;
}
);
unicode = 109;
},
{
glyphname = n;
layers = (
{
layerId = m01;
shapes = (
{
closed = 1;
nodes = (
(621,0,l),
(621,20,l),
(530,50,l),
(530,366,ls),
(530,453,o),
(462,515,o),
(365,515,cs),
(307,515,o),
(233,462,o),
(187,415,c),
(190,368,l),
(230,413,o),
(289,464,o),
(334,464,cs),
(396,464,o),
(440,415,o),
(440,338,cs),
(440,50,l),
(366,20,l),
(366,0,l)
);
},
{
closed = 1;
nodes = (
(280,0,l),
(280,20,l),
(204,50,l),
(204,434,l),
(197,510,l),
(187,516,l),
(10,461,l),
(10,445,l),
(114,433,l),
(114,50,l),
(20,20,l),
(20,0,l)
);
}
);
width = 631;
},
{
layerId = m002;
shapes = (
{
closed = 1;
nodes = (
(647,-2,l),
(647,16,l),
(556,46,l),
(556,366,ls),
(556,455,o),
(474,517,o),
(365,517,cs),
(285,517,o),
(198,449,o),
(161,409,c),
(167,347,l),
(257,448,o),
(305,462,o),
(334,462,cs),
(377,462,o),
(414,421,o),
(414,338,cs),
(414,45,l),
(340,15,l),
(340,-2,l)
);
},
{
closed = 1;
nodes = (
(306,-2,l),
(306,15,l),
(230,45,l),
(230,434,l),
(223,504,l),
(212,522,l),
(-16,457,l),
(-16,446,l),
(88,434,l),
(88,46,l),
(-6,16,l),
(-6,-2,l)
);
}
);
width = 631;
}
);
unicode = 110;
},
{
glyphname = o;
layers = (
{
background = {
shapes = (
{
closed = 1;
nodes = (
(194,516,o),
(129,467,o),
(129,390,c),
(129,190,o),
(410,220,o),
(410,120,c),
(410,49,o),
(367,4,o),
(298,4,c),
(213,4,o),
(159,49,o),
(159,120,c),
(124,120,l),
(124,24,l),
(170,-1,o),
(237,-16,o),
(298,-16,c),
(404,-16,o),
(470,36,o),
(470,120,c),
(470,320,o),
(199,290,o),
(199,390,c),
(199,455,o),
(237,496,o),
(298,496,c),
(370,496,o),
(416,451,o),
(416,380,c),
(451,380,l),
(451,473,l),
(425,499,o),
(366,516,o),
(298,516,c)
);
}
);
};
layerId = m01;
shapes = (
{
closed = 1;
nodes = (
(423,-15,o),
(521,102,o),
(521,267,cs),
(521,413,o),
(423,517,o),
(285,517,cs),
(144,517,o),
(45,409,o),
(45,257,cs),
(45,98,o),
(144,-15,o),
(285,-15,cs)
);
},
{
closed = 1;
nodes = (
(205,20,o),
(147,121,o),
(147,285,cs),
(147,407,o),
(195,482,o),
(272,482,cs),
(362,482,o),
(419,388,o),
(419,236,cs),
(419,102,o),
(372,20,o),
(298,20,cs)
);
}
);
width = 566;
},
{
background = {
shapes = (
{
closed = 1;
nodes = (
(194,516,o),
(129,467,o),
(129,390,c),
(129,190,o),
(410,220,o),
(410,120,c),
(410,49,o),
(367,4,o),
(298,4,c),
(213,4,o),
(159,49,o),
(159,120,c),
(124,120,l),
(124,24,l),
(170,-1,o),
(237,-16,o),
(298,-16,c),
(404,-16,o),
(470,36,o),
(470,120,c),
(470,320,o),
(199,290,o),
(199,390,c),
(199,455,o),
(237,496,o),
(298,496,c),
(370,496,o),
(416,451,o),
(416,380,c),
(451,380,l),
(451,473,l),
(425,499,o),
(366,516,o),
(298,516,c)
);
}
);
};
layerId = m002;
shapes = (
{
closed = 1;
nodes = (
(441,-17,o),
(547,102,o),
(547,267,cs),
(547,418,o),
(434,519,o),
(285,519,cs),
(132,519,o),
(19,414,o),
(19,257,cs),
(19,93,o),
(131,-17,o),
(285,-17,cs)
);
},
{
closed = 1;
nodes = (
(227,22,o),
(173,116,o),
(173,285,cs),
(173,412,o),
(216,480,o),
(272,480,cs),
(340,480,o),
(393,393,o),
(393,236,cs),
(393,97,o),
(350,22,o),
(298,22,cs)
);
}
);
width = 566;
}
);
unicode = 111;
},
{
glyphname = oslash;
layers = (
{
layerId = m01;
shapes = (
{
closed = 1;
nodes = (
(423,-15,o),
(521,102,o),
(521,267,cs),
(521,413,o),
(423,517,o),
(285,517,cs),
(144,517,o),
(45,409,o),
(45,257,cs),
(45,98,o),
(144,-15,o),
(285,-15,cs)
);
},
{
closed = 1;
nodes = (
(205,20,o),
(147,121,o),
(147,285,cs),
(147,407,o),
(195,482,o),
(272,482,cs),
(362,482,o),
(419,388,o),
(419,236,cs),
(419,102,o),
(372,20,o),
(298,20,cs)
);
},
{
closed = 1;
nodes = (
(124,-39,l),
(504,540,l),
(450,540,l),
(70,-39,l)
);
}
);
width = 566;
},
{
layerId = m002;
shapes = (
{
closed = 1;
nodes = (
(441,-17,o),
(547,102,o),
(547,267,cs),
(547,418,o),
(434,519,o),
(285,519,cs),
(132,519,o),
(19,414,o),
(19,257,cs),
(19,93,o),
(131,-17,o),
(285,-17,cs)
);
},
{
closed = 1;
nodes = (
(227,22,o),
(173,116,o),
(173,285,cs),
(173,412,o),
(216,480,o),
(272,480,cs),
(340,480,o),
(393,393,o),
(393,236,cs),
(393,97,o),
(350,22,o),
(298,22,cs)
);
},
{
closed = 1;
nodes = (
(135,-41,l),
(518,542,l),
(439,542,l),
(56,-41,l)
);
}
);
width = 566;
}
);
unicode = 248;
},
{
glyphname = oe;
layers = (
{
layerId = m01;
shapes = (
{
closed = 1;
nodes = (
(423,-15,o),
(521,102,o),
(521,267,cs),
(521,413,o),
(423,517,o),
(285,517,cs),
(144,517,o),
(45,409,o),
(45,257,cs),
(45,98,o),
(144,-15,o),
(285,-15,cs)
);
},
{
closed = 1;
nodes = (
(205,20,o),
(147,121,o),
(147,285,cs),
(147,407,o),
(195,482,o),
(272,482,cs),
(362,482,o),
(419,388,o),
(419,236,cs),
(419,102,o),
(372,20,o),
(298,20,cs)
);
},
{
closed = 1;
nodes = (
(721,-13,o),
(799,26,o),
(838,80,c),
(816,108,l),
(778,72,o),
(721,47,o),
(678,47,cs),
(586,47,o),
(521,140,o),
(521,272,c),
(845,272,l),
(857,415,o),
(779,517,o),
(656,517,cs),
(522,517,o),
(427,401,o),
(426,237,cs),
(425,91,o),
(517,-13,o),
(648,-13,cs)
);
},
{
closed = 1;
nodes = (
(519,411,o),
(563,478,o),
(624,478,cs),
(692,478,o),
(743,411,o),
(748,308,c),
(752,312,ls),
(754,314,o),
(702,314,o),
(644,312,cs),
(519,308,l)
);
}
);
width = 891;
},
{
layerId = m002;
shapes = (
{
closed = 1;
nodes = (
(441,-17,o),
(547,102,o),
(547,267,cs),
(547,418,o),
(434,519,o),
(285,519,cs),
(132,519,o),
(19,414,o),
(19,257,cs),
(19,93,o),
(131,-17,o),
(285,-17,cs)
);
},
{
closed = 1;
nodes = (
(227,22,o),
(173,116,o),
(173,285,cs),
(173,412,o),
(216,480,o),
(272,480,cs),
(340,480,o),
(393,393,o),
(393,236,cs),
(393,97,o),
(350,22,o),
(298,22,cs)
);
},
{
closed = 1;
nodes = (
(733,-15,o),
(826,32,o),
(860,80,c),
(819,131,l),
(769,75,o),
(716,49,o),
(678,49,cs),
(607,49,o),
(548,134,o),
(547,270,c),
(871,270,l),
(885,432,o),
(783,519,o),
(656,519,cs),
(501,519,o),
(401,398,o),
(400,237,cs),
(399,85,o),
(506,-15,o),
(648,-15,cs)
);
},
{
closed = 1;
nodes = (
(546,417,o),
(584,476,o),
(624,476,cs),
(672,476,o),
(717,438,o),
(724,285,c),
(770,311,ls),
(778,316,o),
(704,316,o),
(643,314,cs),
(545,311,l)
);
}
);
width = 891;
}
);
unicode = 339;
},
{
glyphname = p;
layers = (
{
layerId = m01;
name = Regular;
shapes = (
{
closed = 1;
nodes = (
(443,-15,o),
(545,102,o),
(545,268,cs),
(545,414,o),
(464,517,o),
(350,517,cs),
(297,517,o),
(219,474,o),
(161,413,c),
(153,399,l),
(181,378,l),
(185,380,o),
(188,386,o),
(188,386,c),
(223,430,o),
(273,461,o),
(310,461,cs),
(389,461,o),
(445,372,o),
(445,245,cs),
(445,113,o),
(391,20,o),
(315,20,cs),
(284,20,o),
(224,38,o),
(170,92,cs),
(167,95,l),
(138,60,l),
(147,56,l),
(205,3,o),
(269,-15,o),
(300,-15,cs)
);
},
{
closed = 1;
nodes = (
(293,-200,l),
(293,-180,l),
(199,-150,l),
(109,-150,l),
(18,-180,l),
(18,-200,l)
);
},
{
closed = 1;
nodes = (
(199,-150,l),
(199,436,l),
(192,502,l),
(182,508,l),
(5,463,l),
(5,447,l),
(109,435,l),
(109,-150,l)
);
}
);
width = 600;
},
{
layerId = m002;
name = Regular;
shapes = (
{
closed = 1;
nodes = (
(459,-17,o),
(571,100,o),
(571,268,cs),
(571,411,o),
(486,519,o),
(350,519,cs),
(278,519,o),
(188,459,o),
(133,404,cs),
(131,402,l),
(176,386,l),
(200,398,o),
(216,402,o),
(210,405,c),
(250,455,o),
(287,459,o),
(310,459,cs),
(368,459,o),
(419,377,o),
(419,245,cs),
(419,108,o),
(369,22,o),
(315,22,cs),
(291,22,o),
(246,15,o),
(188,73,cs),
(164,97,l),
(119,52,l),
(124,50,l),
(179,-4,o),
(260,-17,o),
(300,-17,cs)
);
},
{
closed = 1;
nodes = (
(319,-202,l),
(319,-184,l),
(207,-148,l),
(101,-148,l),
(-8,-184,l),
(-8,-202,l)
);
},
{
closed = 1;
nodes = (
(225,-152,l),
(225,436,l),
(219,496,l),
(206,513,l),
(-21,460,l),
(-21,448,l),
(83,436,l),
(83,-152,l)
);
}
);
width = 600;
}
);
unicode = 112;
},
{
glyphname = thorn;
layers = (
{
layerId = m01;
shapes = (
{
closed = 1;
nodes = (
(199,-150,l),
(199,718,l),
(201,794,l),
(191,800,l),
(5,745,l),
(5,729,l),
(109,717,l),
(109,-150,l)
);
},
{
closed = 1;
nodes = (
(293,-200,l),
(293,-180,l),
(199,-150,l),
(109,-150,l),
(18,-180,l),
(18,-200,l)
);
},
{
closed = 1;
nodes = (
(424,-12,o),
(542,111,o),
(542,286,c),
(450,258,l),
(450,126,o),
(388,28,o),
(301,28,cs),
(258,28,o),
(208,65,o),
(169,104,cs),
(168,105,l),
(110,44,l),
(157,18,l),
(182,0,o),
(225,-12,o),
(260,-12,cs)
);
},
{
closed = 1;
nodes = (
(542,286,l),
(542,420,o),
(453,515,o),
(330,515,cs),
(277,515,o),
(208,482,o),
(162,435,c),
(165,385,l),
(204,430,o),
(255,469,o),
(289,469,cs),
(383,469,o),
(450,382,o),
(450,258,c)
);
}
);
width = 600;
},
{
layerId = m002;
shapes = (
{
closed = 1;
nodes = (
(225,-152,l),
(225,718,l),
(227,788,l),
(197,806,l),
(-21,741,l),
(-21,730,l),
(83,718,l),
(83,-152,l)
);
},
{
closed = 1;
nodes = (
(319,-202,l),
(319,-184,l),
(207,-148,l),
(101,-148,l),
(-8,-184,l),
(-8,-202,l)
);
},
{
closed = 1;
nodes = (
(440,-14,o),
(574,112,o),
(568,298,c),
(424,254,l),
(423,119,o),
(366,30,o),
(301,30,cs),
(273,30,o),
(234,59,o),
(187,105,cs),
(167,125,l),
(91,46,l),
(137,20,l),
(153,4,o),
(215,-14,o),
(260,-14,cs)
);
},
{
closed = 1;
nodes = (
(568,290,l),
(566,426,o),
(464,517,o),
(330,517,cs),
(261,517,o),
(175,473,o),
(136,429,c),
(142,335,l),
(231,437,o),
(270,467,o),
(289,467,cs),
(365,467,o),
(428,383,o),
(424,246,c)
);
}
);
width = 600;
}
);
unicode = 254;
},
{
glyphname = q;
layers = (
{
layerId = m01;
shapes = (
{
closed = 1;
nodes = (
(323,-11,o),
(392,22,o),
(438,69,c),
(435,110,l),
(396,65,o),
(345,34,o),
(311,34,cs),
(217,34,o),
(150,138,o),
(150,286,c),
(55,258,l),
(55,100,o),
(144,-11,o),
(270,-11,cs)
);
},
{
closed = 1;
nodes = (
(585,-200,l),
(585,-180,l),
(491,-150,l),
(401,-150,l),
(310,-180,l),
(310,-200,l)
);
},
{
closed = 1;
nodes = (
(491,-150,l),
(491,460,l),
(401,460,l),
(401,-150,l)
);
},
{
closed = 1;
nodes = (
(150,286,l),
(150,394,o),
(212,471,o),
(299,471,cs),
(342,471,o),
(396,442,o),
(431,400,cs),
(432,399,l),
(490,460,l),
(443,486,l),
(420,504,o),
(377,516,o),
(340,516,cs),
(173,516,o),
(55,409,o),
(55,258,c)
);
}
);
width = 585;
},
{
layerId = m002;
shapes = (
{
closed = 1;
nodes = (
(339,-13,o),
(425,31,o),
(463,75,c),
(457,130,l),
(370,29,o),
(332,36,o),
(311,36,cs),
(236,36,o),
(173,138,o),
(176,298,c),
(29,254,l),
(30,101,o),
(124,-13,o),
(270,-13,cs)
);
},
{
closed = 1;
nodes = (
(611,-202,l),
(611,-184,l),
(499,-148,l),
(393,-148,l),
(284,-184,l),
(284,-202,l)
);
},
{
closed = 1;
nodes = (
(517,-152,l),
(517,462,l),
(375,462,l),
(375,-152,l)
);
},
{
closed = 1;
nodes = (
(176,290,l),
(177,401,o),
(232,469,o),
(299,469,cs),
(330,469,o),
(371,447,o),
(404,407,c),
(433,379,l),
(517,462,l),
(467,487,l),
(445,497,o),
(388,518,o),
(340,518,cs),
(157,518,o),
(22,406,o),
(29,246,c)
);
}
);
width = 585;
}
);
unicode = 113;
},
{
glyphname = r;
layers = (
{
background = {
shapes = (
{
closed = 1;
nodes = (
(187,516,l),
(192,513,ls),
(195,511,o),
(199,496,o),
(202,460,cs),
(204,434,l),
(204,108,ls),
(204,69,o),
(223,45,o),
(261,35,cs),
(274,32,o),
(280,25,o),
(280,15,cs),
(280,6,o),
(257,0,o),
(214,0,cs),
(20,0,l),
(20,10,ls),
(20,16,o),
(35,25,o),
(67,35,cs),
(99,45,o),
(114,69,o),
(114,107,cs),
(114,370,ls),
(114,411,o),
(92,435,o),
(52,440,cs),
(10,445,l),
(10,453,ls),
(10,458,o),
(28,466,o),
(65,478,cs)
);
},
{
closed = 1;
nodes = (
(244,464,o),
(270,517,o),
(302,517,cs),
(316,517,o),
(335,515,o),
(353,512,cs),
(386,506,o),
(398,481,o),
(390,447,cs),
(382,415,o),
(371,398,o),
(363,403,cs),
(336,416,o),
(307,419,o),
(283,419,cs),
(257,419,o),
(240,404,o),
(221,378,cs),
(192,338,o),
(173,316,o),
(168,323,cs),
(162,332,o),
(170,350,o),
(191,384,cs)
);
}
);
};
layerId = m01;
shapes = (
{
closed = 1;
nodes = (
(202,50,l),
(202,434,l),
(198,509,l),
(187,516,l),
(10,461,l),
(10,445,l),
(114,433,l),
(114,50,l)
);
},
{
closed = 1;
nodes = (
(308,0,l),
(308,20,l),
(202,50,l),
(114,50,l),
(20,20,l),
(20,0,l)
);
},
{
closed = 1;
nodes = (
(223,361,o),
(241,429,o),
(283,429,cs),
(307,429,o),
(336,420,o),
(363,403,c),
(404,485,l),
(370,507,o),
(325,520,o),
(273,517,c),
(157,326,l),
(174,294,l)
);
}
);
width = 424;
},
{
background = {
shapes = (
{
closed = 1;
nodes = (
(187,516,l),
(192,513,ls),
(195,511,o),
(199,496,o),
(202,460,cs),
(204,434,l),
(204,108,ls),
(204,69,o),
(223,45,o),
(261,35,cs),
(274,32,o),
(280,25,o),
(280,15,cs),
(280,6,o),
(257,0,o),
(214,0,cs),
(20,0,l),
(20,10,ls),
(20,16,o),
(35,25,o),
(67,35,cs),
(99,45,o),
(114,69,o),
(114,107,cs),
(114,370,ls),
(114,411,o),
(92,435,o),
(52,440,cs),
(10,445,l),
(10,453,ls),
(10,458,o),
(28,466,o),
(65,478,cs)
);
},
{
closed = 1;
nodes = (
(244,464,o),
(270,517,o),
(302,517,cs),
(316,517,o),
(335,515,o),
(353,512,cs),
(386,506,o),
(398,481,o),
(390,447,cs),
(382,415,o),
(371,398,o),
(363,403,cs),
(336,416,o),
(307,419,o),
(283,419,cs),
(257,419,o),
(240,404,o),
(221,378,cs),
(192,338,o),
(173,316,o),
(168,323,cs),
(162,332,o),
(170,350,o),
(191,384,cs)
);
}
);
};
layerId = m002;
shapes = (
{
closed = 1;
nodes = (
(228,48,l),
(228,434,l),
(214,503,l),
(194,522,l),
(-16,457,l),
(-16,446,l),
(88,434,l),
(88,48,l)
);
},
{
closed = 1;
nodes = (
(334,-2,l),
(334,17,l),
(209,52,l),
(106,52,l),
(-6,16,l),
(-6,-2,l)
);
},
{
closed = 1;
nodes = (
(240,407,o),
(266,427,o),
(283,427,cs),
(309,427,o),
(316,423,o),
(377,384,c),
(426,481,l),
(398,504,o),
(352,527,o),
(280,517,c),
(134,325,l),
(160,297,l)
);
}
);
width = 424;
}
);
unicode = 114;
},
{
glyphname = s;
layers = (
{
background = {
shapes = (
{
closed = 1;
nodes = (
(125,516,o),
(55,460,o),
(55,380,cs),
(55,180,o),
(336,210,o),
(336,110,cs),
(336,54,o),
(290,14,o),
(224,14,cs),
(179,14,o),
(139,45,o),
(116,94,cs),
(78,182,o),
(67,165,o),
(62,34,c),
(98,4,o),
(166,-16,o),
(224,-16,cs),
(325,-16,o),
(396,44,o),
(396,130,cs),
(396,330,o),
(125,300,o),
(125,400,cs),
(125,450,o),
(166,486,o),
(224,486,cs),
(264,486,o),
(299,459,o),
(320,416,cs),
(337,379,o),
(342,360,o),
(352,360,cs),
(365,360,o),
(371,403,o),
(367,481,c),
(337,499,o),
(280,516,o),
(224,516,cs)
);
}
);
};
layerId = m01;
shapes = (
{
closed = 1;
nodes = (
(325,-16,o),
(396,44,o),
(396,130,cs),
(396,325,o),
(125,300,o),
(125,400,cs),
(125,450,o),
(166,486,o),
(224,486,cs),
(264,486,o),
(299,459,o),
(320,416,cs),
(345,360,l),
(368,360,l),
(368,481,l),
(336,499,o),
(280,516,o),
(224,516,cs),
(125,516,o),
(55,460,o),
(55,380,cs),
(55,185,o),
(336,210,o),
(336,110,cs),
(336,54,o),
(290,14,o),
(224,14,cs),
(179,14,o),
(139,45,o),
(116,94,cs),
(92,149,l),
(70,149,l),
(62,34,l),
(98,4,o),
(166,-16,o),
(224,-16,cs)
);
}
);
width = 441;
},
{
background = {
shapes = (
{
closed = 1;
nodes = (
(125,516,o),
(55,460,o),
(55,380,cs),
(55,180,o),
(336,210,o),
(336,110,cs),
(336,54,o),
(290,14,o),
(224,14,cs),
(179,14,o),
(139,45,o),
(116,94,cs),
(78,182,o),
(67,165,o),
(62,34,c),
(98,4,o),
(166,-16,o),
(224,-16,cs),
(325,-16,o),
(396,44,o),
(396,130,cs),
(396,330,o),
(125,300,o),
(125,400,cs),
(125,450,o),
(166,486,o),
(224,486,cs),
(264,486,o),
(299,459,o),
(320,416,cs),
(337,379,o),
(342,360,o),
(352,360,cs),
(365,360,o),
(371,403,o),
(367,481,c),
(337,499,o),
(280,516,o),
(224,516,cs)
);
}
);
};
layerId = m002;
shapes = (
{
closed = 1;
nodes = (
(337,-18,o),
(422,43,o),
(422,130,cs),
(422,330,o),
(151,305,o),
(151,400,cs),
(151,456,o),
(183,484,o),
(224,484,cs),
(249,484,o),
(291,469,o),
(306,415,cs),
(322,358,l),
(374,358,l),
(374,475,l),
(334,498,o),
(287,518,o),
(224,518,cs),
(112,518,o),
(29,459,o),
(29,380,cs),
(29,180,o),
(310,205,o),
(310,110,cs),
(310,48,o),
(274,16,o),
(224,16,cs),
(194,16,o),
(146,34,o),
(130,95,cs),
(115,151,l),
(64,151,l),
(57,42,l),
(78,12,o),
(152,-18,o),
(224,-18,cs)
);
}
);
width = 441;
}
);
unicode = 115;
},
{
glyphname = saltillo;
layers = (
{
layerId = m01;
shapes = (
{
closed = 1;
nodes = (
(333,415,l),
(343,700,l),
(261,700,l),
(271,415,l)
);
}
);
width = 600;
},
{
layerId = m002;
shapes = (
{
closed = 1;
nodes = (
(271,415,l),
(333,415,l),
(343,700,l),
(261,700,l)
);
}
);
width = 600;
}
);
unicode = 42892;
},
{
glyphname = germandbls;
layers = (
{
layerId = m01;
shapes = (
{
closed = 1;
nodes = (
(507,-16,o),
(565,44,o),
(565,130,cs),
(565,325,o),
(343,310,o),
(343,400,cs),
(343,489,o),
(491,534,o),
(491,634,cs),
(491,750,o),
(433,814,o),
(328,814,cs),
(203,814,o),
(109,711,o),
(109,566,c),
(199,598,l),
(199,709,o),
(244,787,o),
(299,787,cs),
(343,787,o),
(419,687,o),
(419,611,cs),
(419,536,o),
(285,479,o),
(285,380,cs),
(285,185,o),
(516,200,o),
(516,110,cs),
(516,54,o),
(478,19,o),
(424,19,cs),
(387,19,o),
(350,45,o),
(332,94,cs),
(315,139,l),
(297,139,l),
(291,34,l),
(320,4,o),
(376,-16,o),
(424,-16,cs)
);
},
{
closed = 1;
nodes = (
(199,0,l),
(199,50,l),
(109,50,l),
(18,20,l),
(18,0,l)
);
},
{
closed = 1;
nodes = (
(199,50,l),
(199,598,l),
(109,566,l),
(109,50,l)
);
},
{
closed = 1;
nodes = (
(161,462,l),
(161,502,l),
(2,502,l),
(0,462,l)
);
}
);
width = 590;
},
{
layerId = m002;
shapes = (
{
closed = 1;
nodes = (
(518,-18,o),
(591,39,o),
(591,130,cs),
(591,335,o),
(369,300,o),
(369,400,cs),
(369,497,o),
(517,534,o),
(517,634,cs),
(517,754,o),
(448,816,o),
(328,816,cs),
(184,816,o),
(76,708,o),
(83,552,c),
(225,602,l),
(226,716,o),
(266,785,o),
(299,785,cs),
(323,785,o),
(393,693,o),
(393,611,cs),
(393,527,o),
(259,478,o),
(259,380,cs),
(259,175,o),
(490,210,o),
(490,110,cs),
(490,48,o),
(461,21,o),
(424,21,cs),
(401,21,o),
(355,35,o),
(346,95,cs),
(339,141,l),
(291,141,l),
(285,42,l),
(299,14,o),
(361,-18,o),
(424,-18,cs)
);
},
{
closed = 1;
nodes = (
(225,-2,l),
(225,52,l),
(101,52,l),
(-8,16,l),
(-8,-2,l)
);
},
{
closed = 1;
nodes = (
(225,48,l),
(225,612,l),
(83,562,l),
(83,48,l)
);
},
{
closed = 1;
nodes = (
(187,460,l),
(187,504,l),
(-4,504,l),
(-6,460,l)
);
}
);
width = 590;
}
);
unicode = 223;
},
{
glyphname = t;
layers = (
{
layerId = m01;
shapes = (
{
closed = 1;
nodes = (
(268,-15,o),
(343,13,o),
(386,53,c),
(367,81,l),
(334,53,o),
(295,34,o),
(259,34,cs),
(228,34,o),
(198,70,o),
(198,134,cs),
(198,660,l),
(111,597,l),
(111,99,ls),
(111,32,o),
(150,-15,o),
(204,-15,cs)
);
},
{
closed = 1;
nodes = (
(342,462,l),
(342,502,l),
(23,502,l),
(21,462,l)
);
}
);
width = 392;
},
{
layerId = m002;
shapes = (
{
closed = 1;
nodes = (
(279,-17,o),
(361,38,o),
(397,75,c),
(374,104,l),
(320,54,o),
(289,36,o),
(267,36,cs),
(247,36,o),
(224,64,o),
(224,134,cs),
(224,691,l),
(85,591,l),
(85,99,ls),
(85,27,o),
(136,-17,o),
(204,-17,cs)
);
},
{
closed = 1;
nodes = (
(368,460,l),
(368,504,l),
(-3,504,l),
(-5,460,l)
);
}
);
width = 392;
}
);
unicode = 116;
},
{
glyphname = u;
layers = (
{
layerId = m01;
shapes = (
{
closed = 1;
nodes = (
(304,-15,o),
(373,38,o),
(419,85,c),
(416,133,l),
(376,88,o),
(322,37,o),
(277,37,cs),
(215,37,o),
(176,85,o),
(176,162,cs),
(176,500,l),
(-5,500,l),
(-5,480,l),
(86,450,l),
(86,134,ls),
(86,47,o),
(154,-15,o),
(246,-15,cs)
);
},
{
closed = 1;
nodes = (
(596,19,l),
(596,35,l),
(492,47,l),
(492,500,l),
(326,500,l),
(326,470,l),
(402,450,l),
(402,86,l),
(409,-10,l),
(419,-16,l)
);
}
);
width = 591;
},
{
layerId = m002;
shapes = (
{
closed = 1;
nodes = (
(327,-17,o),
(408,83,o),
(445,123,c),
(439,182,l),
(349,81,o),
(305,39,o),
(277,39,cs),
(235,39,o),
(202,79,o),
(202,162,cs),
(202,502,l),
(-31,502,l),
(-31,484,l),
(60,454,l),
(60,134,ls),
(60,46,o),
(141,-17,o),
(246,-17,cs)
);
},
{
closed = 1;
nodes = (
(622,21,l),
(622,34,l),
(518,46,l),
(518,502,l),
(300,502,l),
(300,473,l),
(376,453,l),
(376,86,l),
(383,-4,l),
(396,-21,l)
);
}
);
width = 591;
}
);
unicode = 117;
},
{
glyphname = v;
layers = (
{
layerId = m01;
shapes = (
{
closed = 1;
nodes = (
(282,115,l),
(137,500,l),
(-18,500,l),
(-18,480,l),
(58,449,l),
(240,-26,l)
);
},
{
closed = 1;
nodes = (
(444,446,l),
(522,480,l),
(522,500,l),
(318,500,l),
(318,480,l),
(387,448,l),
(240,62,l),
(240,-26,l)
);
}
);
width = 500;
},
{
layerId = m002;
shapes = (
{
closed = 1;
nodes = (
(307,114,l),
(161,502,l),
(-44,502,l),
(-44,485,l),
(32,454,l),
(243,-37,l)
);
},
{
closed = 1;
nodes = (
(470,451,l),
(548,485,l),
(548,502,l),
(292,502,l),
(292,485,l),
(364,452,l),
(214,58,l),
(243,-37,l)
);
}
);
width = 500;
}
);
unicode = 118;
},
{
glyphname = w;
layers = (
{
layerId = m01;
shapes = (
{
closed = 1;
nodes = (
(259,129,l),
(143,500,l),
(-8,500,l),
(-8,480,l),
(69,448,l),
(220,-26,l)
);
},
{
closed = 1;
nodes = (
(370,413,l),
(398,500,l),
(288,500,l),
(288,480,l),
(351,480,l),
(220,72,l),
(220,-26,l)
);
},
{
closed = 1;
nodes = (
(535,151,l),
(418,500,l),
(288,500,l),
(288,480,l),
(346,464,l),
(496,-26,l)
);
},
{
closed = 1;
nodes = (
(664,448,l),
(738,480,l),
(738,500,l),
(534,500,l),
(534,480,l),
(614,449,l),
(496,72,l),
(496,-26,l)
);
}
);
width = 726;
},
{
layerId = m002;
shapes = (
{
closed = 1;
nodes = (
(284,128,l),
(167,502,l),
(-34,502,l),
(-34,485,l),
(42,453,l),
(223,-26,l)
);
},
{
closed = 1;
nodes = (
(395,412,l),
(424,502,l),
(262,502,l),
(262,478,l),
(325,478,l),
(194,69,l),
(223,-26,l)
);
},
{
closed = 1;
nodes = (
(560,150,l),
(442,502,l),
(262,502,l),
(262,483,l),
(320,467,l),
(500,-34,l)
);
},
{
closed = 1;
nodes = (
(691,453,l),
(764,485,l),
(764,502,l),
(508,502,l),
(508,485,l),
(590,453,l),
(470,69,l),
(500,-34,l)
);
}
);
width = 726;
}
);
unicode = 119;
},
{
glyphname = x;
layers = (
{
layerId = m01;
shapes = (
{
closed = 1;
nodes = (
(554,0,l),
(554,17,l),
(481,43,l),
(180,500,l),
(25,500,l),
(25,483,l),
(104,450,l),
(398,0,l)
);
},
{
closed = 1;
nodes = (
(207,0,l),
(207,22,l),
(148,47,l),
(297,262,l),
(274,290,l),
(85,47,l),
(25,22,l),
(25,0,l)
);
},
{
closed = 1;
nodes = (
(477,458,l),
(533,478,l),
(533,500,l),
(350,500,l),
(350,478,l),
(414,458,l),
(274,272,l),
(296,243,l)
);
}
);
width = 563;
},
{
layerId = m002;
shapes = (
{
closed = 1;
nodes = (
(580,-2,l),
(580,13,l),
(506,39,l),
(201,502,l),
(-1,502,l),
(-1,488,l),
(79,455,l),
(377,-2,l)
);
},
{
closed = 1;
nodes = (
(233,-2,l),
(233,17,l),
(168,44,l),
(319,261,l),
(273,317,l),
(60,43,l),
(-1,17,l),
(-1,-2,l)
);
},
{
closed = 1;
nodes = (
(501,462,l),
(559,482,l),
(559,502,l),
(324,502,l),
(324,482,l),
(394,460,l),
(252,272,l),
(295,216,l)
);
}
);
width = 563;
}
);
unicode = 120;
},
{
glyphname = y;
layers = (
{
background = {
shapes = (
{
closed = 1;
nodes = (
(496,462,l),
(571,480,l),
(571,500,l),
(362,500,l),
(362,481,l),
(443,463,l),
(316,145,l),
(165,500,l),
(11,500,l),
(11,479,l),
(85,450,l),
(263,23,l),
(230,-59,o),
(208,-125,o),
(183,-160,cs),
(161,-189,o),
(142,-193,o),
(145,-205,cs),
(148,-217,o),
(181,-223,o),
(208,-189,cs),
(238,-150,o),
(265,-83,o),
(300,0,cs)
);
},
{
closed = 1;
nodes = (
(141,-192,o),
(121,-190,o),
(102,-164,cs),
(93,-152,o),
(85,-136,o),
(79,-117,cs),
(67,-77,o),
(61,-57,o),
(51,-57,cs),
(42,-57,o),
(36,-80,o),
(36,-122,cs),
(36,-157,o),
(48,-183,o),
(79,-201,cs),
(82,-203,o),
(86,-205,o),
(90,-207,cs),
(121,-222,o),
(148,-215,o),
(145,-205,cs)
);
}
);
};
layerId = m01;
shapes = (
{
closed = 1;
nodes = (
(491,450,l),
(571,480,l),
(571,500,l),
(362,500,l),
(362,481,l),
(435,451,l),
(316,145,l),
(165,500,l),
(11,500,l),
(11,479,l),
(85,450,l),
(263,23,l),
(300,0,l)
);
},
{
closed = 1;
nodes = (
(209,-216,l),
(300,0,l),
(263,23,l),
(153,-167,l),
(66,-194,l),
(66,-216,l)
);
}
);
width = 580;
},
{
background = {
shapes = (
{
closed = 1;
nodes = (
(496,462,l),
(571,480,l),
(571,500,l),
(362,500,l),
(362,481,l),
(443,463,l),
(316,145,l),
(165,500,l),
(11,500,l),
(11,479,l),
(85,450,l),
(263,23,l),
(230,-59,o),
(208,-125,o),
(183,-160,cs),
(161,-189,o),
(142,-193,o),
(145,-205,cs),
(148,-217,o),
(181,-223,o),
(208,-189,cs),
(238,-150,o),
(265,-83,o),
(300,0,cs)
);
},
{
closed = 1;
nodes = (
(141,-192,o),
(121,-190,o),
(102,-164,cs),
(93,-152,o),
(85,-136,o),
(79,-117,cs),
(67,-77,o),
(61,-57,o),
(51,-57,cs),
(42,-57,o),
(36,-80,o),
(36,-122,cs),
(36,-157,o),
(48,-183,o),
(79,-201,cs),
(82,-203,o),
(86,-205,o),
(90,-207,cs),
(121,-222,o),
(148,-215,o),
(145,-205,cs)
);
}
);
};
layerId = m002;
shapes = (
{
closed = 1;
nodes = (
(517,455,l),
(597,484,l),
(597,502,l),
(336,502,l),
(336,486,l),
(412,455,l),
(315,205,l),
(188,502,l),
(-15,502,l),
(-15,484,l),
(59,455,l),
(236,30,l),
(316,-20,l)
);
},
{
closed = 1;
nodes = (
(232,-218,l),
(323,-4,l),
(236,30,l),
(128,-170,l),
(40,-198,l),
(40,-218,l)
);
}
);
width = 580;
}
);
unicode = 121;
},
{
glyphname = z;
layers = (
{
layerId = m01;
shapes = (
{
closed = 1;
nodes = (
(455,2,l),
(455,170,l),
(430,170,l),
(396,42,l),
(146,42,l),
(451,471,l),
(442,501,l),
(62,501,l),
(62,323,l),
(87,323,l),
(126,461,l),
(338,461,l),
(40,41,l),
(40,2,l)
);
}
);
width = 495;
},
{
layerId = m002;
shapes = (
{
closed = 1;
nodes = (
(481,0,l),
(481,172,l),
(425,172,l),
(391,44,l),
(169,44,l),
(475,474,l),
(466,503,l),
(36,503,l),
(36,321,l),
(92,321,l),
(131,459,l),
(315,459,l),
(14,35,l),
(14,0,l)
);
}
);
width = 495;
}
);
unicode = 122;
},
{
color = 3;
glyphname = pi;
layers = (
{
layerId = m01;
shapes = (
{
closed = 1;
nodes = (
(33,500,l),
(567,500,l),
(567,440,l),
(464,440,l),
(464,332,o),
(464,117,o),
(464,96,cs),
(464,74,o),
(480,60,o),
(505,60,cs),
(567,60,l),
(567,0,l),
(527,0,o),
(532,0,o),
(505,0,cs),
(431,0,o),
(384,37,o),
(384,96,cs),
(384,440,l),
(216,440,l),
(216,0,l),
(136,0,l),
(136,440,l),
(35,440,l),
(35,499,l)
);
}
);
width = 600;
},
{
layerId = m002;
width = 600;
}
);
unicode = 960;
},
{
glyphname = zero;
layers = (
{
layerId = m01;
shapes = (
{
closed = 1;
nodes = (
(448,-15,o),
(523,132,o),
(523,367,cs),
(523,582,o),
(448,717,o),
(297,717,cs),
(143,717,o),
(57,578,o),
(57,357,cs),
(57,128,o),
(143,-15,o),
(297,-15,cs)
);
},
{
closed = 1;
nodes = (
(203,18,o),
(161,139,o),
(161,385,cs),
(161,585,o),
(195,683,o),
(284,683,cs),
(388,683,o),
(419,569,o),
(419,336,cs),
(419,122,o),
(397,18,o),
(310,18,cs)
);
}
);
width = 580;
},
{
layerId = m002;
shapes = (
{
closed = 1;
nodes = (
(472,-17,o),
(549,132,o),
(549,367,cs),
(549,580,o),
(473,719,o),
(297,719,cs),
(121,719,o),
(31,578,o),
(31,357,cs),
(31,128,o),
(120,-17,o),
(297,-17,cs)
);
},
{
closed = 1;
nodes = (
(227,20,o),
(187,136,o),
(187,385,cs),
(187,588,o),
(219,681,o),
(284,681,cs),
(363,681,o),
(393,572,o),
(393,336,cs),
(393,120,o),
(372,20,o),
(310,20,cs)
);
}
);
width = 600;
}
);
unicode = 48;
},
{
glyphname = one;
layers = (
{
layerId = m01;
shapes = (
{
closed = 1;
nodes = (
(351,0,l),
(353,700,l),
(334,716,l),
(103,571,l),
(128,528,l),
(262,612,l),
(262,0,l)
);
},
{
closed = 1;
nodes = (
(472,0,l),
(472,50,l),
(141,50,l),
(141,0,l)
);
}
);
width = 580;
},
{
layerId = m002;
shapes = (
{
closed = 1;
nodes = (
(377,-2,l),
(379,694,l),
(338,729,l),
(82,568,l),
(116,510,l),
(236,585,l),
(236,-2,l)
);
},
{
closed = 1;
nodes = (
(498,-2,l),
(498,52,l),
(115,52,l),
(115,-2,l)
);
}
);
width = 600;
}
);
unicode = 49;
},
{
glyphname = two;
layers = (
{
layerId = m01;
shapes = (
{
closed = 1;
nodes = (
(511,0,l),
(536,167,l),
(507,174,l),
(447,80,l),
(167,80,l),
(303,240,o),
(504,315,o),
(504,539,cs),
(504,641,o),
(407,714,o),
(269,715,c),
(269,666,l),
(346,666,o),
(400,603,o),
(400,515,cs),
(400,337,o),
(206,200,o),
(70,40,c),
(70,0,l)
);
},
{
closed = 1;
nodes = (
(131,456,l),
(131,579,o),
(188,666,o),
(269,666,c),
(269,715,l),
(211,715,o),
(133,679,o),
(79,627,c),
(79,456,l)
);
}
);
width = 580;
},
{
layerId = m002;
shapes = (
{
closed = 1;
nodes = (
(536,-2,l),
(561,164,l),
(509,182,l),
(446,82,l),
(190,82,l),
(278,186,o),
(530,334,o),
(530,539,cs),
(530,644,o),
(436,716,o),
(271,716,c),
(271,663,l),
(342,663,o),
(374,623,o),
(374,515,cs),
(374,325,o),
(122,130,o),
(44,34,c),
(44,-2,l)
);
},
{
closed = 1;
nodes = (
(137,454,l),
(156,602,o),
(201,663,o),
(271,663,c),
(271,716,l),
(196,716,o),
(105,677,o),
(53,620,c),
(53,454,l)
);
}
);
width = 600;
}
);
unicode = 50;
},
{
glyphname = three;
layers = (
{
layerId = m01;
shapes = (
{
closed = 1;
nodes = (
(413,-14,o),
(527,89,o),
(527,234,cs),
(527,408,o),
(405,468,o),
(233,380,c),
(229,338,l),
(346,391,o),
(428,335,o),
(428,202,cs),
(428,99,o),
(364,26,o),
(273,26,cs),
(180,26,o),
(115,100,o),
(115,205,c),
(73,205,l),
(73,54,l),
(112,14,o),
(186,-14,o),
(253,-14,cs)
);
},
{
closed = 1;
nodes = (
(375,398,o),
(479,495,o),
(479,572,cs),
(479,657,o),
(398,717,o),
(283,717,cs),
(214,717,o),
(127,680,o),
(72,627,c),
(99,580,l),
(139,630,o),
(207,666,o),
(263,666,cs),
(332,666,o),
(380,615,o),
(380,544,cs),
(380,475,o),
(312,406,o),
(216,377,c),
(229,338,l)
);
}
);
width = 580;
},
{
layerId = m002;
shapes = (
{
closed = 1;
nodes = (
(424,-16,o),
(553,87,o),
(553,234,cs),
(553,407,o),
(397,479,o),
(207,374,c),
(209,324,l),
(336,380,o),
(402,358,o),
(402,202,cs),
(402,93,o),
(345,28,o),
(273,28,cs),
(192,28,o),
(129,102,o),
(121,207,c),
(57,207,l),
(57,61,l),
(84,23,o),
(171,-16,o),
(253,-16,cs)
);
},
{
closed = 1;
nodes = (
(388,391,o),
(505,495,o),
(505,572,cs),
(505,655,o),
(411,719,o),
(283,719,cs),
(202,719,o),
(99,674,o),
(50,625,c),
(96,545,l),
(145,624,o),
(211,664,o),
(263,664,cs),
(314,664,o),
(354,621,o),
(354,544,cs),
(354,464,o),
(281,395,o),
(192,375,c),
(209,324,l)
);
}
);
width = 600;
}
);
unicode = 51;
},
{
glyphname = four;
layers = (
{
layerId = m01;
shapes = (
{
closed = 1;
nodes = (
(434,0,l),
(436,698,l),
(405,722,l),
(37,230,l),
(37,185,l),
(537,185,l),
(537,256,l),
(120,256,l),
(344,561,l),
(344,0,l)
);
}
);
width = 580;
},
{
layerId = m002;
shapes = (
{
closed = 1;
nodes = (
(318,496,l),
(143,258,l),
(552,258,l),
(552,183,l),
(11,183,l),
(11,224,l),
(398,741,l),
(462,692,l),
(460,-2,l),
(318,-2,l)
);
}
);
width = 600;
}
);
unicode = 52;
},
{
glyphname = five;
layers = (
{
layerId = m01;
shapes = (
{
closed = 1;
nodes = (
(410,-14,o),
(512,96,o),
(512,251,cs),
(512,375,o),
(418,462,o),
(286,462,cs),
(233,462,o),
(181,451,o),
(161,435,c),
(181,620,l),
(416,620,l),
(444,542,l),
(482,542,l),
(462,700,l),
(135,700,l),
(99,349,l),
(109,341,l),
(151,374,o),
(208,397,o),
(246,397,cs),
(344,397,o),
(413,323,o),
(413,219,cs),
(413,103,o),
(360,21,o),
(286,21,cs),
(212,21,o),
(136,106,o),
(126,184,c),
(104,184,l),
(80,74,l),
(130,22,o),
(207,-14,o),
(266,-14,cs)
);
}
);
width = 580;
},
{
layerId = m002;
shapes = (
{
closed = 1;
nodes = (
(422,-16,o),
(538,91,o),
(538,251,cs),
(538,375,o),
(432,464,o),
(286,464,cs),
(253,464,o),
(217,459,o),
(189,453,c),
(207,618,l),
(401,618,l),
(429,540,l),
(498,540,l),
(478,702,l),
(109,702,l),
(74,355,l),
(109,326,l),
(163,373,o),
(214,395,o),
(246,395,cs),
(326,395,o),
(387,329,o),
(387,219,cs),
(387,98,o),
(339,23,o),
(286,23,cs),
(208,23,o),
(144,90,o),
(132,184,c),
(79,186,l),
(56,79,l),
(98,30,o),
(192,-16,o),
(266,-16,cs)
);
}
);
width = 600;
}
);
unicode = 53;
},
{
glyphname = six;
layers = (
{
layerId = m01;
shapes = (
{
closed = 1;
nodes = (
(434,-13,o),
(526,87,o),
(526,228,cs),
(526,342,o),
(439,422,o),
(315,422,cs),
(237,422,o),
(156,364,o),
(119,282,c),
(139,268,l),
(159,329,o),
(224,372,o),
(295,372,cs),
(378,372,o),
(437,297,o),
(437,190,cs),
(437,89,o),
(390,18,o),
(324,18,cs),
(231,18,o),
(166,148,o),
(166,332,c),
(172,477,o),
(294,618,o),
(461,673,c),
(455,715,l),
(230,661,o),
(70,485,o),
(70,290,cs),
(70,113,o),
(167,-13,o),
(305,-13,cs)
);
}
);
width = 580;
},
{
layerId = m002;
shapes = (
{
closed = 1;
nodes = (
(446,-15,o),
(552,82,o),
(552,228,cs),
(552,345,o),
(450,424,o),
(315,424,cs),
(221,424,o),
(131,359,o),
(97,286,c),
(164,267,l),
(186,336,o),
(238,370,o),
(295,370,cs),
(358,370,o),
(411,303,o),
(411,190,cs),
(411,84,o),
(369,20,o),
(324,20,cs),
(254,20,o),
(192,143,o),
(192,332,c),
(198,489,o),
(327,631,o),
(486,676,c),
(480,724,l),
(219,673,o),
(44,488,o),
(44,290,cs),
(44,116,o),
(145,-15,o),
(305,-15,cs)
);
}
);
width = 600;
}
);
unicode = 54;
},
{
glyphname = seven;
layers = (
{
layerId = m01;
shapes = (
{
closed = 1;
nodes = (
(234,0,l),
(545,683,l),
(528,700,l),
(98,700,l),
(78,507,l),
(126,507,l),
(154,610,l),
(449,610,l),
(125,0,l)
);
}
);
width = 580;
},
{
layerId = m002;
shapes = (
{
closed = 1;
nodes = (
(257,-2,l),
(568,680,l),
(546,702,l),
(72,702,l),
(52,505,l),
(121,505,l),
(149,608,l),
(424,608,l),
(100,-2,l)
);
}
);
width = 600;
}
);
unicode = 55;
},
{
glyphname = eight;
layers = (
{
layerId = m01;
shapes = (
{
closed = 1;
nodes = (
(428,-15,o),
(522,70,o),
(522,190,cs),
(522,191,l),
(425,169,l),
(424,82,o),
(370,20,o),
(294,20,cs),
(222,20,o),
(171,90,o),
(171,188,cs),
(171,373,o),
(486,341,o),
(486,544,cs),
(486,644,o),
(405,715,o),
(291,715,cs),
(176,715,o),
(94,642,o),
(94,538,c),
(179,556,l),
(179,629,o),
(225,680,o),
(291,680,cs),
(356,680,o),
(402,620,o),
(402,534,cs),
(402,352,o),
(74,372,o),
(74,172,cs),
(74,62,o),
(165,-15,o),
(294,-15,cs)
);
},
{
closed = 1;
nodes = (
(522,190,l),
(522,363,o),
(179,427,o),
(179,556,c),
(94,538,l),
(94,373,o),
(425,299,o),
(425,169,c)
);
}
);
width = 580;
},
{
layerId = m002;
shapes = (
{
closed = 1;
nodes = (
(443,-17,o),
(548,69,o),
(548,190,cs),
(548,196,l),
(399,163,l),
(397,80,o),
(354,22,o),
(294,22,cs),
(237,22,o),
(197,91,o),
(197,188,cs),
(197,381,o),
(512,357,o),
(512,544,cs),
(512,645,o),
(420,717,o),
(291,717,cs),
(160,717,o),
(68,640,o),
(68,532,c),
(205,561,l),
(206,630,o),
(242,678,o),
(291,678,cs),
(341,678,o),
(376,618,o),
(376,534,cs),
(376,341,o),
(48,363,o),
(48,172,cs),
(48,61,o),
(150,-17,o),
(294,-17,cs)
);
},
{
closed = 1;
nodes = (
(548,196,l),
(544,376,o),
(205,399,o),
(205,561,c),
(68,532,l),
(68,370,o),
(409,302,o),
(399,163,c)
);
}
);
width = 600;
}
);
unicode = 56;
},
{
glyphname = nine;
layers = (
{
layerId = m01;
shapes = (
{
closed = 1;
nodes = (
(352,42,o),
(512,218,o),
(512,413,cs),
(512,590,o),
(415,716,o),
(277,716,cs),
(148,716,o),
(56,616,o),
(56,475,cs),
(56,361,o),
(143,281,o),
(267,281,cs),
(345,281,o),
(426,339,o),
(463,421,c),
(443,435,l),
(423,374,o),
(358,331,o),
(287,331,cs),
(204,331,o),
(145,406,o),
(145,513,cs),
(145,614,o),
(192,685,o),
(258,685,cs),
(351,685,o),
(416,555,o),
(416,371,c),
(410,226,o),
(288,85,o),
(121,30,c),
(127,-12,l)
);
}
);
width = 580;
},
{
layerId = m002;
shapes = (
{
closed = 1;
nodes = (
(363,30,o),
(538,215,o),
(538,413,cs),
(538,587,o),
(437,718,o),
(277,718,cs),
(136,718,o),
(30,621,o),
(30,475,cs),
(30,358,o),
(132,279,o),
(267,279,cs),
(361,279,o),
(451,344,o),
(485,417,c),
(418,436,l),
(396,367,o),
(344,333,o),
(287,333,cs),
(224,333,o),
(171,400,o),
(171,513,cs),
(171,619,o),
(213,683,o),
(258,683,cs),
(328,683,o),
(390,560,o),
(390,371,c),
(384,214,o),
(255,72,o),
(96,27,c),
(102,-21,l)
);
}
);
width = 600;
}
);
unicode = 57;
},
{
color = 3;
glyphname = fraction;
layers = (
{
layerId = m01;
shapes = (
{
closed = 1;
nodes = (
(40,0,l),
(100,0,l),
(570,700,l),
(510,700,l)
);
}
);
width = 600;
},
{
layerId = m002;
width = 600;
}
);
unicode = 8260;
},
{
color = 3;
glyphname = "leftanglebracket-math";
layers = (
{
layerId = m01;
shapes = (
{
closed = 1;
nodes = (
(180,292,l),
(421,-96,l),
(421,-20,l),
(227,292,l),
(421,597,l),
(421,681,l)
);
}
);
width = 600;
},
{
layerId = m002;
width = 600;
}
);
unicode = 10216;
},
{
color = 3;
glyphname = "rightanglebracket-math";
layers = (
{
layerId = m01;
shapes = (
{
closed = 1;
nodes = (
(180,597,l),
(374,292,l),
(180,-20,l),
(180,-96,l),
(421,292,l),
(180,681,l)
);
}
);
width = 600;
},
{
layerId = m002;
width = 600;
}
);
unicode = 10217;
},
{
glyphname = period;
layers = (
{
layerId = m01;
shapes = (
{
closed = 1;
nodes = (
(177,-14,o),
(204,13,o),
(204,47,cs),
(204,81,o),
(177,108,o),
(144,108,cs),
(109,108,o),
(82,81,o),
(82,47,cs),
(82,13,o),
(109,-14,o),
(144,-14,cs)
);
}
);
width = 286;
},
{
layerId = m002;
shapes = (
{
closed = 1;
nodes = (
(194,-16,o),
(230,18,o),
(230,67,cs),
(230,116,o),
(194,150,o),
(144,150,cs),
(92,150,o),
(56,116,o),
(56,67,cs),
(56,18,o),
(92,-16,o),
(144,-16,cs)
);
}
);
width = 286;
}
);
unicode = 46;
},
{
glyphname = comma;
layers = (
{
background = {
shapes = (
{
closed = 1;
nodes = (
(117,-132,o),
(133,-109,o),
(148,-65,cs),
(156,-42,ls),
(169,-5,o),
(168,18,o),
(152,28,cs),
(138,37,o),
(121,13,o),
(109,-33,cs),
(102,-58,ls),
(92,-95,o),
(94,-116,o),
(106,-125,cs)
);
}
);
};
layerId = m01;
shapes = (
{
closed = 1;
nodes = (
(179,22,l),
(139,37,l),
(19,-170,l),
(45,-174,l)
);
},
{
closed = 1;
nodes = (
(157,-14,o),
(184,13,o),
(184,47,cs),
(184,81,o),
(157,108,o),
(124,108,cs),
(89,108,o),
(62,81,o),
(62,47,cs),
(62,13,o),
(89,-14,o),
(124,-14,cs)
);
}
);
width = 286;
},
{
background = {
shapes = (
{
closed = 1;
nodes = (
(117,-132,o),
(133,-109,o),
(148,-65,cs),
(156,-42,ls),
(169,-5,o),
(168,18,o),
(152,28,cs),
(138,37,o),
(121,13,o),
(109,-33,cs),
(102,-58,ls),
(92,-95,o),
(94,-116,o),
(106,-125,cs)
);
}
);
};
layerId = m002;
shapes = (
{
closed = 1;
nodes = (
(200,20,l),
(123,68,l),
(-4,-169,l),
(64,-179,l)
);
},
{
closed = 1;
nodes = (
(174,-16,o),
(210,18,o),
(210,67,cs),
(210,116,o),
(174,150,o),
(124,150,cs),
(72,150,o),
(36,116,o),
(36,67,cs),
(36,18,o),
(72,-16,o),
(124,-16,cs)
);
}
);
width = 286;
}
);
unicode = 44;
},
{
glyphname = colon;
layers = (
{
layerId = m01;
shapes = (
{
closed = 1;
nodes = (
(177,356,o),
(204,383,o),
(204,417,cs),
(204,451,o),
(177,478,o),
(144,478,cs),
(109,478,o),
(82,451,o),
(82,417,cs),
(82,383,o),
(109,356,o),
(144,356,cs)
);
},
{
closed = 1;
nodes = (
(177,-14,o),
(204,13,o),
(204,47,cs),
(204,81,o),
(177,108,o),
(144,108,cs),
(109,108,o),
(82,81,o),
(82,47,cs),
(82,13,o),
(109,-14,o),
(144,-14,cs)
);
}
);
width = 286;
},
{
layerId = m002;
shapes = (
{
closed = 1;
nodes = (
(194,314,o),
(230,348,o),
(230,397,cs),
(230,446,o),
(194,480,o),
(144,480,cs),
(92,480,o),
(56,446,o),
(56,397,cs),
(56,348,o),
(92,314,o),
(144,314,cs)
);
},
{
closed = 1;
nodes = (
(194,-16,o),
(230,18,o),
(230,67,cs),
(230,116,o),
(194,150,o),
(144,150,cs),
(92,150,o),
(56,116,o),
(56,67,cs),
(56,18,o),
(92,-16,o),
(144,-16,cs)
);
}
);
width = 286;
}
);
unicode = 58;
},
{
glyphname = semicolon;
layers = (
{
layerId = m01;
shapes = (
{
closed = 1;
nodes = (
(189,22,l),
(149,37,l),
(29,-170,l),
(55,-174,l)
);
},
{
closed = 1;
nodes = (
(167,-14,o),
(194,13,o),
(194,47,cs),
(194,81,o),
(167,108,o),
(134,108,cs),
(99,108,o),
(72,81,o),
(72,47,cs),
(72,13,o),
(99,-14,o),
(134,-14,cs)
);
},
{
closed = 1;
nodes = (
(164,356,o),
(191,383,o),
(191,417,cs),
(191,451,o),
(164,478,o),
(131,478,cs),
(96,478,o),
(69,451,o),
(69,417,cs),
(69,383,o),
(96,356,o),
(131,356,cs)
);
}
);
width = 286;
},
{
layerId = m002;
shapes = (
{
closed = 1;
nodes = (
(210,20,l),
(133,68,l),
(6,-169,l),
(74,-179,l)
);
},
{
closed = 1;
nodes = (
(184,-16,o),
(220,18,o),
(220,67,cs),
(220,116,o),
(184,150,o),
(134,150,cs),
(82,150,o),
(46,116,o),
(46,67,cs),
(46,18,o),
(82,-16,o),
(134,-16,cs)
);
},
{
closed = 1;
nodes = (
(181,314,o),
(217,348,o),
(217,397,cs),
(217,446,o),
(181,480,o),
(131,480,cs),
(79,480,o),
(43,446,o),
(43,397,cs),
(43,348,o),
(79,314,o),
(131,314,cs)
);
}
);
width = 286;
}
);
unicode = 59;
},
{
glyphname = exclam;
layers = (
{
layerId = m01;
shapes = (
{
closed = 1;
nodes = (
(201,221,l),
(221,722,l),
(121,708,l),
(143,209,l)
);
},
{
closed = 1;
nodes = (
(207,-14,o),
(234,13,o),
(234,47,cs),
(234,81,o),
(207,108,o),
(174,108,cs),
(139,108,o),
(112,81,o),
(112,47,cs),
(112,13,o),
(139,-14,o),
(174,-14,cs)
);
}
);
width = 346;
},
{
layerId = m002;
shapes = (
{
closed = 1;
nodes = (
(227,263,l),
(247,728,l),
(95,707,l),
(117,241,l)
);
},
{
closed = 1;
nodes = (
(224,-16,o),
(260,18,o),
(260,67,cs),
(260,116,o),
(224,150,o),
(174,150,cs),
(122,150,o),
(86,116,o),
(86,67,cs),
(86,18,o),
(122,-16,o),
(174,-16,cs)
);
}
);
width = 346;
}
);
unicode = 33;
},
{
glyphname = exclamdown;
layers = (
{
layerId = m01;
shapes = (
{
closed = 1;
nodes = (
(225,8,l),
(203,507,l),
(145,495,l),
(125,-6,l)
);
},
{
closed = 1;
nodes = (
(207,608,o),
(234,635,o),
(234,669,cs),
(234,703,o),
(207,730,o),
(172,730,cs),
(139,730,o),
(112,703,o),
(112,669,cs),
(112,635,o),
(139,608,o),
(172,608,cs)
);
}
);
width = 346;
},
{
layerId = m002;
shapes = (
{
closed = 1;
nodes = (
(251,9,l),
(229,475,l),
(119,453,l),
(99,-12,l)
);
},
{
closed = 1;
nodes = (
(224,566,o),
(260,600,o),
(260,649,cs),
(260,698,o),
(224,732,o),
(172,732,cs),
(122,732,o),
(86,698,o),
(86,649,cs),
(86,600,o),
(122,566,o),
(172,566,cs)
);
}
);
width = 346;
}
);
unicode = 161;
},
{
glyphname = question;
layers = (
{
layerId = m01;
shapes = (
{
closed = 1;
nodes = (
(317,246,l),
(317,266,ls),
(317,428,o),
(486,447,o),
(486,539,cs),
(486,649,o),
(395,716,o),
(266,716,cs),
(189,716,o),
(112,694,o),
(79,662,c),
(79,518,l),
(107,518,l),
(132,614,o),
(198,682,o),
(266,682,cs),
(341,682,o),
(394,637,o),
(394,574,cs),
(394,467,o),
(229,417,o),
(229,230,cs),
(229,223,l)
);
},
{
closed = 1;
nodes = (
(304,-14,o),
(331,13,o),
(331,47,cs),
(331,81,o),
(304,108,o),
(271,108,cs),
(236,108,o),
(209,81,o),
(209,47,cs),
(209,13,o),
(236,-14,o),
(271,-14,cs)
);
}
);
width = 560;
},
{
layerId = m002;
shapes = (
{
closed = 1;
nodes = (
(343,289,l),
(343,306,ls),
(343,469,o),
(512,448,o),
(512,539,cs),
(512,649,o),
(406,718,o),
(266,718,cs),
(171,718,o),
(67,685,o),
(53,653,c),
(53,516,l),
(132,516,l),
(159,621,o),
(216,680,o),
(266,680,cs),
(325,680,o),
(368,643,o),
(368,574,cs),
(368,457,o),
(203,459,o),
(203,270,cs),
(203,253,l)
);
},
{
closed = 1;
nodes = (
(321,-16,o),
(357,18,o),
(357,67,cs),
(357,116,o),
(321,150,o),
(271,150,cs),
(219,150,o),
(183,116,o),
(183,67,cs),
(183,18,o),
(219,-16,o),
(271,-16,cs)
);
}
);
width = 560;
}
);
unicode = 63;
},
{
glyphname = questiondown;
layers = (
{
layerId = m01;
shapes = (
{
closed = 1;
nodes = (
(387,-18,o),
(464,4,o),
(497,36,c),
(497,180,l),
(469,180,l),
(444,84,o),
(378,16,o),
(310,16,cs),
(235,16,o),
(182,61,o),
(182,124,cs),
(182,231,o),
(347,281,o),
(347,468,cs),
(347,475,l),
(259,452,l),
(259,432,ls),
(259,270,o),
(90,251,o),
(90,159,cs),
(90,49,o),
(181,-18,o),
(310,-18,cs)
);
},
{
closed = 1;
nodes = (
(340,590,o),
(367,617,o),
(367,651,cs),
(367,685,o),
(340,712,o),
(305,712,cs),
(272,712,o),
(245,685,o),
(245,651,cs),
(245,617,o),
(272,590,o),
(305,590,cs)
);
}
);
width = 600;
},
{
layerId = m002;
shapes = (
{
closed = 1;
nodes = (
(405,-20,o),
(509,13,o),
(523,45,c),
(523,182,l),
(444,182,l),
(417,77,o),
(360,18,o),
(310,18,cs),
(251,18,o),
(208,55,o),
(208,124,cs),
(208,241,o),
(373,239,o),
(373,428,cs),
(373,445,l),
(233,409,l),
(233,392,ls),
(233,229,o),
(64,250,o),
(64,159,cs),
(64,49,o),
(170,-20,o),
(310,-20,cs)
);
},
{
closed = 1;
nodes = (
(357,548,o),
(393,582,o),
(393,631,cs),
(393,680,o),
(357,714,o),
(305,714,cs),
(255,714,o),
(219,680,o),
(219,631,cs),
(219,582,o),
(255,548,o),
(305,548,cs)
);
}
);
width = 600;
}
);
unicode = 191;
},
{
glyphname = periodcentered;
layers = (
{
layerId = m01;
shapes = (
{
closed = 1;
nodes = (
(343,264,o),
(373,294,o),
(373,332,cs),
(373,369,o),
(343,399,o),
(305,399,cs),
(269,399,o),
(239,369,o),
(239,332,cs),
(239,294,o),
(269,264,o),
(305,264,cs)
);
}
);
width = 600;
},
{
layerId = m002;
shapes = (
{
closed = 1;
nodes = (
(343,264,o),
(373,294,o),
(373,332,cs),
(373,369,o),
(343,399,o),
(305,399,cs),
(269,399,o),
(239,369,o),
(239,332,cs),
(239,294,o),
(269,264,o),
(305,264,cs)
);
}
);
width = 600;
}
);
unicode = 183;
},
{
glyphname = bullet;
layers = (
{
layerId = m01;
shapes = (
{
closed = 1;
nodes = (
(398,83,o),
(478,163,o),
(478,264,cs),
(478,362,o),
(398,442,o),
(297,442,cs),
(202,442,o),
(122,362,o),
(122,264,cs),
(122,163,o),
(202,83,o),
(297,83,cs)
);
}
);
width = 600;
},
{
layerId = m002;
shapes = (
{
closed = 1;
nodes = (
(398,83,o),
(478,163,o),
(478,264,cs),
(478,362,o),
(398,442,o),
(297,442,cs),
(202,442,o),
(122,362,o),
(122,264,cs),
(122,163,o),
(202,83,o),
(297,83,cs)
);
}
);
width = 600;
}
);
unicode = 8226;
},
{
glyphname = asterisk;
layers = (
{
layerId = m01;
shapes = (
{
closed = 1;
nodes = (
(293,398,l),
(284,513,l),
(382,454,l),
(413,504,l),
(308,555,l),
(413,604,l),
(382,665,l),
(284,600,l),
(293,711,l),
(231,711,l),
(236,600,l),
(132,668,l),
(103,610,l),
(216,555,l),
(103,499,l),
(133,446,l),
(236,511,l),
(231,398,l)
);
}
);
width = 460;
},
{
layerId = m002;
shapes = (
{
closed = 1;
nodes = (
(293,398,l),
(284,513,l),
(382,454,l),
(413,504,l),
(308,555,l),
(413,604,l),
(382,665,l),
(284,600,l),
(293,711,l),
(231,711,l),
(236,600,l),
(132,668,l),
(103,610,l),
(216,555,l),
(103,499,l),
(133,446,l),
(236,511,l),
(231,398,l)
);
}
);
width = 460;
}
);
unicode = 42;
},
{
color = 3;
glyphname = dblverticalbar;
layers = (
{
layerId = m01;
shapes = (
{
closed = 1;
nodes = (
(165,-164,l),
(235,-164,l),
(235,700,l),
(165,700,l)
);
},
{
closed = 1;
nodes = (
(365,-164,l),
(435,-164,l),
(435,700,l),
(365,700,l)
);
}
);
width = 600;
},
{
layerId = m002;
width = 600;
}
);
unicode = 8214;
},
{
glyphname = numbersign;
layers = (
{
layerId = m01;
shapes = (
{
closed = 1;
nodes = (
(132,5,l),
(180,200,l),
(349,200,l),
(301,-2,l),
(372,5,l),
(416,200,l),
(520,200,l),
(553,267,l),
(432,267,l),
(472,442,l),
(561,442,l),
(600,512,l),
(485,512,l),
(535,734,l),
(455,701,l),
(412,512,l),
(249,512,l),
(305,734,l),
(226,701,l),
(182,512,l),
(75,512,l),
(40,442,l),
(167,442,l),
(123,267,l),
(38,267,l),
(11,200,l),
(109,200,l),
(59,-2,l)
);
},
{
closed = 1;
nodes = (
(236,438,l),
(403,438,l),
(363,269,l),
(194,269,l)
);
}
);
width = 600;
},
{
layerId = m002;
shapes = (
{
closed = 1;
nodes = (
(132,5,l),
(180,200,l),
(349,200,l),
(301,-2,l),
(372,5,l),
(416,200,l),
(520,200,l),
(553,267,l),
(432,267,l),
(472,442,l),
(561,442,l),
(600,512,l),
(485,512,l),
(535,734,l),
(455,701,l),
(412,512,l),
(249,512,l),
(305,734,l),
(226,701,l),
(182,512,l),
(75,512,l),
(40,442,l),
(167,442,l),
(123,267,l),
(38,267,l),
(11,200,l),
(109,200,l),
(59,-2,l)
);
},
{
closed = 1;
nodes = (
(236,438,l),
(403,438,l),
(363,269,l),
(194,269,l)
);
}
);
width = 600;
}
);
unicode = 35;
},
{
glyphname = slash;
layers = (
{
layerId = m01;
shapes = (
{
closed = 1;
nodes = (
(112,-149,l),
(404,808,l),
(329,808,l),
(37,-149,l)
);
}
);
width = 420;
},
{
layerId = m002;
shapes = (
{
closed = 1;
nodes = (
(112,-149,l),
(404,808,l),
(329,808,l),
(37,-149,l)
);
}
);
width = 420;
}
);
unicode = 47;
},
{
glyphname = backslash;
layers = (
{
layerId = m01;
shapes = (
{
closed = 1;
nodes = (
(466,-135,l),
(196,738,l),
(144,711,l),
(394,-163,l)
);
}
);
width = 600;
},
{
layerId = m002;
shapes = (
{
closed = 1;
nodes = (
(466,-135,l),
(196,738,l),
(144,711,l),
(394,-163,l)
);
}
);
width = 600;
}
);
unicode = 92;
},
{
color = 1;
glyphname = periodcentered.loclCAT;
layers = (
{
layerId = m01;
shapes = (
{
closed = 1;
nodes = (
(334,239,o),
(361,266,o),
(361,300,cs),
(361,334,o),
(334,361,o),
(301,361,cs),
(266,361,o),
(239,334,o),
(239,300,cs),
(239,266,o),
(266,239,o),
(301,239,cs)
);
}
);
width = 600;
},
{
layerId = m002;
shapes = (
{
closed = 1;
nodes = (
(351,213,o),
(387,247,o),
(387,296,cs),
(387,345,o),
(351,379,o),
(301,379,cs),
(249,379,o),
(213,345,o),
(213,296,cs),
(213,247,o),
(249,213,o),
(301,213,cs)
);
}
);
width = 600;
}
);
},
{
color = 1;
glyphname = periodcentered.loclCAT.case;
layers = (
{
layerId = m01;
shapes = (
{
closed = 1;
nodes = (
(334,239,o),
(361,266,o),
(361,300,cs),
(361,334,o),
(334,361,o),
(301,361,cs),
(266,361,o),
(239,334,o),
(239,300,cs),
(239,266,o),
(266,239,o),
(301,239,cs)
);
}
);
width = 600;
},
{
layerId = m002;
shapes = (
{
closed = 1;
nodes = (
(351,213,o),
(387,247,o),
(387,296,cs),
(387,345,o),
(351,379,o),
(301,379,cs),
(249,379,o),
(213,345,o),
(213,296,cs),
(213,247,o),
(249,213,o),
(301,213,cs)
);
}
);
width = 600;
}
);
},
{
glyphname = hyphen;
layers = (
{
layerId = m01;
shapes = (
{
closed = 1;
nodes = (
(375,247,l),
(375,329,l),
(55,329,l),
(55,247,l)
);
}
);
width = 430;
},
{
layerId = m002;
shapes = (
{
closed = 1;
nodes = (
(375,247,l),
(375,329,l),
(55,329,l),
(55,247,l)
);
}
);
width = 430;
}
);
unicode = 45;
},
{
glyphname = endash;
layers = (
{
layerId = m01;
shapes = (
{
closed = 1;
nodes = (
(535,247,l),
(535,329,l),
(65,329,l),
(65,247,l)
);
}
);
width = 600;
},
{
layerId = m002;
shapes = (
{
closed = 1;
nodes = (
(535,247,l),
(535,329,l),
(65,329,l),
(65,247,l)
);
}
);
width = 600;
}
);
unicode = 8211;
},
{
glyphname = emdash;
layers = (
{
layerId = m01;
shapes = (
{
closed = 1;
nodes = (
(535,247,l),
(535,329,l),
(0,329,l),
(0,247,l)
);
}
);
width = 535;
},
{
layerId = m002;
shapes = (
{
closed = 1;
nodes = (
(535,247,l),
(535,329,l),
(0,329,l),
(0,247,l)
);
}
);
width = 535;
}
);
unicode = 8212;
},
{
glyphname = underscore;
layers = (
{
layerId = m01;
shapes = (
{
closed = 1;
nodes = (
(600,-163,l),
(600,-81,l),
(0,-81,l),
(0,-163,l)
);
}
);
width = 600;
},
{
layerId = m002;
shapes = (
{
closed = 1;
nodes = (
(600,-163,l),
(600,-81,l),
(0,-81,l),
(0,-163,l)
);
}
);
width = 600;
}
);
unicode = 95;
},
{
glyphname = parenleft;
layers = (
{
layerId = m01;
shapes = (
{
closed = 1;
nodes = (
(282,-142,l),
(214,-36,o),
(159,125,o),
(159,275,cs),
(159,428,o),
(215,593,o),
(285,704,c),
(225,726,l),
(145,597,o),
(94,422,o),
(94,274,cs),
(94,129,o),
(142,-37,o),
(219,-158,c)
);
}
);
width = 360;
},
{
layerId = m002;
shapes = (
{
closed = 1;
nodes = (
(303,-140,l),
(241,-43,o),
(185,122,o),
(185,275,cs),
(185,431,o),
(242,599,o),
(306,701,c),
(209,737,l),
(108,578,o),
(68,402,o),
(68,274,cs),
(68,150,o),
(104,-16,o),
(202,-166,c)
);
}
);
width = 360;
}
);
unicode = 40;
},
{
glyphname = parenright;
layers = (
{
layerId = m01;
shapes = (
{
closed = 1;
nodes = (
(218,-37,o),
(266,129,o),
(266,274,cs),
(266,422,o),
(215,597,o),
(135,726,c),
(75,704,l),
(145,593,o),
(202,428,o),
(202,275,cs),
(202,125,o),
(146,-36,o),
(78,-142,c),
(141,-158,l)
);
}
);
width = 360;
},
{
layerId = m002;
shapes = (
{
closed = 1;
nodes = (
(256,-16,o),
(292,150,o),
(292,274,cs),
(292,402,o),
(252,578,o),
(151,737,c),
(54,701,l),
(118,599,o),
(176,431,o),
(176,275,cs),
(176,122,o),
(119,-43,o),
(57,-140,c),
(158,-166,l)
);
}
);
width = 360;
}
);
unicode = 41;
},
{
glyphname = braceleft;
layers = (
{
layerId = m01;
shapes = (
{
closed = 1;
nodes = (
(447,-92,l),
(380,-92,o),
(321,-57,o),
(321,-16,cs),
(321,173,ls),
(321,215,o),
(298,256,o),
(265,279,c),
(298,302,o),
(321,343,o),
(321,385,cs),
(321,574,ls),
(321,615,o),
(380,650,o),
(447,650,c),
(447,702,l),
(347,702,o),
(258,641,o),
(258,574,cs),
(258,385,ls),
(258,339,o),
(208,297,o),
(152,297,c),
(152,261,l),
(208,261,o),
(258,219,o),
(258,173,cs),
(258,-16,ls),
(258,-83,o),
(347,-144,o),
(447,-144,c)
);
}
);
width = 600;
},
{
layerId = m002;
shapes = (
{
closed = 1;
nodes = (
(473,-88,l),
(399,-88,o),
(347,-58,o),
(347,-16,cs),
(347,173,ls),
(347,209,o),
(320,253,o),
(282,279,c),
(320,305,o),
(347,349,o),
(347,385,cs),
(347,574,ls),
(347,616,o),
(399,646,o),
(473,646,c),
(473,703,l),
(332,703,o),
(232,650,o),
(232,574,cs),
(232,385,ls),
(232,338,o),
(188,304,o),
(126,304,c),
(126,254,l),
(188,254,o),
(232,220,o),
(232,173,cs),
(232,-16,ls),
(232,-92,o),
(332,-145,o),
(473,-145,c)
);
}
);
width = 600;
}
);
unicode = 123;
},
{
glyphname = braceright;
layers = (
{
layerId = m01;
shapes = (
{
closed = 1;
nodes = (
(252,-144,o),
(341,-83,o),
(341,-16,cs),
(341,173,ls),
(341,219,o),
(391,261,o),
(447,261,c),
(447,297,l),
(391,297,o),
(341,339,o),
(341,385,cs),
(341,574,ls),
(341,641,o),
(252,702,o),
(152,702,c),
(152,650,l),
(219,650,o),
(278,615,o),
(278,574,cs),
(278,385,ls),
(278,343,o),
(301,302,o),
(334,279,c),
(301,256,o),
(278,215,o),
(278,173,cs),
(278,-16,ls),
(278,-57,o),
(219,-92,o),
(152,-92,c),
(152,-144,l)
);
}
);
width = 600;
},
{
layerId = m002;
shapes = (
{
closed = 1;
nodes = (
(267,-145,o),
(367,-92,o),
(367,-16,cs),
(367,173,ls),
(367,220,o),
(411,254,o),
(473,254,c),
(473,304,l),
(411,304,o),
(367,338,o),
(367,385,cs),
(367,574,ls),
(367,650,o),
(267,703,o),
(126,703,c),
(126,646,l),
(200,646,o),
(252,616,o),
(252,574,cs),
(252,385,ls),
(252,349,o),
(279,305,o),
(317,279,c),
(279,253,o),
(252,209,o),
(252,173,cs),
(252,-16,ls),
(252,-58,o),
(200,-88,o),
(126,-88,c),
(126,-145,l)
);
}
);
width = 600;
}
);
unicode = 125;
},
{
glyphname = bracketleft;
layers = (
{
layerId = m01;
shapes = (
{
closed = 1;
nodes = (
(321,-137,l),
(321,-102,l),
(179,-102,l),
(179,660,l),
(321,660,l),
(321,695,l),
(119,695,l),
(119,-137,l)
);
}
);
width = 440;
},
{
layerId = m002;
shapes = (
{
closed = 1;
nodes = (
(347,-139,l),
(347,-100,l),
(205,-100,l),
(205,658,l),
(347,658,l),
(347,697,l),
(93,697,l),
(93,-139,l)
);
}
);
width = 440;
}
);
unicode = 91;
},
{
glyphname = bracketright;
layers = (
{
layerId = m01;
shapes = (
{
closed = 1;
nodes = (
(321,-137,l),
(321,695,l),
(119,695,l),
(119,660,l),
(261,660,l),
(261,-102,l),
(119,-102,l),
(119,-137,l)
);
}
);
width = 440;
},
{
layerId = m002;
shapes = (
{
closed = 1;
nodes = (
(347,-139,l),
(347,697,l),
(93,697,l),
(93,658,l),
(235,658,l),
(235,-100,l),
(93,-100,l),
(93,-139,l)
);
}
);
width = 440;
}
);
unicode = 93;
},
{
glyphname = quotedblleft;
layers = (
{
layerId = m01;
shapes = (
{
closed = 1;
nodes = (
(432,727,l),
(406,731,l),
(322,542,l),
(362,527,l)
);
},
{
closed = 1;
nodes = (
(222,456,o),
(249,483,o),
(249,517,cs),
(249,551,o),
(222,578,o),
(187,578,cs),
(154,578,o),
(127,551,o),
(127,517,cs),
(127,483,o),
(154,456,o),
(187,456,cs)
);
},
{
closed = 1;
nodes = (
(242,727,l),
(216,731,l),
(132,542,l),
(172,527,l)
);
},
{
closed = 1;
nodes = (
(412,456,o),
(439,483,o),
(439,517,cs),
(439,551,o),
(412,578,o),
(377,578,cs),
(344,578,o),
(317,551,o),
(317,517,cs),
(317,483,o),
(344,456,o),
(377,456,cs)
);
}
);
width = 600;
},
{
layerId = m002;
shapes = (
{
closed = 1;
nodes = (
(473,713,l),
(440,718,l),
(333,528,l),
(384,509,l)
);
},
{
closed = 1;
nodes = (
(205,418,o),
(240,452,o),
(240,496,cs),
(240,539,o),
(205,574,o),
(160,574,cs),
(118,574,o),
(84,539,o),
(84,496,cs),
(84,452,o),
(118,418,o),
(160,418,cs)
);
},
{
closed = 1;
nodes = (
(231,713,l),
(197,718,l),
(90,528,l),
(141,509,l)
);
},
{
closed = 1;
nodes = (
(448,418,o),
(482,452,o),
(482,496,cs),
(482,539,o),
(448,574,o),
(403,574,cs),
(361,574,o),
(326,539,o),
(326,496,cs),
(326,452,o),
(361,418,o),
(403,418,cs)
);
}
);
width = 600;
}
);
unicode = 8220;
},
{
glyphname = quotedblright;
layers = (
{
layerId = m01;
shapes = (
{
closed = 1;
nodes = (
(451,630,l),
(411,645,l),
(341,445,l),
(367,441,l)
);
},
{
closed = 1;
nodes = (
(261,630,l),
(221,645,l),
(151,445,l),
(177,441,l)
);
},
{
closed = 1;
nodes = (
(239,594,o),
(266,621,o),
(266,655,cs),
(266,689,o),
(239,716,o),
(206,716,cs),
(171,716,o),
(144,689,o),
(144,655,cs),
(144,621,o),
(171,594,o),
(206,594,cs)
);
},
{
closed = 1;
nodes = (
(429,594,o),
(456,621,o),
(456,655,cs),
(456,689,o),
(429,716,o),
(396,716,cs),
(361,716,o),
(334,689,o),
(334,655,cs),
(334,621,o),
(361,594,o),
(396,594,cs)
);
}
);
width = 600;
},
{
layerId = m002;
shapes = (
{
closed = 1;
nodes = (
(493,644,l),
(442,663,l),
(352,500,l),
(386,495,l)
);
},
{
closed = 1;
nodes = (
(250,644,l),
(199,663,l),
(110,500,l),
(143,495,l)
);
},
{
closed = 1;
nodes = (
(222,598,o),
(257,633,o),
(257,676,cs),
(257,720,o),
(222,754,o),
(180,754,cs),
(135,754,o),
(101,720,o),
(101,676,cs),
(101,633,o),
(135,598,o),
(180,598,cs)
);
},
{
closed = 1;
nodes = (
(465,598,o),
(499,633,o),
(499,676,cs),
(499,720,o),
(465,754,o),
(423,754,cs),
(378,754,o),
(343,720,o),
(343,676,cs),
(343,633,o),
(378,598,o),
(423,598,cs)
);
}
);
width = 600;
}
);
unicode = 8221;
},
{
glyphname = quoteleft;
layers = (
{
layerId = m01;
shapes = (
{
closed = 1;
nodes = (
(254,727,l),
(228,731,l),
(144,542,l),
(184,527,l)
);
},
{
closed = 1;
nodes = (
(234,456,o),
(261,483,o),
(261,517,cs),
(261,551,o),
(234,578,o),
(199,578,cs),
(166,578,o),
(139,551,o),
(139,517,cs),
(139,483,o),
(166,456,o),
(199,456,cs)
);
}
);
width = 400;
},
{
layerId = m002;
shapes = (
{
closed = 1;
nodes = (
(269,708,l),
(236,713,l),
(129,528,l),
(180,509,l)
);
},
{
closed = 1;
nodes = (
(243,418,o),
(278,452,o),
(278,496,cs),
(278,539,o),
(243,574,o),
(199,574,cs),
(157,574,o),
(122,539,o),
(122,496,cs),
(122,452,o),
(157,418,o),
(199,418,cs)
);
}
);
width = 400;
}
);
unicode = 8216;
},
{
glyphname = quoteright;
layers = (
{
layerId = m01;
shapes = (
{
closed = 1;
nodes = (
(356,630,l),
(316,645,l),
(246,445,l),
(272,441,l)
);
},
{
closed = 1;
nodes = (
(334,594,o),
(361,621,o),
(361,655,cs),
(361,689,o),
(334,716,o),
(301,716,cs),
(266,716,o),
(239,689,o),
(239,655,cs),
(239,621,o),
(266,594,o),
(301,594,cs)
);
}
);
width = 600;
},
{
layerId = m002;
shapes = (
{
closed = 1;
nodes = (
(371,644,l),
(320,663,l),
(231,493,l),
(264,488,l)
);
},
{
closed = 1;
nodes = (
(343,598,o),
(378,633,o),
(378,676,cs),
(378,720,o),
(343,754,o),
(301,754,cs),
(257,754,o),
(222,720,o),
(222,676,cs),
(222,633,o),
(257,598,o),
(301,598,cs)
);
}
);
width = 600;
}
);
unicode = 8217;
},
{
glyphname = guillemetleft;
layers = (
{
layerId = m01;
shapes = (
{
closed = 1;
nodes = (
(543,79,l),
(395,276,l),
(543,469,l),
(497,509,l),
(288,276,l),
(497,43,l)
);
},
{
closed = 1;
nodes = (
(312,79,l),
(164,276,l),
(312,469,l),
(266,509,l),
(57,276,l),
(266,43,l)
);
}
);
width = 600;
},
{
layerId = m002;
shapes = (
{
closed = 1;
nodes = (
(563,81,l),
(417,276,l),
(563,468,l),
(494,528,l),
(267,276,l),
(492,25,l)
);
},
{
closed = 1;
nodes = (
(332,81,l),
(186,276,l),
(332,468,l),
(263,528,l),
(36,276,l),
(261,25,l)
);
}
);
width = 600;
}
);
unicode = 171;
},
{
glyphname = guillemetright;
layers = (
{
layerId = m01;
shapes = (
{
closed = 1;
nodes = (
(543,276,l),
(334,509,l),
(288,469,l),
(436,276,l),
(288,79,l),
(334,43,l)
);
},
{
closed = 1;
nodes = (
(312,276,l),
(103,509,l),
(57,469,l),
(205,276,l),
(57,79,l),
(103,43,l)
);
}
);
width = 600;
},
{
layerId = m002;
shapes = (
{
closed = 1;
nodes = (
(564,276,l),
(337,528,l),
(268,468,l),
(414,276,l),
(268,81,l),
(339,25,l)
);
},
{
closed = 1;
nodes = (
(333,276,l),
(106,528,l),
(37,468,l),
(183,276,l),
(37,81,l),
(108,25,l)
);
}
);
width = 600;
}
);
unicode = 187;
},
{
glyphname = guilsinglleft;
layers = (
{
layerId = m01;
shapes = (
{
closed = 1;
nodes = (
(327,79,l),
(179,276,l),
(327,469,l),
(281,509,l),
(72,276,l),
(281,43,l)
);
}
);
width = 400;
},
{
layerId = m002;
shapes = (
{
closed = 1;
nodes = (
(347,81,l),
(201,276,l),
(347,468,l),
(278,528,l),
(51,276,l),
(276,25,l)
);
}
);
width = 400;
}
);
unicode = 8249;
},
{
glyphname = guilsinglright;
layers = (
{
layerId = m01;
shapes = (
{
closed = 1;
nodes = (
(327,276,l),
(118,509,l),
(72,469,l),
(220,276,l),
(72,79,l),
(118,43,l)
);
}
);
width = 400;
},
{
layerId = m002;
shapes = (
{
closed = 1;
nodes = (
(348,276,l),
(121,528,l),
(52,468,l),
(198,276,l),
(52,81,l),
(123,25,l)
);
}
);
width = 400;
}
);
unicode = 8250;
},
{
glyphname = quotedbl;
layers = (
{
layerId = m01;
shapes = (
{
closed = 1;
nodes = (
(417,443,l),
(461,630,l),
(349,630,l),
(391,443,l)
);
},
{
closed = 1;
nodes = (
(207,443,l),
(251,630,l),
(139,630,l),
(181,443,l)
);
},
{
closed = 1;
nodes = (
(229,594,o),
(256,621,o),
(256,655,cs),
(256,689,o),
(229,716,o),
(196,716,cs),
(161,716,o),
(134,689,o),
(134,655,cs),
(134,621,o),
(161,594,o),
(196,594,cs)
);
},
{
closed = 1;
nodes = (
(439,594,o),
(466,621,o),
(466,655,cs),
(466,689,o),
(439,716,o),
(406,716,cs),
(371,716,o),
(344,689,o),
(344,655,cs),
(344,621,o),
(371,594,o),
(406,594,cs)
);
}
);
width = 600;
},
{
layerId = m002;
shapes = (
{
closed = 1;
nodes = (
(449,458,l),
(505,644,l),
(363,644,l),
(416,458,l)
);
},
{
closed = 1;
nodes = (
(181,458,l),
(237,644,l),
(95,644,l),
(148,458,l)
);
},
{
closed = 1;
nodes = (
(209,598,o),
(244,632,o),
(244,676,cs),
(244,719,o),
(209,754,o),
(167,754,cs),
(123,754,o),
(88,719,o),
(88,676,cs),
(88,632,o),
(123,598,o),
(167,598,cs)
);
},
{
closed = 1;
nodes = (
(477,598,o),
(512,632,o),
(512,676,cs),
(512,719,o),
(477,754,o),
(435,754,cs),
(391,754,o),
(356,719,o),
(356,676,cs),
(356,632,o),
(391,598,o),
(435,598,cs)
);
}
);
width = 600;
}
);
unicode = 34;
},
{
glyphname = quotesingle;
layers = (
{
layerId = m01;
shapes = (
{
closed = 1;
nodes = (
(155,443,l),
(199,630,l),
(87,630,l),
(129,443,l)
);
},
{
closed = 1;
nodes = (
(177,594,o),
(204,621,o),
(204,655,cs),
(204,689,o),
(177,716,o),
(144,716,cs),
(109,716,o),
(82,689,o),
(82,655,cs),
(82,621,o),
(109,594,o),
(144,594,cs)
);
}
);
width = 286;
},
{
layerId = m002;
shapes = (
{
closed = 1;
nodes = (
(158,460,l),
(214,644,l),
(72,644,l),
(125,460,l)
);
},
{
closed = 1;
nodes = (
(186,598,o),
(221,632,o),
(221,676,cs),
(221,719,o),
(186,754,o),
(144,754,cs),
(100,754,o),
(65,719,o),
(65,676,cs),
(65,632,o),
(100,598,o),
(144,598,cs)
);
}
);
width = 286;
}
);
unicode = 39;
},
{
color = 3;
glyphname = baht;
layers = (
{
layerId = m01;
shapes = (
{
closed = 1;
nodes = (
(298,0,ls),
(461,0,o),
(576,89,o),
(576,215,cs),
(576,288,o),
(518,345,o),
(427,369,c),
(494,402,o),
(536,462,o),
(536,537,cs),
(536,632,o),
(450,700,o),
(328,700,cs),
(8,700,l),
(8,680,l),
(99,650,l),
(99,50,l),
(8,20,l),
(8,0,l)
);
},
{
closed = 1;
nodes = (
(194,341,l),
(298,341,ls),
(396,341,o),
(466,277,o),
(466,187,cs),
(466,107,o),
(409,50,o),
(328,50,cs),
(194,50,l)
);
},
{
closed = 1;
nodes = (
(320,-100,l),
(320,800,l),
(280,800,l),
(280,-100,l)
);
},
{
closed = 1;
nodes = (
(194,650,l),
(298,650,ls),
(373,650,o),
(426,590,o),
(426,505,cs),
(426,432,o),
(385,381,o),
(328,381,cs),
(194,381,l)
);
}
);
width = 600;
},
{
layerId = m002;
shapes = (
{
closed = 1;
nodes = (
(298,-2,ls),
(474,-2,o),
(602,91,o),
(602,215,cs),
(602,282,o),
(545,340,o),
(442,369,c),
(524,410,o),
(562,467,o),
(562,537,cs),
(562,631,o),
(462,702,o),
(328,702,cs),
(-18,702,l),
(-18,684,l),
(73,654,l),
(73,46,l),
(-18,16,l),
(-18,-2,l)
);
},
{
closed = 1;
nodes = (
(220,339,l),
(298,339,ls),
(379,339,o),
(440,283,o),
(440,187,cs),
(440,101,o),
(391,52,o),
(328,52,cs),
(220,52,l)
);
},
{
closed = 1;
nodes = (
(336,-102,l),
(336,802,l),
(264,802,l),
(264,-102,l)
);
},
{
closed = 1;
nodes = (
(220,648,l),
(298,648,ls),
(354,648,o),
(400,596,o),
(400,505,cs),
(400,426,o),
(365,383,o),
(328,383,cs),
(220,383,l)
);
}
);
width = 600;
}
);
unicode = 3647;
},
{
glyphname = at;
layers = (
{
associatedMasterId = m01;
layerId = "64256756-86B2-4B21-ADC9-3CB4C17202DE";
name = "23. Dez. 23, 20:17";
shapes = (
{
closed = 1;
nodes = (
(458,471,o),
(401,487,o),
(339,487,cs),
(248,487,o),
(184,406,o),
(184,292,cs),
(184,187,o),
(248,113,o),
(339,113,cs),
(375,113,o),
(427,152,o),
(465,206,c),
(441,226,l),
(410,179,o),
(368,145,o),
(339,145,cs),
(283,145,o),
(244,206,o),
(244,292,cs),
(244,387,o),
(283,455,o),
(339,455,cs),
(385,455,o),
(418,431,o),
(418,397,c),
(418,185,l),
(418,142,o),
(464,112,o),
(529,112,cs),
(609,112,o),
(666,187,o),
(666,292,cs),
(666,506,o),
(531,658,o),
(339,658,cs),
(150,658,o),
(17,506,o),
(17,292,cs),
(17,81,o),
(150,-68,o),
(339,-68,cs),
(416,-68,o),
(519,-22,o),
(588,43,c),
(575,58,l),
(507,-4,o),
(409,-48,o),
(339,-48,cs),
(162,-48,o),
(37,93,o),
(37,292,cs),
(37,495,o),
(162,638,o),
(339,638,cs),
(519,638,o),
(646,495,o),
(646,292,cs),
(646,205,o),
(597,144,o),
(528,144,cs),
(499,144,o),
(478,161,o),
(478,185,c),
(478,448,l)
);
}
);
width = 600;
},
{
layerId = m01;
name = Regular;
shapes = (
{
closed = 1;
nodes = (
(525,-118,o),
(634,-72,o),
(691,-7,c),
(668,19,l),
(615,-41,o),
(516,-83,o),
(429,-83,cs),
(244,-83,o),
(113,58,o),
(113,258,cs),
(113,442,o),
(244,573,o),
(429,573,cs),
(589,573,o),
(702,455,o),
(702,288,cs),
(702,178,o),
(654,96,o),
(592,96,cs),
(545,96,o),
(519,115,o),
(524,135,cs),
(579,398,l),
(565,421,o),
(503,437,o),
(429,437,cs),
(326,437,o),
(245,349,o),
(219,225,cs),
(199,130,o),
(247,63,o),
(349,63,cs),
(394,63,o),
(447,102,o),
(477,156,c),
(481,178,l),
(441,131,o),
(390,105,o),
(367,105,cs),
(320,105,o),
(287,166,o),
(303,242,cs),
(322,335,o),
(371,401,o),
(409,401,cs),
(451,401,o),
(497,379,o),
(497,379,c),
(446,135,ls),
(437,93,o),
(475,63,o),
(569,63,cs),
(670,63,o),
(742,156,o),
(742,288,cs),
(742,475,o),
(612,608,o),
(429,608,cs),
(220,608,o),
(73,463,o),
(73,258,cs),
(73,38,o),
(220,-118,o),
(429,-118,cs)
);
}
);
width = 800;
},
{
associatedMasterId = m002;
layerId = "0B85CD66-D785-4B4C-8DDC-FD27C3FEC857";
name = "23. Dez. 23, 20:17";
shapes = (
{
closed = 1;
nodes = (
(458,471,o),
(401,487,o),
(339,487,cs),
(248,487,o),
(184,406,o),
(184,292,cs),
(184,187,o),
(248,113,o),
(339,113,cs),
(375,113,o),
(427,152,o),
(465,206,c),
(441,226,l),
(410,179,o),
(368,145,o),
(339,145,cs),
(283,145,o),
(244,206,o),
(244,292,cs),
(244,387,o),
(283,455,o),
(339,455,cs),
(385,455,o),
(418,431,o),
(418,397,c),
(418,185,l),
(418,142,o),
(464,112,o),
(529,112,cs),
(609,112,o),
(666,187,o),
(666,292,cs),
(666,506,o),
(531,658,o),
(339,658,cs),
(150,658,o),
(17,506,o),
(17,292,cs),
(17,81,o),
(150,-68,o),
(339,-68,cs),
(416,-68,o),
(519,-22,o),
(588,43,c),
(575,58,l),
(507,-4,o),
(409,-48,o),
(339,-48,cs),
(162,-48,o),
(37,93,o),
(37,292,cs),
(37,495,o),
(162,638,o),
(339,638,cs),
(519,638,o),
(646,495,o),
(646,292,cs),
(646,205,o),
(597,144,o),
(528,144,cs),
(499,144,o),
(478,161,o),
(478,185,c),
(478,448,l)
);
}
);
width = 600;
},
{
layerId = m002;
name = Regular;
shapes = (
{
closed = 1;
nodes = (
(536,-120,o),
(660,-67,o),
(712,-7,c),
(667,44,l),
(610,-37,o),
(515,-81,o),
(429,-81,cs),
(262,-81,o),
(139,52,o),
(139,258,cs),
(139,448,o),
(262,571,o),
(429,571,cs),
(571,571,o),
(676,461,o),
(676,288,cs),
(676,173,o),
(632,98,o),
(592,98,cs),
(560,98,o),
(534,110,o),
(539,135,cs),
(594,395,l),
(579,418,o),
(509,439,o),
(429,439,cs),
(306,439,o),
(229,345,o),
(204,225,cs),
(183,126,o),
(226,61,o),
(349,61,cs),
(416,61,o),
(481,113,o),
(504,163,c),
(519,248,l),
(416,126,o),
(379,107,o),
(367,107,cs),
(342,107,o),
(302,163,o),
(318,242,cs),
(339,342,o),
(391,399,o),
(409,399,cs),
(428,399,o),
(458,393,o),
(482,383,c),
(431,135,ls),
(423,94,o),
(459,61,o),
(569,61,cs),
(692,61,o),
(768,158,o),
(768,288,cs),
(768,479,o),
(624,610,o),
(429,610,cs),
(210,610,o),
(47,468,o),
(47,258,cs),
(47,33,o),
(209,-120,o),
(429,-120,cs)
);
}
);
width = 800;
}
);
unicode = 64;
},
{
glyphname = ampersand;
layers = (
{
layerId = m01;
shapes = (
{
closed = 1;
nodes = (
(503,-16,o),
(646,139,o),
(646,357,c),
(605,357,l),
(605,156,o),
(483,14,o),
(340,14,cs),
(249,14,o),
(193,89,o),
(193,195,cs),
(193,413,o),
(517,388,o),
(517,594,cs),
(517,665,o),
(456,716,o),
(355,716,cs),
(229,716,o),
(154,650,o),
(154,556,cs),
(154,475,o),
(185,412,o),
(318,273,cs),
(483,100,o),
(621,-16,o),
(640,-16,c),
(799,92,l),
(775,111,l),
(680,61,l),
(682,61,o),
(539,177,o),
(376,348,cs),
(260,470,o),
(242,513,o),
(242,584,cs),
(242,644,o),
(276,686,o),
(345,686,cs),
(397,686,o),
(433,636,o),
(433,566,cs),
(433,379,o),
(98,423,o),
(98,175,cs),
(98,63,o),
(186,-16,o),
(330,-16,cs)
);
}
);
width = 830;
},
{
layerId = m002;
shapes = (
{
closed = 1;
nodes = (
(521,-18,o),
(673,139,o),
(672,359,c),
(579,359,l),
(580,151,o),
(464,16,o),
(340,16,cs),
(269,16,o),
(219,83,o),
(219,195,cs),
(219,409,o),
(543,384,o),
(543,594,cs),
(543,664,o),
(470,718,o),
(355,718,cs),
(216,718,o),
(128,650,o),
(128,556,cs),
(128,479,o),
(157,420,o),
(299,272,cs),
(458,105,o),
(593,-18,o),
(654,-18,c),
(787,102,l),
(750,132,l),
(673,65,l),
(713,30,o),
(588,146,o),
(395,349,cs),
(287,462,o),
(268,509,o),
(268,584,cs),
(268,650,o),
(296,684,o),
(345,684,cs),
(376,684,o),
(407,642,o),
(407,566,cs),
(407,385,o),
(72,429,o),
(72,175,cs),
(72,62,o),
(174,-18,o),
(330,-18,cs)
);
}
);
width = 830;
}
);
unicode = 38;
},
{
glyphname = paragraph;
layers = (
{
layerId = m01;
shapes = (
{
closed = 1;
nodes = (
(497,275,l),
(517,425,l),
(227,425,ls),
(155,425,o),
(104,476,o),
(104,547,cs),
(104,600,o),
(144,637,o),
(201,637,c),
(271,717,l),
(132,717,o),
(34,634,o),
(34,517,cs),
(34,375,o),
(102,275,o),
(197,275,cs)
);
},
{
closed = 1;
nodes = (
(271,-166,l),
(271,717,l),
(201,637,l),
(201,-186,l)
);
},
{
closed = 1;
nodes = (
(401,-166,l),
(401,717,l),
(331,697,l),
(331,-186,l)
);
}
);
width = 600;
},
{
layerId = m002;
shapes = (
{
closed = 1;
nodes = (
(497,305,l),
(517,425,l),
(227,425,ls),
(155,425,o),
(104,476,o),
(104,547,cs),
(104,600,o),
(144,637,o),
(201,637,c),
(271,717,l),
(132,717,o),
(34,634,o),
(34,517,cs),
(34,375,o),
(102,305,o),
(197,305,cs)
);
},
{
closed = 1;
nodes = (
(271,-166,l),
(271,717,l),
(201,637,l),
(201,-186,l)
);
},
{
closed = 1;
nodes = (
(401,-166,l),
(401,717,l),
(331,697,l),
(331,-186,l)
);
}
);
width = 600;
}
);
unicode = 182;
},
{
glyphname = section;
layers = (
{
layerId = m01;
shapes = (
{
closed = 1;
nodes = (
(467,14,o),
(540,102,o),
(540,227,cs),
(540,377,o),
(221,522,o),
(221,601,cs),
(221,653,o),
(261,690,o),
(318,690,cs),
(356,690,o),
(401,673,o),
(427,650,c),
(441,549,l),
(488,549,l),
(489,678,l),
(443,706,o),
(372,726,o),
(318,726,cs),
(207,726,o),
(129,658,o),
(129,563,cs),
(129,442,o),
(458,327,o),
(458,179,cs),
(458,104,o),
(413,51,o),
(364,51,cs),
(301,51,o),
(228,100,o),
(188,170,c),
(173,161,l),
(222,75,o),
(301,14,o),
(364,14,cs)
);
},
{
closed = 1;
nodes = (
(422,-225,o),
(500,-157,o),
(500,-62,cs),
(500,59,o),
(171,174,o),
(171,322,cs),
(171,397,o),
(216,450,o),
(265,450,cs),
(330,450,o),
(403,400,o),
(441,330,c),
(456,340,l),
(407,426,o),
(328,487,o),
(265,487,cs),
(162,487,o),
(89,399,o),
(89,274,cs),
(89,125,o),
(408,-21,o),
(408,-100,cs),
(408,-152,o),
(368,-189,o),
(311,-189,cs),
(273,-189,o),
(227,-172,o),
(202,-148,c),
(188,-38,l),
(141,-38,l),
(140,-177,l),
(186,-205,o),
(257,-225,o),
(311,-225,cs)
);
}
);
width = 639;
},
{
layerId = m002;
shapes = (
{
closed = 1;
nodes = (
(481,12,o),
(566,96,o),
(566,227,cs),
(566,376,o),
(247,513,o),
(247,601,cs),
(247,659,o),
(278,688,o),
(318,688,cs),
(346,688,o),
(387,684,o),
(420,657,c),
(435,547,l),
(514,547,l),
(515,671,l),
(481,699,o),
(386,728,o),
(318,728,cs),
(195,728,o),
(103,659,o),
(103,563,cs),
(103,446,o),
(432,331,o),
(432,179,cs),
(432,98,o),
(394,53,o),
(364,53,cs),
(315,53,o),
(255,93,o),
(201,188,c),
(152,158,l),
(197,80,o),
(283,12,o),
(364,12,cs)
);
},
{
closed = 1;
nodes = (
(434,-227,o),
(526,-158,o),
(526,-62,cs),
(526,55,o),
(197,170,o),
(197,322,cs),
(197,403,o),
(235,448,o),
(265,448,cs),
(316,448,o),
(376,407,o),
(428,310,c),
(477,343,l),
(432,421,o),
(346,489,o),
(265,489,cs),
(148,489,o),
(63,405,o),
(63,274,cs),
(63,126,o),
(382,-12,o),
(382,-100,cs),
(382,-158,o),
(351,-187,o),
(311,-187,cs),
(284,-187,o),
(243,-185,o),
(209,-155,c),
(194,-36,l),
(115,-36,l),
(114,-170,l),
(148,-198,o),
(243,-227,o),
(311,-227,cs)
);
}
);
width = 639;
}
);
unicode = 167;
},
{
glyphname = copyright;
layers = (
{
layerId = m01;
shapes = (
{
closed = 1;
nodes = (
(598,-84,o),
(770,88,o),
(770,301,cs),
(770,514,o),
(598,686,o),
(385,686,cs),
(172,686,o),
(0,514,o),
(0,301,cs),
(0,88,o),
(172,-84,o),
(385,-84,cs)
);
},
{
closed = 1;
nodes = (
(439,60,o),
(505,78,o),
(552,104,c),
(552,201,l),
(507,201,l),
(507,134,o),
(478,106,o),
(410,106,cs),
(311,106,o),
(241,192,o),
(241,342,cs),
(241,443,o),
(299,493,o),
(383,493,cs),
(455,493,o),
(507,452,o),
(507,398,c),
(552,398,l),
(552,495,l),
(505,521,o),
(440,539,o),
(397,539,cs),
(263,538,o),
(170,438,o),
(170,298,cs),
(170,159,o),
(263,60,o),
(397,60,cs)
);
},
{
closed = 1;
nodes = (
(192,-48,o),
(36,108,o),
(36,301,cs),
(36,494,o),
(192,650,o),
(385,650,cs),
(578,650,o),
(734,494,o),
(734,301,cs),
(734,108,o),
(578,-48,o),
(385,-48,cs)
);
}
);
width = 770;
},
{
layerId = m002;
shapes = (
{
closed = 1;
nodes = (
(598,-84,o),
(770,88,o),
(770,301,cs),
(770,514,o),
(598,686,o),
(385,686,cs),
(172,686,o),
(0,514,o),
(0,301,cs),
(0,88,o),
(172,-84,o),
(385,-84,cs)
);
},
{
closed = 1;
nodes = (
(439,60,o),
(505,78,o),
(552,104,c),
(552,201,l),
(507,201,l),
(507,134,o),
(478,106,o),
(410,106,cs),
(311,106,o),
(241,192,o),
(241,342,cs),
(241,443,o),
(299,493,o),
(383,493,cs),
(455,493,o),
(507,452,o),
(507,398,c),
(552,398,l),
(552,495,l),
(505,521,o),
(440,539,o),
(397,539,cs),
(263,538,o),
(170,438,o),
(170,298,cs),
(170,159,o),
(263,60,o),
(397,60,cs)
);
},
{
closed = 1;
nodes = (
(192,-48,o),
(36,108,o),
(36,301,cs),
(36,494,o),
(192,650,o),
(385,650,cs),
(578,650,o),
(734,494,o),
(734,301,cs),
(734,108,o),
(578,-48,o),
(385,-48,cs)
);
}
);
width = 770;
}
);
unicode = 169;
},
{
glyphname = registered;
layers = (
{
layerId = m01;
shapes = (
{
closed = 1;
nodes = (
(427,292,o),
(530,395,o),
(530,522,cs),
(530,649,o),
(427,752,o),
(300,752,cs),
(173,752,o),
(70,649,o),
(70,522,cs),
(70,395,o),
(173,292,o),
(300,292,cs)
);
},
{
closed = 1;
nodes = (
(190,324,o),
(102,412,o),
(102,522,cs),
(102,632,o),
(190,720,o),
(300,720,cs),
(410,720,o),
(498,632,o),
(498,522,cs),
(498,412,o),
(410,324,o),
(300,324,cs)
);
},
{
closed = 1;
nodes = (
(308,417,l),
(308,434,l),
(272,444,l),
(272,512,l),
(303,512,l),
(364,417,l),
(433,417,l),
(433,434,l),
(416,439,ls),
(405,442,o),
(392,447,o),
(386,456,cs),
(340,519,l),
(371,529,o),
(390,553,o),
(390,583,cs),
(390,615,o),
(358,638,o),
(312,638,cs),
(208,638,l),
(208,621,l),
(229,612,l),
(229,444,l),
(208,434,l),
(208,417,l)
);
},
{
closed = 1;
nodes = (
(272,612,l),
(301,612,ls),
(331,612,o),
(342,602,o),
(342,573,cs),
(342,545,o),
(325,534,o),
(302,534,cs),
(272,534,l)
);
}
);
width = 600;
},
{
layerId = m002;
shapes = (
{
closed = 1;
nodes = (
(427,292,o),
(530,395,o),
(530,522,cs),
(530,649,o),
(427,752,o),
(300,752,cs),
(173,752,o),
(70,649,o),
(70,522,cs),
(70,395,o),
(173,292,o),
(300,292,cs)
);
},
{
closed = 1;
nodes = (
(190,324,o),
(102,412,o),
(102,522,cs),
(102,632,o),
(190,720,o),
(300,720,cs),
(410,720,o),
(498,632,o),
(498,522,cs),
(498,412,o),
(410,324,o),
(300,324,cs)
);
},
{
closed = 1;
nodes = (
(308,417,l),
(308,434,l),
(272,444,l),
(272,512,l),
(303,512,l),
(364,417,l),
(433,417,l),
(433,434,l),
(416,439,ls),
(405,442,o),
(392,447,o),
(386,456,cs),
(340,519,l),
(371,529,o),
(390,553,o),
(390,583,cs),
(390,615,o),
(358,638,o),
(312,638,cs),
(208,638,l),
(208,621,l),
(229,612,l),
(229,444,l),
(208,434,l),
(208,417,l)
);
},
{
closed = 1;
nodes = (
(272,612,l),
(301,612,ls),
(331,612,o),
(342,602,o),
(342,573,cs),
(342,545,o),
(325,534,o),
(302,534,cs),
(272,534,l)
);
}
);
width = 600;
}
);
unicode = 174;
},
{
glyphname = trademark;
layers = (
{
layerId = m01;
shapes = (
{
closed = 1;
nodes = (
(368,669,l),
(368,533,l),
(353,526,l),
(353,515,l),
(434,515,l),
(434,526,l),
(408,533,l),
(408,675,l),
(436,683,l),
(436,698,l),
(353,698,l),
(311,592,l),
(254,698,l),
(188,698,l),
(188,683,l),
(213,675,l),
(213,533,l),
(188,526,l),
(188,515,l),
(255,515,l),
(255,526,l),
(239,533,l),
(239,643,l),
(305,511,l)
);
},
{
closed = 1;
nodes = (
(151,515,l),
(151,526,l),
(115,533,l),
(115,680,l),
(141,680,l),
(162,626,l),
(176,626,l),
(168,698,l),
(23,698,l),
(15,626,l),
(31,626,l),
(51,680,l),
(75,680,l),
(75,533,l),
(40,526,l),
(40,515,l)
);
}
);
width = 451;
},
{
layerId = m002;
shapes = (
{
closed = 1;
nodes = (
(368,669,l),
(368,533,l),
(353,526,l),
(353,515,l),
(434,515,l),
(434,526,l),
(408,533,l),
(408,675,l),
(436,683,l),
(436,698,l),
(353,698,l),
(311,592,l),
(254,698,l),
(188,698,l),
(188,683,l),
(213,675,l),
(213,533,l),
(188,526,l),
(188,515,l),
(255,515,l),
(255,526,l),
(239,533,l),
(239,643,l),
(305,511,l)
);
},
{
closed = 1;
nodes = (
(151,515,l),
(151,526,l),
(115,533,l),
(115,680,l),
(141,680,l),
(162,626,l),
(176,626,l),
(168,698,l),
(23,698,l),
(15,626,l),
(31,626,l),
(51,680,l),
(75,680,l),
(75,533,l),
(40,526,l),
(40,515,l)
);
}
);
width = 451;
}
);
unicode = 8482;
},
{
glyphname = degree;
layers = (
{
layerId = m01;
shapes = (
{
closed = 1;
nodes = (
(383,389,o),
(451,457,o),
(451,540,cs),
(451,623,o),
(383,691,o),
(300,691,cs),
(217,691,o),
(149,623,o),
(149,540,cs),
(149,457,o),
(217,389,o),
(300,389,cs)
);
},
{
closed = 1;
nodes = (
(244,438,o),
(198,484,o),
(198,540,cs),
(198,596,o),
(244,642,o),
(300,642,cs),
(356,642,o),
(402,596,o),
(402,540,cs),
(402,484,o),
(356,438,o),
(300,438,cs)
);
}
);
width = 600;
},
{
layerId = m002;
shapes = (
{
closed = 1;
nodes = (
(383,389,o),
(451,457,o),
(451,540,cs),
(451,623,o),
(383,691,o),
(300,691,cs),
(217,691,o),
(149,623,o),
(149,540,cs),
(149,457,o),
(217,389,o),
(300,389,cs)
);
},
{
closed = 1;
nodes = (
(244,438,o),
(198,484,o),
(198,540,cs),
(198,596,o),
(244,642,o),
(300,642,cs),
(356,642,o),
(402,596,o),
(402,540,cs),
(402,484,o),
(356,438,o),
(300,438,cs)
);
}
);
width = 600;
}
);
unicode = 176;
},
{
glyphname = bar;
layers = (
{
layerId = m01;
shapes = (
{
closed = 1;
nodes = (
(181,-166,l),
(181,717,l),
(111,667,l),
(111,-216,l)
);
}
);
width = 292;
},
{
layerId = m002;
shapes = (
{
closed = 1;
nodes = (
(181,-166,l),
(181,717,l),
(111,667,l),
(111,-216,l)
);
}
);
width = 292;
}
);
unicode = 124;
},
{
color = 3;
glyphname = brokenbar;
layers = (
{
layerId = m01;
shapes = (
{
closed = 1;
nodes = (
(181,334,l),
(181,717,l),
(111,667,l),
(111,284,l)
);
},
{
closed = 1;
nodes = (
(181,-166,l),
(181,217,l),
(111,167,l),
(111,-216,l)
);
}
);
width = 600;
},
{
layerId = m002;
shapes = (
{
closed = 1;
nodes = (
(181,334,l),
(181,717,l),
(111,667,l),
(111,284,l)
);
},
{
closed = 1;
nodes = (
(181,-166,l),
(181,217,l),
(111,167,l),
(111,-216,l)
);
}
);
width = 600;
}
);
unicode = 166;
},
{
color = 3;
glyphname = dagger;
layers = (
{
layerId = m01;
shapes = (
{
closed = 1;
nodes = (
(345,331,l),
(345,584,l),
(433,584,l),
(466,644,l),
(345,644,l),
(345,733,l),
(265,733,l),
(265,644,l),
(178,644,l),
(141,584,l),
(265,584,l),
(265,331,l)
);
}
);
width = 600;
},
{
layerId = m002;
shapes = (
{
closed = 1;
nodes = (
(345,331,l),
(345,584,l),
(433,584,l),
(466,644,l),
(345,644,l),
(345,733,l),
(265,733,l),
(265,644,l),
(178,644,l),
(141,584,l),
(265,584,l),
(265,331,l)
);
}
);
width = 600;
}
);
unicode = 8224;
},
{
color = 3;
glyphname = literSign;
layers = (
{
layerId = m01;
shapes = (
{
closed = 1;
nodes = (
(470,21,l),
(322,21,o),
(229,109,o),
(229,250,cs),
(229,515,o),
(273,681,o),
(342,681,cs),
(391,681,o),
(422,601,o),
(422,473,cs),
(422,259,o),
(285,125,o),
(66,125,c),
(66,90,l),
(340,90,o),
(512,238,o),
(512,473,cs),
(512,622,o),
(446,716,o),
(342,716,cs),
(217,716,o),
(139,536,o),
(139,250,cs),
(139,88,o),
(267,-14,o),
(470,-14,c)
);
}
);
width = 578;
},
{
layerId = m002;
width = 600;
}
);
unicode = 8467;
},
{
color = 3;
glyphname = daggerdbl;
layers = (
{
layerId = m01;
shapes = (
{
closed = 1;
nodes = (
(345,331,l),
(345,417,l),
(433,417,l),
(466,477,l),
(345,477,l),
(345,584,l),
(433,584,l),
(466,644,l),
(345,644,l),
(345,733,l),
(265,733,l),
(265,644,l),
(178,644,l),
(141,584,l),
(265,584,l),
(265,477,l),
(178,477,l),
(141,417,l),
(265,417,l),
(265,331,l)
);
}
);
width = 600;
},
{
layerId = m002;
shapes = (
{
closed = 1;
nodes = (
(345,331,l),
(345,417,l),
(433,417,l),
(466,477,l),
(345,477,l),
(345,584,l),
(433,584,l),
(466,644,l),
(345,644,l),
(345,733,l),
(265,733,l),
(265,644,l),
(178,644,l),
(141,584,l),
(265,584,l),
(265,477,l),
(178,477,l),
(141,417,l),
(265,417,l),
(265,331,l)
);
}
);
width = 600;
}
);
unicode = 8225;
},
{
color = 3;
glyphname = estimated;
layers = (
{
layerId = m01;
shapes = (
{
closed = 1;
nodes = (
(551,-36,o),
(688,50,o),
(749,171,c),
(701,169,l),
(652,72,o),
(535,3,o),
(418,3,cs),
(333,3,o),
(234,47,o),
(179,109,c),
(179,283,l),
(770,283,l),
(770,492,o),
(624,639,o),
(418,639,cs),
(212,639,o),
(66,501,o),
(66,307,cs),
(66,106,o),
(212,-36,o),
(418,-36,cs)
);
},
{
closed = 1;
nodes = (
(179,496,l),
(226,556,o),
(325,599,o),
(417,599,cs),
(511,599,o),
(611,555,o),
(658,493,c),
(658,321,l),
(179,321,l)
);
}
);
width = 836;
},
{
layerId = m002;
width = 600;
}
);
unicode = 8494;
},
{
color = 3;
glyphname = cedi;
layers = (
{
layerId = m01;
shapes = (
{
ref = C;
},
{
closed = 1;
nodes = (
(390,-100,l),
(390,800,l),
(350,800,l),
(350,-100,l)
);
}
);
width = 700;
},
{
layerId = m002;
width = 600;
}
);
unicode = 8373;
},
{
glyphname = cent;
layers = (
{
layerId = m01;
shapes = (
{
closed = 1;
nodes = (
(347,91,o),
(417,110,o),
(469,138,c),
(469,243,l),
(432,243,l),
(432,170,o),
(384,118,o),
(315,118,cs),
(214,118,o),
(143,233,o),
(143,396,cs),
(143,505,o),
(202,582,o),
(286,582,cs),
(372,582,o),
(432,530,o),
(432,457,c),
(469,457,l),
(469,562,l),
(417,590,o),
(347,609,o),
(300,609,cs),
(157,608,o),
(55,500,o),
(55,348,cs),
(55,197,o),
(157,91,o),
(300,91,cs)
);
},
{
closed = 1;
nodes = (
(320,-100,l),
(320,800,l),
(280,800,l),
(280,-100,l)
);
}
);
width = 524;
},
{
layerId = m002;
shapes = (
{
closed = 1;
nodes = (
(360,89,o),
(451,115,o),
(495,144,c),
(495,245,l),
(426,245,l),
(427,165,o),
(366,120,o),
(315,120,cs),
(236,120,o),
(169,228,o),
(169,396,cs),
(169,511,o),
(222,580,o),
(286,580,cs),
(356,580,o),
(427,536,o),
(426,455,c),
(495,455,l),
(495,556,l),
(451,585,o),
(360,611,o),
(300,611,cs),
(144,610,o),
(29,503,o),
(29,348,cs),
(29,192,o),
(146,89,o),
(300,89,cs)
);
},
{
closed = 1;
nodes = (
(336,-102,l),
(336,802,l),
(264,802,l),
(264,-102,l)
);
}
);
width = 524;
}
);
unicode = 162;
},
{
color = 3;
glyphname = colonsign;
layers = (
{
layerId = m01;
shapes = (
{
ref = C;
},
{
closed = 1;
nodes = (
(170,-100,l),
(470,800,l),
(430,800,l),
(130,-100,l)
);
},
{
closed = 1;
nodes = (
(280,-100,l),
(580,800,l),
(540,800,l),
(240,-100,l)
);
}
);
width = 700;
},
{
layerId = m002;
width = 600;
}
);
unicode = 8353;
},
{
glyphname = currency;
layers = (
{
layerId = m01;
shapes = (
{
closed = 1;
nodes = (
(240,102,o),
(360,102,o),
(434,176,cs),
(509,250,o),
(509,370,o),
(434,445,cs),
(360,519,o),
(240,519,o),
(166,445,cs),
(92,370,o),
(92,250,o),
(166,176,cs)
);
},
{
closed = 1;
nodes = (
(214,187,l),
(179,223,l),
(88,132,l),
(123,97,l)
);
},
{
closed = 1;
nodes = (
(214,432,l),
(123,522,l),
(88,487,l),
(179,397,l)
);
},
{
closed = 1;
nodes = (
(513,133,l),
(422,223,l),
(387,188,l),
(478,98,l)
);
},
{
closed = 1;
nodes = (
(147,266,o),
(147,353,o),
(202,409,cs),
(256,463,o),
(345,464,o),
(399,409,cs),
(454,354,o),
(454,266,o),
(399,211,cs),
(344,156,o),
(256,156,o),
(201,211,cs)
);
},
{
closed = 1;
nodes = (
(513,488,l),
(478,523,l),
(387,433,l),
(422,397,l)
);
}
);
width = 600;
},
{
layerId = m002;
shapes = (
{
closed = 1;
nodes = (
(240,102,o),
(360,102,o),
(434,176,cs),
(509,250,o),
(509,370,o),
(434,445,cs),
(360,519,o),
(240,519,o),
(166,445,cs),
(92,370,o),
(92,250,o),
(166,176,cs)
);
},
{
closed = 1;
nodes = (
(214,187,l),
(179,223,l),
(88,132,l),
(123,97,l)
);
},
{
closed = 1;
nodes = (
(214,432,l),
(123,522,l),
(88,487,l),
(179,397,l)
);
},
{
closed = 1;
nodes = (
(513,133,l),
(422,223,l),
(387,188,l),
(478,98,l)
);
},
{
closed = 1;
nodes = (
(147,266,o),
(147,353,o),
(202,409,cs),
(256,463,o),
(345,464,o),
(399,409,cs),
(454,354,o),
(454,266,o),
(399,211,cs),
(344,156,o),
(256,156,o),
(201,211,cs)
);
},
{
closed = 1;
nodes = (
(513,488,l),
(478,523,l),
(387,433,l),
(422,397,l)
);
}
);
width = 600;
}
);
unicode = 164;
},
{
glyphname = dollar;
layers = (
{
layerId = m01;
shapes = (
{
closed = 1;
nodes = (
(429,-16,o),
(522,66,o),
(522,183,cs),
(522,357,o),
(170,442,o),
(170,574,cs),
(170,637,o),
(223,682,o),
(298,682,cs),
(366,682,o),
(420,614,o),
(445,518,c),
(485,518,l),
(485,662,l),
(452,694,o),
(375,716,o),
(298,716,cs),
(169,716,o),
(78,639,o),
(78,529,cs),
(78,355,o),
(443,250,o),
(443,139,cs),
(443,68,o),
(384,18,o),
(298,18,cs),
(220,18,o),
(161,92,o),
(137,197,c),
(96,197,l),
(82,44,l),
(138,8,o),
(227,-16,o),
(298,-16,cs)
);
},
{
closed = 1;
nodes = (
(320,-100,l),
(320,800,l),
(280,800,l),
(280,-100,l)
);
}
);
width = 600;
},
{
layerId = m002;
shapes = (
{
closed = 1;
nodes = (
(440,-18,o),
(548,64,o),
(548,183,cs),
(548,358,o),
(196,435,o),
(196,574,cs),
(196,643,o),
(239,680,o),
(298,680,cs),
(346,680,o),
(413,621,o),
(440,516,c),
(511,516,l),
(511,653,l),
(497,685,o),
(393,718,o),
(298,718,cs),
(157,718,o),
(52,640,o),
(52,529,cs),
(52,354,o),
(417,257,o),
(417,139,cs),
(417,62,o),
(368,20,o),
(298,20,cs),
(239,20,o),
(168,85,o),
(142,199,c),
(70,199,l),
(57,50,l),
(103,14,o),
(214,-18,o),
(298,-18,cs)
);
},
{
closed = 1;
nodes = (
(336,-102,l),
(336,802,l),
(264,802,l),
(264,-102,l)
);
}
);
width = 600;
}
);
unicode = 36;
},
{
color = 3;
glyphname = dong;
layers = (
{
layerId = m01;
shapes = (
{
closed = 1;
nodes = (
(520,0,l),
(520,65,l),
(80,65,l),
(80,0,l)
);
},
{
pos = (33,160);
ref = dcroat;
scale = (0.9274,0.842);
}
);
width = 600;
},
{
layerId = m002;
width = 600;
}
);
unicode = 8363;
},
{
glyphname = euro;
layers = (
{
layerId = m01;
shapes = (
{
closed = 1;
nodes = (
(482,-15,o),
(559,13,o),
(617,52,c),
(617,200,l),
(579,200,l),
(579,97,o),
(526,24,o),
(450,24,cs),
(329,24,o),
(244,186,o),
(244,415,cs),
(244,568,o),
(313,676,o),
(410,676,cs),
(509,676,o),
(579,603,o),
(579,500,c),
(617,500,l),
(617,648,l),
(559,687,o),
(482,715,o),
(430,715,cs),
(257,713,o),
(135,561,o),
(135,347,cs),
(135,135,o),
(257,-15,o),
(430,-15,cs)
);
},
{
closed = 1;
nodes = (
(415,287,l),
(415,347,l),
(55,347,l),
(55,287,l)
);
},
{
closed = 1;
nodes = (
(415,407,l),
(415,467,l),
(55,467,l),
(55,407,l)
);
}
);
width = 672;
},
{
layerId = m002;
shapes = (
{
closed = 1;
nodes = (
(496,-17,o),
(592,20,o),
(643,59,c),
(643,202,l),
(573,202,l),
(574,92,o),
(506,26,o),
(450,26,cs),
(351,26,o),
(270,181,o),
(270,415,cs),
(270,573,o),
(334,674,o),
(410,674,cs),
(491,674,o),
(574,608,o),
(573,498,c),
(643,498,l),
(643,641,l),
(592,680,o),
(496,717,o),
(430,717,cs),
(236,715,o),
(109,559,o),
(109,347,cs),
(109,138,o),
(236,-17,o),
(430,-17,cs)
);
},
{
closed = 1;
nodes = (
(441,285,l),
(441,349,l),
(29,349,l),
(29,285,l)
);
},
{
closed = 1;
nodes = (
(441,405,l),
(441,469,l),
(29,469,l),
(29,405,l)
);
}
);
width = 672;
}
);
unicode = 8364;
},
{
color = 3;
glyphname = guarani;
layers = (
{
layerId = m01;
shapes = (
{
ref = G;
},
{
closed = 1;
nodes = (
(390,-100,l),
(390,800,l),
(350,800,l),
(350,-100,l)
);
}
);
width = 737;
},
{
layerId = m002;
width = 600;
}
);
unicode = 8370;
},
{
glyphname = hryvnia;
layers = (
{
layerId = m01;
shapes = (
{
closed = 1;
nodes = (
(423,414,l),
(455,449,o),
(496,487,o),
(496,529,cs),
(496,639,o),
(405,716,o),
(276,716,cs),
(199,716,o),
(122,694,o),
(89,662,c),
(89,518,l),
(117,518,l),
(142,614,o),
(208,682,o),
(276,682,cs),
(351,682,o),
(404,637,o),
(404,574,cs),
(404,515,o),
(315,466,o),
(288,414,c)
);
},
{
closed = 1;
nodes = (
(383,-16,o),
(460,6,o),
(493,38,c),
(493,182,l),
(465,182,l),
(440,86,o),
(374,18,o),
(306,18,cs),
(231,18,o),
(178,63,o),
(178,126,cs),
(178,185,o),
(267,234,o),
(294,286,c),
(159,286,l),
(127,251,o),
(86,213,o),
(86,171,cs),
(86,61,o),
(177,-16,o),
(306,-16,cs)
);
},
{
closed = 1;
nodes = (
(550,253,l),
(550,318,l),
(50,318,l),
(50,253,l)
);
},
{
closed = 1;
nodes = (
(550,376,l),
(550,441,l),
(50,441,l),
(50,376,l)
);
}
);
width = 600;
},
{
associatedMasterId = m01;
layerId = "0E46F006-6230-4FF2-8CC4-AF8DEB0000FA";
name = "24. Dez. 23, 14:01";
shapes = (
{
closed = 1;
nodes = (
(50,376,l),
(550,376,l),
(550,441,l),
(50,441,l)
);
},
{
closed = 1;
nodes = (
(50,253,l),
(550,253,l),
(550,318,l),
(50,318,l)
);
},
{
closed = 1;
nodes = (
(393,414,l),
(453,463,o),
(496,535,o),
(496,587,cs),
(496,663,o),
(417,716,o),
(306,716,cs),
(217,716,o),
(132,694,o),
(99,662,c),
(99,518,l),
(127,518,l),
(152,614,o),
(218,682,o),
(286,682,cs),
(349,682,o),
(394,625,o),
(394,544,cs),
(394,506,o),
(363,452,o),
(318,414,c)
);
},
{
closed = 1;
nodes = (
(189,285,l),
(129,236,o),
(86,164,o),
(86,112,cs),
(86,36,o),
(165,-17,o),
(276,-17,cs),
(365,-17,o),
(450,5,o),
(483,37,c),
(483,181,l),
(455,181,l),
(430,85,o),
(364,17,o),
(296,17,cs),
(233,17,o),
(188,74,o),
(188,155,cs),
(188,193,o),
(219,247,o),
(264,285,c)
);
}
);
width = 600;
},
{
layerId = m002;
shapes = (
{
closed = 1;
nodes = (
(442,412,l),
(482,456,o),
(522,493,o),
(522,529,cs),
(522,640,o),
(417,718,o),
(276,718,cs),
(181,718,o),
(77,685,o),
(63,653,c),
(63,516,l),
(122,516,l),
(149,621,o),
(226,680,o),
(276,680,cs),
(335,680,o),
(378,643,o),
(378,574,cs),
(378,502,o),
(288,464,o),
(263,412,c)
);
},
{
closed = 1;
nodes = (
(401,-18,o),
(505,15,o),
(519,47,c),
(519,184,l),
(460,184,l),
(433,79,o),
(356,20,o),
(306,20,cs),
(247,20,o),
(204,57,o),
(204,126,cs),
(204,198,o),
(294,236,o),
(319,288,c),
(140,288,l),
(100,244,o),
(60,207,o),
(60,171,cs),
(60,60,o),
(165,-18,o),
(306,-18,cs)
);
},
{
closed = 1;
nodes = (
(576,251,l),
(576,320,l),
(24,320,l),
(24,251,l)
);
},
{
closed = 1;
nodes = (
(576,374,l),
(576,443,l),
(24,443,l),
(24,374,l)
);
}
);
width = 600;
},
{
associatedMasterId = m002;
layerId = "10B33CED-092C-41A3-8281-73FA458556EE";
name = "24. Dez. 23, 14:01";
shapes = (
{
closed = 1;
nodes = (
(50,376,l),
(550,376,l),
(550,441,l),
(50,441,l)
);
},
{
closed = 1;
nodes = (
(50,253,l),
(550,253,l),
(550,318,l),
(50,318,l)
);
},
{
closed = 1;
nodes = (
(393,414,l),
(453,463,o),
(496,535,o),
(496,587,cs),
(496,663,o),
(417,716,o),
(306,716,cs),
(217,716,o),
(132,694,o),
(99,662,c),
(99,518,l),
(127,518,l),
(152,614,o),
(218,682,o),
(286,682,cs),
(349,682,o),
(394,625,o),
(394,544,cs),
(394,506,o),
(363,452,o),
(318,414,c)
);
},
{
closed = 1;
nodes = (
(189,285,l),
(129,236,o),
(86,164,o),
(86,112,cs),
(86,36,o),
(165,-17,o),
(276,-17,cs),
(365,-17,o),
(450,5,o),
(483,37,c),
(483,181,l),
(455,181,l),
(430,85,o),
(364,17,o),
(296,17,cs),
(233,17,o),
(188,74,o),
(188,155,cs),
(188,193,o),
(219,247,o),
(264,285,c)
);
}
);
width = 600;
}
);
unicode = 8372;
},
{
color = 3;
glyphname = kip;
layers = (
{
layerId = m01;
shapes = (
{
closed = 1;
nodes = (
(550,333,l),
(550,398,l),
(50,398,l),
(50,333,l)
);
},
{
ref = K;
}
);
width = 738;
},
{
layerId = m002;
width = 600;
}
);
unicode = 8365;
},
{
color = 3;
glyphname = lari;
layers = (
{
layerId = m01;
shapes = (
{
closed = 1;
nodes = (
(668,3,l),
(668,70,l),
(406,70,ls),
(260,70,o),
(156,196,o),
(156,374,cs),
(156,525,o),
(255,632,o),
(394,632,cs),
(535,632,o),
(635,525,o),
(635,374,c),
(715,374,l),
(715,566,o),
(582,702,o),
(394,702,cs),
(202,702,o),
(66,566,o),
(66,374,cs),
(66,251,o),
(126,125,o),
(210,70,c),
(68,70,l),
(70,3,l)
);
},
{
pos = (164,549);
ref = dblverticalbar;
scale = (0.7607,0.2994);
}
);
width = 781;
},
{
layerId = m002;
width = 600;
}
);
unicode = 8382;
},
{
color = 3;
glyphname = liraTurkish;
layers = (
{
layerId = m01;
shapes = (
{
closed = 1;
nodes = (
(247,0,l),
(431,0,o),
(561,139,o),
(561,335,c),
(471,335,l),
(471,192,o),
(378,90,o),
(247,90,c),
(250,90,l),
(250,699,l),
(160,699,l),
(160,0,l)
);
},
{
closed = 1;
nodes = (
(361,441,l),
(361,506,l),
(46,356,l),
(46,291,l)
);
},
{
closed = 1;
nodes = (
(361,564,l),
(361,629,l),
(46,479,l),
(46,414,l)
);
}
);
width = 600;
},
{
layerId = m002;
width = 600;
}
);
unicode = 8378;
},
{
color = 3;
glyphname = manat;
layers = (
{
layerId = m01;
shapes = (
{
closed = 1;
nodes = (
(156,0,l),
(156,344,ls),
(156,457,o),
(228,537,o),
(329,537,c),
(329,617,l),
(175,617,o),
(66,504,o),
(66,344,cs),
(66,264,o),
(66,135,o),
(66,0,c)
);
},
{
closed = 1;
nodes = (
(364,0,l),
(364,728,l),
(292,728,l),
(292,0,l)
);
},
{
closed = 1;
nodes = (
(592,0,l),
(592,135,o),
(592,264,o),
(592,344,cs),
(592,504,o),
(483,617,o),
(329,617,c),
(329,537,l),
(430,537,o),
(502,457,o),
(502,344,cs),
(502,0,l)
);
}
);
width = 658;
},
{
layerId = m002;
width = 600;
}
);
unicode = 8380;
},
{
color = 3;
glyphname = naira;
layers = (
{
layerId = m01;
shapes = (
{
closed = 1;
nodes = (
(741,304,l),
(741,369,l),
(28,369,l),
(28,304,l)
);
},
{
ref = N;
}
);
width = 781;
},
{
layerId = m002;
width = 600;
}
);
unicode = 8358;
},
{
color = 3;
glyphname = peso;
layers = (
{
layerId = m01;
shapes = (
{
closed = 1;
nodes = (
(510,419,l),
(510,471,l),
(50,471,l),
(50,419,l)
);
},
{
closed = 1;
nodes = (
(510,517,l),
(510,568,l),
(50,568,l),
(50,517,l)
);
},
{
ref = P;
}
);
width = 600;
},
{
layerId = m002;
width = 600;
}
);
unicode = 8369;
},
{
color = 3;
glyphname = ruble;
layers = (
{
layerId = m01;
shapes = (
{
closed = 1;
nodes = (
(348,0,l),
(348,20,l),
(244,50,l),
(244,354,l),
(278,354,ls),
(449,354,o),
(556,388,o),
(556,527,cs),
(556,628,o),
(462,700,o),
(328,700,cs),
(58,700,l),
(58,680,l),
(149,650,l),
(149,50,l),
(58,20,l),
(58,0,l)
);
},
{
closed = 1;
nodes = (
(556,181,l),
(556,246,l),
(58,246,l),
(58,181,l)
);
},
{
closed = 1;
nodes = (
(556,304,l),
(556,369,l),
(58,369,l),
(58,304,l)
);
},
{
closed = 1;
nodes = (
(244,650,l),
(298,650,ls),
(385,650,o),
(446,586,o),
(446,495,cs),
(446,400,o),
(393,369,o),
(308,369,cs),
(244,369,l)
);
}
);
width = 600;
},
{
layerId = m002;
shapes = (
{
closed = 1;
nodes = (
(374,-2,l),
(374,17,l),
(270,47,l),
(270,352,l),
(278,352,ls),
(455,352,o),
(582,388,o),
(582,527,cs),
(582,626,o),
(474,702,o),
(328,702,cs),
(32,702,l),
(32,684,l),
(123,654,l),
(123,46,l),
(32,16,l),
(32,-2,l)
);
},
{
closed = 1;
nodes = (
(582,179,l),
(582,248,l),
(32,248,l),
(32,179,l)
);
},
{
closed = 1;
nodes = (
(582,302,l),
(582,371,l),
(32,371,l),
(32,302,l)
);
},
{
closed = 1;
nodes = (
(270,648,l),
(298,648,ls),
(367,648,o),
(420,592,o),
(420,495,cs),
(420,394,o),
(380,371,o),
(308,371,cs),
(270,371,l)
);
}
);
width = 600;
}
);
unicode = 8381;
},
{
color = 3;
glyphname = rupeeIndian;
layers = (
{
layerId = m01;
shapes = (
{
closed = 1;
nodes = (
(172,300,ls),
(323,300,o),
(430,394,o),
(430,527,cs),
(430,628,o),
(336,700,o),
(202,700,c),
(172,650,l),
(259,650,o),
(320,586,o),
(320,495,cs),
(320,404,o),
(271,340,o),
(202,340,cs),
(58,340,l),
(58,300,l)
);
},
{
closed = 1;
nodes = (
(544,0,l),
(544,19,l),
(495,35,ls),
(463,45,o),
(443,61,o),
(427,91,cs),
(293,336,l),
(192,316,l),
(373,0,l)
);
},
{
closed = 1;
nodes = (
(556,512,l),
(556,577,l),
(58,577,l),
(58,512,l)
);
},
{
closed = 1;
nodes = (
(556,635,l),
(556,700,l),
(58,700,l),
(58,635,l)
);
}
);
width = 600;
},
{
layerId = m002;
shapes = (
{
closed = 1;
nodes = (
(172,298,ls),
(334,298,o),
(456,392,o),
(456,527,cs),
(456,631,o),
(338,709,o),
(180,701,c),
(146,646,l),
(227,661,o),
(294,604,o),
(294,495,cs),
(294,398,o),
(251,342,o),
(202,342,cs),
(32,342,l),
(32,298,l)
);
},
{
closed = 1;
nodes = (
(570,-2,l),
(570,15,l),
(503,37,ls),
(483,43,o),
(473,48,o),
(450,92,cs),
(313,343,l),
(170,315,l),
(351,-2,l)
);
},
{
closed = 1;
nodes = (
(582,510,l),
(582,579,l),
(32,579,l),
(32,510,l)
);
},
{
closed = 1;
nodes = (
(582,633,l),
(582,702,l),
(32,702,l),
(32,633,l)
);
}
);
width = 600;
}
);
unicode = 8377;
},
{
color = 3;
glyphname = sheqel;
layers = (
{
layerId = m01;
shapes = (
{
closed = 1;
nodes = (
(447,5,o),
(563,14,o),
(600,25,c),
(600,706,l),
(510,686,l),
(510,55,l),
(409,55,ls),
(324,55,o),
(256,129,o),
(255,221,cs),
(255,494,l),
(175,474,l),
(175,161,ls),
(175,74,o),
(248,5,o),
(339,5,cs)
);
},
{
closed = 1;
nodes = (
(90,20,l),
(90,651,l),
(191,651,ls),
(276,651,o),
(344,577,o),
(345,485,cs),
(345,212,l),
(425,232,l),
(425,545,ls),
(425,632,o),
(352,701,o),
(261,701,cs),
(153,701,o),
(37,692,o),
(0,681,c),
(0,0,l)
);
}
);
width = 600;
},
{
layerId = m002;
shapes = (
{
closed = 1;
nodes = (
(449,3,o),
(572,13,o),
(626,29,c),
(626,715,l),
(494,683,l),
(494,57,l),
(409,57,ls),
(343,57,o),
(271,123,o),
(271,221,cs),
(271,504,l),
(159,471,l),
(159,161,ls),
(159,76,o),
(231,3,o),
(339,3,cs)
);
},
{
closed = 1;
nodes = (
(106,23,l),
(106,649,l),
(191,649,ls),
(257,649,o),
(329,583,o),
(329,485,cs),
(329,202,l),
(441,235,l),
(441,545,ls),
(441,630,o),
(369,703,o),
(261,703,cs),
(151,703,o),
(28,693,o),
(-26,677,c),
(-26,-9,l)
);
}
);
width = 600;
}
);
unicode = 8362;
},
{
glyphname = sterling;
layers = (
{
layerId = m01;
shapes = (
{
closed = 1;
nodes = (
(199,469,l),
(199,600,o),
(225,683,o),
(299,683,cs),
(381,683,o),
(425,611,o),
(446,543,c),
(487,543,l),
(487,693,l),
(466,707,o),
(409,715,o),
(328,715,cs),
(181,715,o),
(109,608,o),
(109,437,c)
);
},
{
closed = 1;
nodes = (
(430,0,l),
(430,50,l),
(99,50,l),
(8,20,l),
(8,0,l)
);
},
{
closed = 1;
nodes = (
(199,50,l),
(199,469,l),
(109,437,l),
(109,50,l)
);
},
{
closed = 1;
nodes = (
(321,323,l),
(321,383,l),
(2,383,l),
(0,323,l)
);
},
{
closed = 1;
nodes = (
(495,0,l),
(530,197,l),
(511,204,l),
(430,50,l),
(430,0,l)
);
}
);
width = 530;
},
{
layerId = m002;
shapes = (
{
closed = 1;
nodes = (
(225,473,l),
(226,605,o),
(250,681,o),
(299,681,cs),
(360,681,o),
(418,618,o),
(442,541,c),
(513,541,l),
(513,687,l),
(483,707,o),
(412,717,o),
(328,717,cs),
(153,717,o),
(79,598,o),
(83,423,c)
);
},
{
closed = 1;
nodes = (
(456,-2,l),
(456,52,l),
(91,52,l),
(-18,16,l),
(-18,-2,l)
);
},
{
closed = 1;
nodes = (
(225,48,l),
(225,483,l),
(83,433,l),
(83,48,l)
);
},
{
closed = 1;
nodes = (
(347,321,l),
(347,385,l),
(-24,385,l),
(-26,321,l)
);
},
{
closed = 1;
nodes = (
(520,-2,l),
(555,193,l),
(514,216,l),
(424,45,l),
(404,-2,l)
);
}
);
width = 530;
}
);
unicode = 163;
},
{
color = 3;
glyphname = tenge;
layers = (
{
layerId = m01;
shapes = (
{
closed = 1;
nodes = (
(520,634,l),
(520,699,l),
(80,699,l),
(80,634,l)
);
},
{
pos = (30,0);
ref = T;
scale = (0.8032,0.8032);
}
);
width = 600;
},
{
layerId = m002;
width = 600;
}
);
unicode = 8376;
},
{
color = 3;
glyphname = tugrik;
layers = (
{
layerId = m01;
shapes = (
{
closed = 1;
nodes = (
(491,251,l),
(491,316,l),
(176,166,l),
(176,101,l)
);
},
{
closed = 1;
nodes = (
(491,374,l),
(491,439,l),
(176,289,l),
(176,224,l)
);
},
{
ref = T;
}
);
width = 671;
},
{
layerId = m002;
width = 600;
}
);
unicode = 8366;
},
{
color = 3;
glyphname = won;
layers = (
{
layerId = m01;
shapes = (
{
ref = W;
},
{
closed = 1;
nodes = (
(1041,304,l),
(1041,369,l),
(28,369,l),
(28,304,l)
);
}
);
width = 1045;
},
{
layerId = m002;
width = 600;
}
);
unicode = 8361;
},
{
glyphname = yen;
layers = (
{
layerId = m01;
shapes = (
{
closed = 1;
nodes = (
(572,650,l),
(510,650,l),
(360,390,l),
(215,650,l),
(101,650,l),
(323,251,l)
);
},
{
closed = 1;
nodes = (
(479,0,l),
(479,19,l),
(385,50,l),
(290,50,l),
(199,20,l),
(199,0,l)
);
},
{
closed = 1;
nodes = (
(585,181,l),
(585,246,l),
(87,246,l),
(87,181,l)
);
},
{
closed = 1;
nodes = (
(385,50,l),
(385,373,l),
(290,373,l),
(290,50,l)
);
},
{
closed = 1;
nodes = (
(585,304,l),
(585,369,l),
(87,369,l),
(87,304,l)
);
},
{
closed = 1;
nodes = (
(215,650,l),
(309,681,l),
(309,700,l),
(10,700,l),
(10,680,l),
(101,650,l)
);
},
{
closed = 1;
nodes = (
(572,650,l),
(666,681,l),
(666,700,l),
(419,700,l),
(419,680,l),
(510,650,l)
);
}
);
width = 666;
},
{
layerId = m002;
shapes = (
{
closed = 1;
nodes = (
(596,652,l),
(488,652,l),
(360,431,l),
(237,652,l),
(77,652,l),
(321,212,l)
);
},
{
closed = 1;
nodes = (
(505,-2,l),
(505,15,l),
(393,52,l),
(282,52,l),
(173,16,l),
(173,-2,l)
);
},
{
closed = 1;
nodes = (
(611,179,l),
(611,248,l),
(61,248,l),
(61,179,l)
);
},
{
closed = 1;
nodes = (
(411,48,l),
(411,375,l),
(264,375,l),
(264,48,l)
);
},
{
closed = 1;
nodes = (
(611,302,l),
(611,371,l),
(61,371,l),
(61,302,l)
);
},
{
closed = 1;
nodes = (
(223,648,l),
(335,685,l),
(335,702,l),
(-16,702,l),
(-16,684,l),
(93,648,l)
);
},
{
closed = 1;
nodes = (
(580,648,l),
(692,685,l),
(692,702,l),
(393,702,l),
(393,684,l),
(502,648,l)
);
}
);
width = 666;
}
);
unicode = 165;
},
{
glyphname = plus;
layers = (
{
layerId = m01;
shapes = (
{
closed = 1;
nodes = (
(550,246,l),
(550,316,l),
(50,316,l),
(50,246,l)
);
},
{
closed = 1;
nodes = (
(334,28,l),
(334,528,l),
(264,528,l),
(264,28,l)
);
}
);
width = 600;
},
{
layerId = m002;
shapes = (
{
closed = 1;
nodes = (
(550,246,l),
(550,316,l),
(50,316,l),
(50,246,l)
);
},
{
closed = 1;
nodes = (
(334,28,l),
(334,528,l),
(264,528,l),
(264,28,l)
);
}
);
width = 600;
}
);
unicode = 43;
},
{
glyphname = minus;
layers = (
{
layerId = m01;
shapes = (
{
closed = 1;
nodes = (
(530,246,l),
(530,316,l),
(70,316,l),
(70,246,l)
);
}
);
width = 600;
},
{
layerId = m002;
shapes = (
{
closed = 1;
nodes = (
(530,246,l),
(530,316,l),
(70,316,l),
(70,246,l)
);
}
);
width = 600;
}
);
unicode = 8722;
},
{
glyphname = multiply;
layers = (
{
layerId = m01;
shapes = (
{
closed = 1;
nodes = (
(504,128,l),
(150,482,l),
(101,432,l),
(454,79,l)
);
},
{
closed = 1;
nodes = (
(501,431,l),
(451,480,l),
(98,127,l),
(147,77,l)
);
}
);
width = 600;
},
{
layerId = m002;
shapes = (
{
closed = 1;
nodes = (
(504,128,l),
(150,482,l),
(101,432,l),
(454,79,l)
);
},
{
closed = 1;
nodes = (
(501,431,l),
(451,480,l),
(98,127,l),
(147,77,l)
);
}
);
width = 600;
}
);
unicode = 215;
},
{
glyphname = divide;
layers = (
{
layerId = m01;
shapes = (
{
closed = 1;
nodes = (
(530,246,l),
(530,316,l),
(70,316,l),
(70,246,l)
);
},
{
closed = 1;
nodes = (
(327,46,o),
(354,73,o),
(354,107,cs),
(354,141,o),
(327,168,o),
(294,168,cs),
(259,168,o),
(232,141,o),
(232,107,cs),
(232,73,o),
(259,46,o),
(294,46,cs)
);
},
{
closed = 1;
nodes = (
(327,388,o),
(354,415,o),
(354,449,cs),
(354,483,o),
(327,510,o),
(294,510,cs),
(259,510,o),
(232,483,o),
(232,449,cs),
(232,415,o),
(259,388,o),
(294,388,cs)
);
}
);
width = 600;
},
{
layerId = m002;
shapes = (
{
closed = 1;
nodes = (
(530,246,l),
(530,316,l),
(70,316,l),
(70,246,l)
);
},
{
closed = 1;
nodes = (
(327,46,o),
(354,73,o),
(354,107,cs),
(354,141,o),
(327,168,o),
(294,168,cs),
(259,168,o),
(232,141,o),
(232,107,cs),
(232,73,o),
(259,46,o),
(294,46,cs)
);
},
{
closed = 1;
nodes = (
(327,388,o),
(354,415,o),
(354,449,cs),
(354,483,o),
(327,510,o),
(294,510,cs),
(259,510,o),
(232,483,o),
(232,449,cs),
(232,415,o),
(259,388,o),
(294,388,cs)
);
}
);
width = 600;
}
);
unicode = 247;
},
{
glyphname = equal;
layers = (
{
layerId = m01;
shapes = (
{
closed = 1;
nodes = (
(530,346,l),
(530,416,l),
(70,416,l),
(70,346,l)
);
},
{
closed = 1;
nodes = (
(530,145,l),
(530,215,l),
(70,215,l),
(70,145,l)
);
}
);
width = 600;
},
{
layerId = m002;
shapes = (
{
closed = 1;
nodes = (
(530,346,l),
(530,416,l),
(70,416,l),
(70,346,l)
);
},
{
closed = 1;
nodes = (
(530,145,l),
(530,215,l),
(70,215,l),
(70,145,l)
);
}
);
width = 600;
}
);
unicode = 61;
},
{
color = 3;
glyphname = notequal;
layers = (
{
layerId = m01;
shapes = (
{
closed = 1;
nodes = (
(501,431,l),
(451,480,l),
(98,127,l),
(147,77,l)
);
},
{
closed = 1;
nodes = (
(530,145,l),
(530,215,l),
(70,215,l),
(70,145,l)
);
},
{
closed = 1;
nodes = (
(530,346,l),
(530,416,l),
(70,416,l),
(70,346,l)
);
}
);
width = 600;
},
{
layerId = m002;
shapes = (
{
closed = 1;
nodes = (
(501,431,l),
(451,480,l),
(98,127,l),
(147,77,l)
);
},
{
closed = 1;
nodes = (
(530,145,l),
(530,215,l),
(70,215,l),
(70,145,l)
);
},
{
closed = 1;
nodes = (
(530,346,l),
(530,416,l),
(70,416,l),
(70,346,l)
);
}
);
width = 600;
}
);
unicode = 8800;
},
{
glyphname = greater;
layers = (
{
layerId = m01;
shapes = (
{
closed = 1;
nodes = (
(544,247,l),
(544,310,l),
(99,514,l),
(70,446,l),
(447,282,l),
(69,111,l),
(100,45,l)
);
}
);
width = 600;
},
{
layerId = m002;
shapes = (
{
closed = 1;
nodes = (
(544,247,l),
(544,310,l),
(99,514,l),
(70,446,l),
(447,282,l),
(69,111,l),
(100,45,l)
);
}
);
width = 600;
}
);
unicode = 62;
},
{
glyphname = less;
layers = (
{
layerId = m01;
shapes = (
{
closed = 1;
nodes = (
(544,111,l),
(166,282,l),
(543,446,l),
(514,514,l),
(69,310,l),
(69,247,l),
(513,45,l)
);
}
);
width = 600;
},
{
layerId = m002;
shapes = (
{
closed = 1;
nodes = (
(544,111,l),
(166,282,l),
(543,446,l),
(514,514,l),
(69,310,l),
(69,247,l),
(513,45,l)
);
}
);
width = 600;
}
);
unicode = 60;
},
{
color = 3;
glyphname = greaterequal;
layers = (
{
layerId = m01;
shapes = (
{
closed = 1;
nodes = (
(530,307,l),
(530,370,l),
(85,534,l),
(56,466,l),
(433,342,l),
(55,211,l),
(86,145,l)
);
},
{
closed = 1;
nodes = (
(530,41,l),
(530,111,l),
(70,111,l),
(70,41,l)
);
}
);
width = 600;
},
{
layerId = m002;
shapes = (
{
closed = 1;
nodes = (
(530,307,l),
(530,370,l),
(85,534,l),
(56,466,l),
(433,342,l),
(55,211,l),
(86,145,l)
);
},
{
closed = 1;
nodes = (
(530,41,l),
(530,111,l),
(70,111,l),
(70,41,l)
);
}
);
width = 600;
}
);
unicode = 8805;
},
{
color = 3;
glyphname = lessequal;
layers = (
{
layerId = m01;
shapes = (
{
closed = 1;
nodes = (
(530,211,l),
(152,342,l),
(529,466,l),
(500,534,l),
(55,370,l),
(55,307,l),
(499,145,l)
);
},
{
closed = 1;
nodes = (
(515,41,l),
(515,111,l),
(55,111,l),
(55,41,l)
);
}
);
width = 600;
},
{
layerId = m002;
shapes = (
{
closed = 1;
nodes = (
(530,211,l),
(152,342,l),
(529,466,l),
(500,534,l),
(55,370,l),
(55,307,l),
(499,145,l)
);
},
{
closed = 1;
nodes = (
(515,41,l),
(515,111,l),
(55,111,l),
(55,41,l)
);
}
);
width = 600;
}
);
unicode = 8804;
},
{
color = 3;
glyphname = plusminus;
layers = (
{
layerId = m01;
shapes = (
{
closed = 1;
nodes = (
(540,317,l),
(540,387,l),
(60,387,l),
(60,317,l)
);
},
{
closed = 1;
nodes = (
(535,41,l),
(535,111,l),
(65,111,l),
(65,41,l)
);
},
{
closed = 1;
nodes = (
(334,172,l),
(334,528,l),
(264,528,l),
(264,172,l)
);
}
);
width = 600;
},
{
layerId = m002;
shapes = (
{
closed = 1;
nodes = (
(540,317,l),
(540,387,l),
(60,387,l),
(60,317,l)
);
},
{
closed = 1;
nodes = (
(535,41,l),
(535,111,l),
(65,111,l),
(65,41,l)
);
},
{
closed = 1;
nodes = (
(334,172,l),
(334,528,l),
(264,528,l),
(264,172,l)
);
}
);
width = 600;
}
);
unicode = 177;
},
{
color = 3;
glyphname = approxequal;
layers = (
{
layerId = m01;
shapes = (
{
closed = 1;
nodes = (
(498,285,o),
(523,355,o),
(541,446,c),
(480,455,l),
(469,416,o),
(465,365,o),
(413,365,cs),
(339,365,o),
(299,475,o),
(200,475,cs),
(101,475,o),
(76,405,o),
(58,314,c),
(119,305,l),
(130,344,o),
(134,395,o),
(186,395,cs),
(260,395,o),
(300,285,o),
(399,285,cs)
);
},
{
closed = 1;
nodes = (
(498,85,o),
(523,155,o),
(541,246,c),
(480,255,l),
(469,216,o),
(465,165,o),
(413,165,cs),
(339,165,o),
(299,275,o),
(200,275,cs),
(101,275,o),
(76,205,o),
(58,114,c),
(119,105,l),
(130,144,o),
(134,195,o),
(186,195,cs),
(260,195,o),
(300,85,o),
(399,85,cs)
);
}
);
width = 600;
},
{
layerId = m002;
shapes = (
{
closed = 1;
nodes = (
(498,85,o),
(523,155,o),
(541,246,c),
(480,255,l),
(469,216,o),
(465,165,o),
(413,165,cs),
(339,165,o),
(299,275,o),
(200,275,cs),
(101,275,o),
(76,205,o),
(58,114,c),
(119,105,l),
(130,144,o),
(134,195,o),
(186,195,cs),
(260,195,o),
(300,85,o),
(399,85,cs)
);
},
{
closed = 1;
nodes = (
(498,285,o),
(523,355,o),
(541,446,c),
(480,455,l),
(469,416,o),
(465,365,o),
(413,365,cs),
(339,365,o),
(299,475,o),
(200,475,cs),
(101,475,o),
(76,405,o),
(58,314,c),
(119,305,l),
(130,344,o),
(134,395,o),
(186,395,cs),
(260,395,o),
(300,285,o),
(399,285,cs)
);
}
);
width = 600;
}
);
unicode = 8776;
},
{
color = 1;
glyphname = asciitilde;
layers = (
{
layerId = m01;
shapes = (
{
closed = 1;
nodes = (
(498,185,o),
(523,255,o),
(541,346,c),
(480,355,l),
(469,316,o),
(465,265,o),
(413,265,cs),
(339,265,o),
(299,375,o),
(200,375,cs),
(101,375,o),
(76,305,o),
(58,214,c),
(119,205,l),
(130,244,o),
(134,295,o),
(186,295,cs),
(260,295,o),
(300,185,o),
(399,185,cs)
);
}
);
width = 600;
},
{
layerId = m002;
shapes = (
{
closed = 1;
nodes = (
(498,185,o),
(523,255,o),
(541,346,c),
(480,355,l),
(469,316,o),
(465,265,o),
(413,265,cs),
(339,265,o),
(299,375,o),
(200,375,cs),
(101,375,o),
(76,305,o),
(58,214,c),
(119,205,l),
(130,244,o),
(134,295,o),
(186,295,cs),
(260,295,o),
(300,185,o),
(399,185,cs)
);
}
);
width = 600;
}
);
unicode = 126;
},
{
color = 3;
glyphname = logicalnot;
layers = (
{
layerId = m01;
shapes = (
{
closed = 1;
nodes = (
(517,39,l),
(517,310,l),
(82,310,l),
(82,240,l),
(447,240,l),
(447,39,l)
);
}
);
width = 600;
},
{
layerId = m002;
shapes = (
{
closed = 1;
nodes = (
(517,39,l),
(517,310,l),
(82,310,l),
(82,240,l),
(447,240,l),
(447,39,l)
);
}
);
width = 600;
}
);
unicode = 172;
},
{
color = 1;
glyphname = asciicircum;
layers = (
{
layerId = m01;
shapes = (
{
closed = 1;
nodes = (
(300,605,l),
(406,390,l),
(470,416,l),
(338,687,l),
(262,687,l),
(130,416,l),
(194,390,l)
);
}
);
width = 600;
},
{
layerId = m002;
shapes = (
{
closed = 1;
nodes = (
(300,605,l),
(406,390,l),
(470,416,l),
(338,687,l),
(262,687,l),
(130,416,l),
(194,390,l)
);
}
);
width = 600;
}
);
unicode = 94;
},
{
color = 3;
glyphname = infinity;
layers = (
{
layerId = m01;
shapes = (
{
closed = 1;
nodes = (
(780,99,o),
(862,185,o),
(862,306,cs),
(862,414,o),
(780,490,o),
(663,490,cs),
(600,490,o),
(507,429,o),
(439,343,cs),
(384,274,o),
(464,257,o),
(492,294,cs),
(544,364,o),
(615,413,o),
(663,413,cs),
(731,413,o),
(779,369,o),
(779,306,cs),
(779,234,o),
(731,183,o),
(663,183,cs),
(540,183,o),
(417,497,o),
(234,497,cs),
(116,497,o),
(33,418,o),
(33,306,cs),
(33,187,o),
(116,103,o),
(234,103,cs),
(311,103,o),
(406,166,o),
(463,256,cs),
(506,324,o),
(432,344,o),
(405,296,cs),
(365,225,o),
(294,175,o),
(234,175,cs),
(167,175,o),
(119,229,o),
(119,306,cs),
(119,369,o),
(167,413,o),
(234,413,cs),
(359,413,o),
(507,99,o),
(663,99,cs)
);
}
);
width = 895;
},
{
layerId = m002;
shapes = (
{
closed = 1;
nodes = (
(747,99,o),
(829,185,o),
(829,306,cs),
(829,414,o),
(747,490,o),
(630,490,cs),
(567,490,o),
(474,429,o),
(406,343,cs),
(351,274,o),
(431,257,o),
(459,294,cs),
(511,364,o),
(582,413,o),
(630,413,cs),
(698,413,o),
(746,369,o),
(746,306,cs),
(746,234,o),
(698,183,o),
(630,183,cs),
(507,183,o),
(384,497,o),
(201,497,cs),
(83,497,o),
(0,418,o),
(0,306,cs),
(0,187,o),
(83,103,o),
(201,103,cs),
(278,103,o),
(373,166,o),
(430,256,cs),
(473,324,o),
(399,344,o),
(372,296,cs),
(332,225,o),
(261,175,o),
(201,175,cs),
(134,175,o),
(86,229,o),
(86,306,cs),
(86,369,o),
(134,413,o),
(201,413,cs),
(326,413,o),
(474,99,o),
(630,99,cs)
);
}
);
width = 829;
}
);
unicode = 8734;
},
{
color = 3;
glyphname = emptyset;
layers = (
{
layerId = m01;
shapes = (
{
closed = 1;
nodes = (
(475,-16,o),
(603,112,o),
(603,269,cs),
(603,426,o),
(475,554,o),
(318,554,cs),
(161,554,o),
(33,426,o),
(33,269,cs),
(33,112,o),
(161,-16,o),
(318,-16,cs)
);
},
{
closed = 1;
nodes = (
(176,10,o),
(69,127,o),
(69,269,cs),
(69,411,o),
(176,528,o),
(318,528,cs),
(460,528,o),
(567,411,o),
(567,269,cs),
(567,127,o),
(460,10,o),
(318,10,cs)
);
},
{
closed = 1;
nodes = (
(45,0,l),
(89,0,l),
(592,540,l),
(548,540,l)
);
}
);
width = 636;
},
{
layerId = m002;
width = 600;
}
);
unicode = 8709;
},
{
color = 3;
glyphname = integral;
layers = (
{
layerId = m01;
shapes = (
{
closed = 1;
nodes = (
(203,-151,o),
(290,-103,o),
(296,-37,cs),
(299,1,o),
(337,255,o),
(387,575,cs),
(393,616,o),
(446,645,o),
(514,645,c),
(514,724,l),
(396,722,o),
(309,674,o),
(303,608,cs),
(300,570,o),
(262,316,o),
(212,-4,cs),
(206,-45,o),
(153,-74,o),
(85,-74,c),
(85,-153,l)
);
}
);
width = 600;
},
{
layerId = m002;
shapes = (
{
closed = 1;
nodes = (
(203,-151,o),
(290,-103,o),
(296,-37,cs),
(299,1,o),
(337,255,o),
(387,575,cs),
(393,616,o),
(446,645,o),
(514,645,c),
(514,724,l),
(396,722,o),
(309,674,o),
(303,608,cs),
(300,570,o),
(262,316,o),
(212,-4,cs),
(206,-45,o),
(153,-74,o),
(85,-74,c),
(85,-153,l)
);
}
);
width = 600;
}
);
unicode = 8747;
},
{
color = 3;
glyphname = Ohm;
layers = (
{
layerId = m01;
shapes = (
{
closed = 1;
nodes = (
(322,0,l),
(322,89,l),
(227,174,o),
(159,299,o),
(159,390,cs),
(159,533,o),
(253,635,o),
(386,635,c),
(386,716,l),
(200,716,o),
(68,581,o),
(68,390,cs),
(68,284,o),
(132,157,o),
(222,84,c),
(222,80,l),
(66,80,l),
(66,0,l)
);
},
{
closed = 1;
nodes = (
(706,0,l),
(706,80,l),
(550,80,l),
(550,84,l),
(640,157,o),
(704,284,o),
(704,390,cs),
(704,581,o),
(572,716,o),
(386,716,c),
(386,635,l),
(519,635,o),
(613,533,o),
(613,390,cs),
(613,299,o),
(545,174,o),
(450,89,c),
(450,0,l)
);
}
);
width = 772;
},
{
layerId = m002;
width = 600;
}
);
unicode = 8486;
},
{
color = 3;
glyphname = increment;
layers = (
{
layerId = m01;
shapes = (
{
closed = 1;
nodes = (
(660,0,l),
(349,794,l),
(33,0,l)
);
},
{
closed = 1;
nodes = (
(348,611,l),
(559,73,l),
(134,73,l)
);
}
);
width = 693;
},
{
layerId = m002;
width = 600;
}
);
unicode = 8710;
},
{
color = 3;
glyphname = product;
layers = (
{
layerId = m01;
shapes = (
{
closed = 1;
nodes = (
(495,-140,l),
(495,671,l),
(405,671,l),
(405,-140,l)
);
},
{
closed = 1;
nodes = (
(195,-140,l),
(195,671,l),
(105,671,l),
(105,-140,l)
);
},
{
closed = 1;
nodes = (
(596,634,l),
(596,706,l),
(5,706,l),
(5,634,l)
);
}
);
width = 600;
},
{
layerId = m002;
shapes = (
{
closed = 1;
nodes = (
(195,-140,l),
(195,671,l),
(105,671,l),
(105,-140,l)
);
},
{
closed = 1;
nodes = (
(495,-140,l),
(495,671,l),
(405,671,l),
(405,-140,l)
);
},
{
closed = 1;
nodes = (
(596,634,l),
(596,706,l),
(5,706,l),
(5,634,l)
);
}
);
width = 600;
}
);
unicode = 8719;
},
{
color = 3;
glyphname = summation;
layers = (
{
layerId = m01;
shapes = (
{
closed = 1;
nodes = (
(514,-136,l),
(514,-56,l),
(185,-56,l),
(410,288,l),
(185,631,l),
(514,631,l),
(514,712,l),
(86,712,l),
(86,632,l),
(311,288,l),
(86,-57,l),
(86,-136,l)
);
}
);
width = 600;
},
{
layerId = m002;
shapes = (
{
closed = 1;
nodes = (
(514,-136,l),
(514,-56,l),
(185,-56,l),
(410,288,l),
(185,631,l),
(514,631,l),
(514,712,l),
(86,712,l),
(86,632,l),
(311,288,l),
(86,-57,l),
(86,-136,l)
);
}
);
width = 600;
}
);
unicode = 8721;
},
{
color = 3;
glyphname = radical;
layers = (
{
layerId = m01;
shapes = (
{
closed = 1;
nodes = (
(241,-167,l),
(453,642,l),
(616,642,l),
(616,703,l),
(396,703,l),
(189,-91,l),
(72,258,l),
(0,258,l),
(143,-167,l)
);
}
);
width = 600;
},
{
layerId = m002;
shapes = (
{
closed = 1;
nodes = (
(72,258,l),
(189,-91,l),
(396,703,l),
(616,703,l),
(616,642,l),
(453,642,l),
(241,-167,l),
(143,-167,l),
(0,258,l)
);
}
);
width = 600;
}
);
unicode = 8730;
},
{
color = 3;
glyphname = partialdiff;
layers = (
{
layerId = m01;
shapes = (
{
closed = 1;
nodes = (
(441,-11,o),
(538,140,o),
(538,353,cs),
(538,556,o),
(410,728,o),
(228,769,c),
(206,702,l),
(358,673,o),
(466,529,o),
(466,354,cs),
(466,178,o),
(399,54,o),
(304,54,cs),
(208,54,o),
(140,128,o),
(140,232,cs),
(140,329,o),
(208,398,o),
(304,398,cs),
(369,398,o),
(444,331,o),
(483,236,c),
(510,298,l),
(462,395,o),
(377,464,o),
(304,464,cs),
(164,464,o),
(65,370,o),
(65,238,cs),
(65,92,o),
(164,-11,o),
(304,-11,cs)
);
}
);
width = 600;
},
{
layerId = m002;
shapes = (
{
closed = 1;
nodes = (
(441,-11,o),
(538,148,o),
(538,373,cs),
(538,564,o),
(410,728,o),
(228,769,c),
(206,702,l),
(352,674,o),
(456,538,o),
(456,374,cs),
(456,192,o),
(393,64,o),
(304,64,cs),
(214,64,o),
(150,134,o),
(150,232,cs),
(150,323,o),
(214,388,o),
(304,388,cs),
(372,388,o),
(446,325,o),
(483,236,c),
(510,298,l),
(462,395,o),
(377,464,o),
(304,464,cs),
(164,464,o),
(65,370,o),
(65,238,cs),
(65,92,o),
(164,-11,o),
(304,-11,cs)
);
}
);
width = 600;
}
);
unicode = 8706;
},
{
color = 3;
glyphname = micro;
layers = (
{
layerId = m01;
shapes = (
{
closed = 1;
nodes = (
(66,500,l),
(66,-177,l),
(146,-177,l),
(146,56,l),
(175,19,o),
(226,-7,o),
(270,-7,cs),
(321,-7,o),
(375,29,o),
(400,81,c),
(404,81,l),
(412,32,o),
(453,-2,o),
(503,-2,cs),
(542,-2,l),
(542,66,l),
(527,66,ls),
(499,66,o),
(480,89,o),
(480,121,cs),
(480,500,l),
(399,500,l),
(400,354,o),
(401,232,o),
(401,206,cs),
(401,125,o),
(347,68,o),
(270,68,cs),
(197,68,o),
(146,119,o),
(146,190,cs),
(146,500,l)
);
}
);
width = 608;
},
{
layerId = m002;
width = 600;
}
);
unicode = 181;
},
{
glyphname = percent;
layers = (
{
layerId = m01;
shapes = (
{
closed = 1;
nodes = (
(167,0,l),
(655,702,l),
(590,702,l),
(101,0,l)
);
},
{
closed = 1;
nodes = (
(632,-16,o),
(680,58,o),
(680,177,cs),
(680,285,o),
(632,353,o),
(556,353,cs),
(478,353,o),
(430,283,o),
(430,172,cs),
(430,56,o),
(478,-16,o),
(556,-16,cs)
);
},
{
closed = 1;
nodes = (
(509,19,o),
(482,62,o),
(482,186,cs),
(482,286,o),
(505,318,o),
(549,318,cs),
(602,318,o),
(628,278,o),
(628,161,cs),
(628,53,o),
(606,19,o),
(563,19,cs)
);
},
{
closed = 1;
nodes = (
(282,348,o),
(330,422,o),
(330,541,cs),
(330,649,o),
(282,717,o),
(206,717,cs),
(128,717,o),
(80,647,o),
(80,536,cs),
(80,420,o),
(128,348,o),
(206,348,cs)
);
},
{
closed = 1;
nodes = (
(159,383,o),
(132,426,o),
(132,550,cs),
(132,650,o),
(155,682,o),
(199,682,cs),
(252,682,o),
(278,642,o),
(278,525,cs),
(278,417,o),
(256,383,o),
(213,383,cs)
);
}
);
width = 760;
},
{
layerId = m002;
shapes = (
{
closed = 1;
nodes = (
(178,-2,l),
(669,704,l),
(579,704,l),
(87,-2,l)
);
},
{
closed = 1;
nodes = (
(656,-18,o),
(706,59,o),
(706,177,cs),
(706,284,o),
(654,355,o),
(556,355,cs),
(455,355,o),
(404,282,o),
(404,172,cs),
(404,57,o),
(455,-18,o),
(556,-18,cs)
);
},
{
closed = 1;
nodes = (
(530,21,o),
(508,57,o),
(508,186,cs),
(508,292,o),
(526,316,o),
(549,316,cs),
(581,316,o),
(602,283,o),
(602,161,cs),
(602,48,o),
(585,21,o),
(563,21,cs)
);
},
{
closed = 1;
nodes = (
(306,346,o),
(356,423,o),
(356,541,cs),
(356,648,o),
(304,719,o),
(206,719,cs),
(105,719,o),
(54,646,o),
(54,536,cs),
(54,421,o),
(105,346,o),
(206,346,cs)
);
},
{
closed = 1;
nodes = (
(180,385,o),
(158,421,o),
(158,550,cs),
(158,656,o),
(176,680,o),
(199,680,cs),
(231,680,o),
(252,647,o),
(252,525,cs),
(252,412,o),
(235,385,o),
(213,385,cs)
);
}
);
width = 760;
}
);
unicode = 37;
},
{
color = 3;
glyphname = perthousand;
layers = (
{
layerId = m01;
shapes = (
{
closed = 1;
nodes = (
(87,0,l),
(575,702,l),
(510,702,l),
(21,0,l)
);
},
{
closed = 1;
nodes = (
(552,-16,o),
(600,58,o),
(600,177,cs),
(600,285,o),
(552,353,o),
(476,353,cs),
(398,353,o),
(350,283,o),
(350,172,cs),
(350,56,o),
(398,-16,o),
(476,-16,cs)
);
},
{
closed = 1;
nodes = (
(429,19,o),
(402,62,o),
(402,186,cs),
(402,286,o),
(425,318,o),
(469,318,cs),
(522,318,o),
(548,278,o),
(548,161,cs),
(548,53,o),
(526,19,o),
(483,19,cs)
);
},
{
closed = 1;
nodes = (
(202,348,o),
(250,422,o),
(250,541,cs),
(250,649,o),
(202,717,o),
(126,717,cs),
(48,717,o),
(0,647,o),
(0,536,cs),
(0,420,o),
(48,348,o),
(126,348,cs)
);
},
{
closed = 1;
nodes = (
(79,383,o),
(52,426,o),
(52,550,cs),
(52,650,o),
(75,682,o),
(119,682,cs),
(172,682,o),
(198,642,o),
(198,525,cs),
(198,417,o),
(176,383,o),
(133,383,cs)
);
},
{
closed = 1;
nodes = (
(852,-16,o),
(900,58,o),
(900,177,cs),
(900,285,o),
(852,353,o),
(776,353,cs),
(698,353,o),
(650,283,o),
(650,172,cs),
(650,56,o),
(698,-16,o),
(776,-16,cs)
);
},
{
closed = 1;
nodes = (
(729,19,o),
(702,62,o),
(702,186,cs),
(702,286,o),
(725,318,o),
(769,318,cs),
(822,318,o),
(848,278,o),
(848,161,cs),
(848,53,o),
(826,19,o),
(783,19,cs)
);
}
);
width = 900;
},
{
layerId = m002;
shapes = (
{
closed = 1;
nodes = (
(124,-2,l),
(615,704,l),
(525,704,l),
(33,-2,l)
);
},
{
closed = 1;
nodes = (
(602,-18,o),
(652,59,o),
(652,177,cs),
(652,284,o),
(600,355,o),
(502,355,cs),
(401,355,o),
(350,282,o),
(350,172,cs),
(350,57,o),
(401,-18,o),
(502,-18,cs)
);
},
{
closed = 1;
nodes = (
(476,21,o),
(454,57,o),
(454,186,cs),
(454,292,o),
(472,316,o),
(495,316,cs),
(527,316,o),
(548,283,o),
(548,161,cs),
(548,48,o),
(531,21,o),
(509,21,cs)
);
},
{
closed = 1;
nodes = (
(252,346,o),
(302,423,o),
(302,541,cs),
(302,648,o),
(250,719,o),
(152,719,cs),
(51,719,o),
(0,646,o),
(0,536,cs),
(0,421,o),
(51,346,o),
(152,346,cs)
);
},
{
closed = 1;
nodes = (
(126,385,o),
(104,421,o),
(104,550,cs),
(104,656,o),
(122,680,o),
(145,680,cs),
(177,680,o),
(198,647,o),
(198,525,cs),
(198,412,o),
(181,385,o),
(159,385,cs)
);
},
{
closed = 1;
nodes = (
(942,-18,o),
(992,59,o),
(992,177,c),
(992,284,o),
(940,355,o),
(842,355,c),
(741,355,o),
(690,282,o),
(690,172,c),
(690,57,o),
(741,-18,o),
(842,-18,c)
);
},
{
closed = 1;
nodes = (
(816,21,o),
(794,57,o),
(794,186,c),
(794,292,o),
(812,316,o),
(835,316,c),
(867,316,o),
(888,283,o),
(888,161,c),
(888,48,o),
(871,21,o),
(849,21,c)
);
}
);
width = 992;
}
);
unicode = 8240;
},
{
color = 3;
glyphname = upArrow;
layers = (
{
layerId = m01;
shapes = (
{
closed = 1;
nodes = (
(261,0,l),
(337,0,l),
(337,678,l),
(261,678,l)
);
},
{
closed = 1;
nodes = (
(7,438,l),
(58,385,l),
(300,638,l),
(300,731,l)
);
},
{
closed = 1;
nodes = (
(300,638,l),
(542,385,l),
(593,438,l),
(300,731,l)
);
}
);
width = 600;
},
{
layerId = m002;
width = 600;
}
);
unicode = 8593;
},
{
color = 3;
glyphname = northEastArrow;
layers = (
{
layerId = m01;
shapes = (
{
closed = 1;
nodes = (
(7,135,l),
(61,81,l),
(540,560,l),
(486,614,l)
);
},
{
closed = 1;
nodes = (
(137,624,l),
(136,550,l),
(486,558,l),
(551,624,l)
);
},
{
closed = 1;
nodes = (
(486,558,l),
(478,208,l),
(551,210,l),
(551,624,l)
);
}
);
width = 558;
},
{
layerId = m002;
width = 600;
}
);
unicode = 8599;
},
{
color = 3;
glyphname = rightArrow;
layers = (
{
layerId = m01;
shapes = (
{
closed = 1;
nodes = (
(685,416,l),
(7,416,l),
(7,340,l),
(685,340,l)
);
},
{
closed = 1;
nodes = (
(645,379,l),
(392,137,l),
(445,86,l),
(738,379,l)
);
},
{
closed = 1;
nodes = (
(445,672,l),
(392,621,l),
(645,379,l),
(738,379,l)
);
}
);
width = 745;
},
{
layerId = m002;
width = 600;
}
);
unicode = 8594;
},
{
color = 3;
glyphname = southEastArrow;
layers = (
{
layerId = m01;
shapes = (
{
closed = 1;
nodes = (
(540,145,l),
(61,624,l),
(7,570,l),
(486,91,l)
);
},
{
closed = 1;
nodes = (
(486,147,l),
(136,155,l),
(137,81,l),
(551,81,l)
);
},
{
closed = 1;
nodes = (
(551,495,l),
(478,497,l),
(486,147,l),
(551,81,l)
);
}
);
width = 558;
},
{
layerId = m002;
width = 600;
}
);
unicode = 8600;
},
{
color = 3;
glyphname = downArrow;
layers = (
{
layerId = m01;
shapes = (
{
closed = 1;
nodes = (
(337,53,l),
(337,731,l),
(261,731,l),
(261,53,l)
);
},
{
closed = 1;
nodes = (
(300,93,l),
(58,346,l),
(7,293,l),
(300,0,l)
);
},
{
closed = 1;
nodes = (
(593,293,l),
(542,346,l),
(300,93,l),
(300,0,l)
);
}
);
width = 600;
},
{
layerId = m002;
width = 600;
}
);
unicode = 8595;
},
{
color = 3;
glyphname = southWestArrow;
layers = (
{
layerId = m01;
shapes = (
{
closed = 1;
nodes = (
(551,570,l),
(497,624,l),
(18,145,l),
(72,91,l)
);
},
{
closed = 1;
nodes = (
(421,81,l),
(422,155,l),
(72,147,l),
(7,81,l)
);
},
{
closed = 1;
nodes = (
(72,147,l),
(80,497,l),
(7,495,l),
(7,81,l)
);
}
);
width = 558;
},
{
layerId = m002;
width = 600;
}
);
unicode = 8601;
},
{
color = 3;
glyphname = leftArrow;
layers = (
{
layerId = m01;
shapes = (
{
closed = 1;
nodes = (
(738,340,l),
(738,416,l),
(60,416,l),
(60,340,l)
);
},
{
closed = 1;
nodes = (
(300,86,l),
(353,137,l),
(100,379,l),
(7,379,l)
);
},
{
closed = 1;
nodes = (
(100,379,l),
(353,621,l),
(300,672,l),
(7,379,l)
);
}
);
width = 745;
},
{
layerId = m002;
width = 600;
}
);
unicode = 8592;
},
{
color = 3;
glyphname = northWestArrow;
layers = (
{
layerId = m01;
shapes = (
{
closed = 1;
nodes = (
(18,560,l),
(497,81,l),
(551,135,l),
(72,614,l)
);
},
{
closed = 1;
nodes = (
(72,558,l),
(422,550,l),
(421,624,l),
(7,624,l)
);
},
{
closed = 1;
nodes = (
(7,210,l),
(80,208,l),
(72,558,l),
(7,624,l)
);
}
);
width = 558;
},
{
layerId = m002;
width = 600;
}
);
unicode = 8598;
},
{
color = 3;
glyphname = leftRightArrow;
layers = (
{
layerId = m01;
shapes = (
{
closed = 1;
nodes = (
(825,416,l),
(147,416,l),
(147,340,l),
(825,340,l)
);
},
{
closed = 1;
nodes = (
(785,379,l),
(532,137,l),
(585,86,l),
(878,379,l)
);
},
{
closed = 1;
nodes = (
(585,672,l),
(532,621,l),
(785,379,l),
(878,379,l)
);
},
{
closed = 1;
nodes = (
(738,340,l),
(738,416,l),
(60,416,l),
(60,340,l)
);
},
{
closed = 1;
nodes = (
(300,86,l),
(353,137,l),
(100,379,l),
(7,379,l)
);
},
{
closed = 1;
nodes = (
(100,379,l),
(353,621,l),
(300,672,l),
(7,379,l)
);
}
);
width = 885;
},
{
layerId = m002;
width = 600;
}
);
unicode = 8596;
},
{
color = 3;
glyphname = upDownArrow;
layers = (
{
layerId = m01;
shapes = (
{
closed = 1;
nodes = (
(337,-3,l),
(337,675,l),
(261,675,l),
(261,-3,l)
);
},
{
closed = 1;
nodes = (
(300,37,l),
(58,290,l),
(7,237,l),
(300,-56,l)
);
},
{
closed = 1;
nodes = (
(593,237,l),
(542,290,l),
(300,37,l),
(300,-56,l)
);
},
{
closed = 1;
nodes = (
(261,84,l),
(337,84,l),
(337,762,l),
(261,762,l)
);
},
{
closed = 1;
nodes = (
(7,522,l),
(58,469,l),
(300,722,l),
(300,815,l)
);
},
{
closed = 1;
nodes = (
(300,722,l),
(542,469,l),
(593,522,l),
(300,815,l)
);
}
);
width = 600;
},
{
layerId = m002;
width = 600;
}
);
unicode = 8597;
},
{
color = 3;
glyphname = blackCircle;
layers = (
{
layerId = m01;
shapes = (
{
closed = 1;
nodes = (
(613,-50,o),
(790,127,o),
(790,345,cs),
(790,563,o),
(613,740,o),
(395,740,cs),
(177,740,o),
(0,563,o),
(0,345,cs),
(0,127,o),
(177,-50,o),
(395,-50,cs)
);
}
);
width = 790;
},
{
layerId = m002;
width = 600;
}
);
unicode = 9679;
},
{
color = 3;
glyphname = whiteCircle;
layers = (
{
layerId = m01;
shapes = (
{
closed = 1;
nodes = (
(613,-50,o),
(790,127,o),
(790,345,cs),
(790,563,o),
(613,740,o),
(395,740,cs),
(177,740,o),
(0,563,o),
(0,345,cs),
(0,127,o),
(177,-50,o),
(395,-50,cs)
);
},
{
closed = 1;
nodes = (
(197,-13,o),
(37,147,o),
(37,345,cs),
(37,543,o),
(197,703,o),
(395,703,cs),
(593,703,o),
(753,543,o),
(753,345,cs),
(753,147,o),
(593,-13,o),
(395,-13,cs)
);
}
);
width = 790;
},
{
layerId = m002;
width = 600;
}
);
unicode = 9675;
},
{
color = 3;
glyphname = whiteBullet;
layers = (
{
layerId = m01;
shapes = (
{
closed = 1;
nodes = (
(351,122,o),
(418,189,o),
(418,270,cs),
(418,351,o),
(351,418,o),
(270,418,cs),
(189,418,o),
(122,351,o),
(122,270,cs),
(122,189,o),
(189,122,o),
(270,122,cs)
);
},
{
closed = 1;
nodes = (
(200,142,o),
(142,200,o),
(142,270,cs),
(142,340,o),
(200,398,o),
(270,398,cs),
(340,398,o),
(398,340,o),
(398,270,cs),
(398,200,o),
(340,142,o),
(270,142,cs)
);
}
);
width = 540;
},
{
layerId = m002;
width = 600;
}
);
unicode = 9702;
},
{
color = 3;
glyphname = blackDiamond;
layers = (
{
layerId = m01;
shapes = (
{
closed = 1;
nodes = (
(392,-33,l),
(775,351,l),
(390,736,l),
(7,352,l)
);
}
);
width = 782;
},
{
layerId = m002;
width = 600;
}
);
unicode = 9670;
},
{
color = 3;
glyphname = whiteDiamond;
layers = (
{
layerId = m01;
shapes = (
{
closed = 1;
nodes = (
(392,-33,l),
(775,351,l),
(390,736,l),
(7,352,l)
);
},
{
closed = 1;
nodes = (
(390,680,l),
(720,351,l),
(392,23,l),
(62,352,l)
);
}
);
width = 782;
},
{
layerId = m002;
width = 600;
}
);
unicode = 9671;
},
